<?xml version="1.0" encoding="UTF-8"?>
<svg id="Calque_1" xmlns="http://www.w3.org/2000/svg" version="1.1" viewBox="0 0 500 500">
  <!-- Generator: Adobe Illustrator 30.3.0, SVG Export Plug-In . SVG Version: 2.1.3 Build 182)  -->
  <defs>
    <style>
      .st0 {
        fill: none;
      }

      .st1 {
        fill: #fff;
      }
    </style>
  </defs>
  <path class="st0" d="M163.85,421.55c-8.19-4.73-14.08-11.39-17.78-19.61-2.51-5.57-5.64-7.21-11.49-7.83-27.6-2.9-42.71-18.21-46.45-46.16-.43-3.24.68-6.72-3.51-8.76-7.53-3.67-14.82-7.85-22.73-12.11-12.65,16.35-23.13,32.94-27.41,52.51-7.27,33.26,12.04,60.35,53.05,73.36,26.41,4.34,51.95,2.44,75.57-11.33,10.67-6.22,11-14.16.75-20.08Z"/>
  <path class="st0" d="M342.32,164.34c-3.98-.44-7.92-.45-11.82,0h11.82Z"/>
  <path class="st0" d="M422.79,335.64c-6.06,3.25-11.15,5.87-11.78,14.66-1.6,22.16-15.96,39.08-37.84,42.44-12.02,1.85-19.39,6.28-24.84,18.45-3.48,3.14-6.72,6.63-10.5,9.36-12.32,8.88-11.7,15.69,1.73,23.3,17.49,9.91,36.85,10.62,55.98,11.46,32.86,1.43,67.57-25.44,70.45-55.6,2.74-28.6-11.85-51.15-28.8-72.87-5.7,3.51-9.92,6.4-14.4,8.8Z"/>
  <path class="st1" d="M305.09,174.47c-21.12,15.35-29.59,44.99-19.56,71.21,8.94,23.37,25.68,38.31,51.01,41.09,23.95,2.63,42.57-7.21,54.59-28.15,13.05-22.74,7.85-55.17-13.07-78.32-11.58-9.31-23.78-14.62-35.75-15.95h-11.82c-8.9,1.03-17.51,4.38-25.41,10.12ZM338.75,268.25c-19.78,4.77-32.07-.5-37.49-15.66-3.5-9.78-3.17-19.49,4.14-27.63,6.67-7.42,15.36-9.14,24.57-5.94,10.85,3.76,17.98,11.43,19.84,22.97,1.67,10.37-.67,19.54-11.06,26.25Z"/>
  <path class="st1" d="M102.53,214.3c-5.28,24.83,1.88,45.87,21.46,61.85,17.68,14.42,42.29,14.75,63.79,2.19,27.74-16.2,39.01-55.8,24.04-84.43-14.41-27.55-46.48-37.54-77.64-22.72-16.73,9.83-27.6,24.09-31.64,43.11ZM154.9,229.68c7.3-10.57,20.45-15.02,31.51-10.3,3.07,1.31,5.67,3.71,9.13,6.41,8.94,17.5,5.08,33.78-9.71,41.55-10.25,5.38-20.72,5.44-29.53-3.28-8.5-8.41-8.89-23.54-1.39-34.38Z"/>
  <path class="st1" d="M313.04,381.04c12.1-18.14,8.67-25.87-13.07-28.4-13.02-1.52-23.52-4.35-31.78-17.15-12.18-18.87-24.81-18.13-37.43,1.06-6.4,9.74-14.06,13.41-24.79,15.12-30.35,4.84-33.17,12.7-13.12,37.03,5.85,7.09,5.98,12.36-.1,18.82-6.34,6.74-9.18,15.32-11.14,24.17-2.97,13.45,3.34,19.68,16.67,16.42,2.47-.6,5.01-1.46,7.13-2.81,10.35-6.56,16.9-4.57,21.52,7.35,3.99,10.28,11.26,18.15,25.25,19.44,7.17-1.42,13.83-5.39,16.05-11.65,6.76-19.1,17.17-20.99,34.69-12.63,11.55,5.51,18.44-2.62,15.85-15.4-2.01-9.89-6.49-18.54-12.75-26.26-4.46-5.5-4.95-10.51.06-15.92,2.6-2.81,4.83-5.99,6.97-9.19ZM272.51,410.05c-.74.99-3,.83-4.45,1.18-4.68-5.37-1.05-10.21-.26-14.91,2.33-13.75-.42-16.92-14.61-15.76-4.22.35-8.38,1.41-12.56,2.21-3.37.65-7.31,1.92-8.76-2.45-1.63-4.95,2.47-6.73,6.12-8.06,2.79-1.01,5.8-1.42,9.81-2.23,3.66-.24,6.23-.51,8.78-.43,7.87.25,17.45-2.28,20.96,7.77,3.99,11.41,2.45,22.74-5.04,32.67Z"/>
  <path d="M472.33,366.97c-4.6-12.51-10.36-24.64-18.63-34.98-7.35-9.18-10.37-17.87-6.03-29.26,2.98-7.84,1.56-16.43-1.58-23.88-2.83-6.73-.87-10.67,3.19-15.91,17.27-22.34,16.66-42.29-1.74-63.67-4.07-4.73-5.37-8.51-3.23-14.81,8.82-25.9,2.2-42.52-21.74-55.54-5.34-2.9-8.39-5.84-8.85-12.5-2.03-28.93-14.5-42.52-43.03-46.79-7.54-1.13-11.7-3.09-14.48-11.17-8.58-24.97-32.4-34.87-56.75-24.88-3.1,1.27-6.27,2.35-9.13,3.42-23.47-23.68-53.99-26.81-73.09-7.03-5.81,6.02-9.71,6.62-17.21,3.33-22.26-9.77-46.23-.14-54.81,22.38-3.54,9.29-8.12,12.93-17.92,14.4-25.17,3.77-40.65,19.61-40.73,41.72-.04,10.32-3.95,14.97-12.68,19.26-19.46,9.58-27.22,29.39-19.42,49.68,3.2,8.33,2.4,13.51-3.53,20.33-16.83,19.35-17.74,38.61-2.42,58.19,6.18,7.9,8.3,14.48,4.48,23.84-2.94,7.21-2.88,15.34-.03,22.69,3.56,9.17.68,15.92-4.93,23.35-11.15,14.74-20.07,30.83-23.91,50.4-4.91,31.03,6.57,53.87,31.43,69.99,34.02,22.06,69.67,19.53,105.5,4.95,5.93-2.41,10.37-4.33,16.24.36,6.75,5.39,15.48,6.63,23.12,2.9,11.43-5.58,16.62-1.29,23.2,8.38,15.5,22.79,36.69,22.34,53.15.33.77-1.03,1.59-2.06,2.12-3.21,3.63-7.88,8.41-10.57,17.14-6.21,8.37,4.18,18.04,4.55,25.63-1.54,6.8-5.45,11.91-3.1,18.56-.39,30.86,12.54,61.92,15.26,93.25.94,36.24-16.57,52.23-52.72,38.87-89.05ZM306.02,406.15c6.27,7.72,10.75,16.37,12.75,26.26,2.59,12.78-4.3,20.91-15.85,15.4-17.52-8.36-27.92-6.46-34.69,12.63-2.22,6.26-8.88,10.24-16.05,11.65-13.99-1.29-21.26-9.17-25.25-19.44-4.63-11.92-11.18-13.91-21.52-7.35-2.12,1.35-4.66,2.21-7.13,2.81-13.33,3.26-19.64-2.98-16.67-16.42,1.95-8.85,4.79-17.43,11.14-24.17,6.08-6.46,5.95-11.72.1-18.82-20.05-24.33-17.23-32.19,13.12-37.03,10.72-1.71,18.38-5.38,24.79-15.12,12.62-19.2,25.25-19.93,37.43-1.06,8.26,12.79,18.76,15.63,31.78,17.15,21.75,2.54,25.18,10.26,13.07,28.4-2.13,3.19-4.37,6.38-6.97,9.19-5.01,5.42-4.52,10.42-.06,15.92ZM342.32,164.34c11.97,1.33,24.17,6.63,35.75,15.95,20.91,23.15,26.12,55.58,13.07,78.32-12.02,20.95-30.64,30.79-54.59,28.15-25.33-2.78-42.07-17.72-51.01-41.09-10.03-26.21-1.56-55.86,19.56-71.21,7.91-5.75,16.51-9.09,25.41-10.12,3.89-.45,7.84-.44,11.82,0ZM211.81,193.91c14.97,28.63,3.7,68.23-24.04,84.43-21.5,12.56-46.11,12.23-63.79-2.19-19.58-15.98-26.74-37.02-21.46-61.85,4.04-19.02,14.91-33.28,31.64-43.11,31.16-14.82,63.24-4.83,77.64,22.72ZM163.09,441.63c-23.62,13.78-49.16,15.67-75.57,11.33-41.01-13.02-60.32-40.1-53.05-73.36,4.28-19.57,14.75-36.15,27.41-52.51,7.92,4.25,15.2,8.44,22.73,12.11,4.19,2.04,3.08,5.53,3.51,8.76,3.74,27.94,18.85,43.26,46.45,46.16,5.84.61,8.98,2.26,11.49,7.83,3.7,8.22,9.59,14.88,17.78,19.61,10.25,5.91,9.92,13.85-.75,20.08ZM465.99,399.7c-2.89,30.16-37.6,57.04-70.45,55.6-19.13-.83-38.49-1.54-55.98-11.46-13.43-7.61-14.05-14.42-1.73-23.3,3.78-2.73,7.01-6.22,10.5-9.36,5.45-12.17,12.82-16.6,24.84-18.45,21.88-3.36,36.24-20.29,37.84-42.44.63-8.79,5.72-11.41,11.78-14.66,4.48-2.4,8.7-5.29,14.4-8.8,16.95,21.72,31.54,44.27,28.8,72.87Z"/>
  <path d="M256.58,369.6c-2.55-.08-5.12.19-8.78.43-4.01.81-7.02,1.22-9.81,2.23-3.65,1.32-7.76,3.11-6.12,8.06,1.44,4.37,5.38,3.09,8.76,2.45,4.18-.8,8.34-1.86,12.56-2.21,14.19-1.16,16.94,2,14.61,15.76-.8,4.71-4.43,9.54.26,14.91,1.45-.35,3.71-.19,4.45-1.18,7.49-9.93,9.03-21.27,5.04-32.67-3.52-10.05-13.09-7.52-20.96-7.77Z"/>
  <path d="M185.82,267.34c14.79-7.76,18.66-24.05,9.71-41.55-3.46-2.71-6.06-5.1-9.13-6.41-11.06-4.72-24.2-.27-31.51,10.3-7.49,10.85-7.11,25.97,1.39,34.38,8.81,8.72,19.27,8.66,29.53,3.28Z"/>
  <path d="M329.97,219.02c-9.22-3.2-17.9-1.48-24.57,5.94-7.31,8.14-7.64,17.85-4.14,27.63,5.43,15.16,17.71,20.43,37.49,15.66,10.39-6.71,12.73-15.89,11.06-26.25-1.86-11.54-8.99-19.2-19.84-22.97Z"/>
</svg>