<?xml version="1.0" encoding="UTF-8"?>
<svg id="Calque_1" xmlns="http://www.w3.org/2000/svg" version="1.1" viewBox="0 0 500 500">
  <!-- Generator: Adobe Illustrator 30.3.0, SVG Export Plug-In . SVG Version: 2.1.3 Build 182)  -->
  <defs>
    <style>
      .st0 {
        fill: #fff;
      }
    </style>
  </defs>
  <path class="st0" d="M181.85,322.37c15.13,7.11,29.02,2.42,42.65-9.51,21.12-21.96,29.51-47.5,18.9-76.81-9.15-25.28-35.14-31.82-56.03-14.92-19.64,15.89-28.05,36.96-27.15,61.99.6,16.75,5.51,31.67,21.62,39.25ZM217.25,230.53c11.29-2.68,23.81,5.52,26.26,17.45,2.25,10.99-3.75,17.82-13.28,23.56-16.81,3.23-27.29-2.59-29.89-15.68-2.29-11.54,5.04-22.51,16.9-25.33Z"/>
  <path class="st0" d="M336.88,217.68c-17.74-9.32-35.29-4.14-45,13.28-16.01,28.72-8.94,65.43,18.63,89.58,18.88,11.22,35.27,9.25,46.96-5.64,22.15-28.19,11.04-80.6-20.6-97.22ZM330.43,258.55c-5.44,12.67-14.23,17.53-26.46,13.92-10.68-3.15-16.63-11.21-16.09-22.25.55-11.3,7.92-17.9,18.79-19.94,14.89-2.79,25.33,9.21,23.76,28.27Z"/>
  <path d="M403.15,305.57c-8.97-44.57-15.35-90.09-34.63-132.08-1.44-3.13-1.68-7.07-1.59-10.61.41-14.99-1.53-29.79-3.32-45.81-4.32-27.83-13.12-52.93-25.79-76.66-5.35-10.02-11.89-19.27-21.4-25.93-19.8-13.88-43.71-7.91-55.57,13.06-10.86,19.2-6.33,39.61-6.42,59.77-.03,6.73,8.58,17.24-2.85,19.48-9.6,1.89-8.8-10.72-11.55-17.1-9.58-22.21-20.54-42.99-39.53-59.13-21.75-18.47-65.77-7.92-68.61,28.67-1.63,20.92-.4,41.61,3.63,62.04,5.64,28.66,4.25,55.79-7.39,83.46-22.39,53.22-38.35,108-34.72,167.16,3.41,55.48,26.87,91.38,78.17,108.99,60.41,20.74,119.36,14.09,176.38-13.82,17.45-8.54,29.27-21.99,38.23-38.91,20.58-38.89,25.45-80.49,16.97-122.6ZM187.38,221.13c20.89-16.9,46.88-10.36,56.03,14.92,10.6,29.31,2.22,54.85-18.9,76.81-13.64,11.92-27.53,16.62-42.65,9.51-16.12-7.58-21.02-22.5-21.62-39.25-.89-25.03,7.51-46.1,27.15-61.99ZM357.48,314.9c-11.7,14.89-28.08,16.86-46.96,5.64-27.57-24.15-34.63-60.86-18.63-89.58,9.71-17.42,27.25-22.6,45-13.28,31.64,16.62,42.74,69.02,20.6,97.22Z"/>
  <path d="M230.23,271.55c9.52-5.75,15.53-12.57,13.28-23.56-2.45-11.93-14.97-20.13-26.26-17.45-11.87,2.82-19.19,13.79-16.9,25.33,2.6,13.09,13.08,18.91,29.89,15.68Z"/>
  <path d="M306.67,230.27c-10.87,2.03-18.24,8.64-18.79,19.94-.54,11.05,5.41,19.1,16.09,22.25,12.22,3.61,21.02-1.26,26.46-13.92,1.58-19.06-8.86-31.06-23.76-28.27Z"/>
</svg>