<?xml version="1.0" encoding="UTF-8"?>
<svg id="Calque_1" xmlns="http://www.w3.org/2000/svg" version="1.1" viewBox="0 0 500 500">
  <!-- Generator: Adobe Illustrator 30.3.0, SVG Export Plug-In . SVG Version: 2.1.3 Build 182)  -->
  <defs>
    <style>
      .st0 {
        fill: #fff;
      }
    </style>
  </defs>
  <path class="st0" d="M168.42,177.32c25.22-6.07,46.32,3.88,57.39,27.02,4.68,9.78,6.77,20.32,9.64,30.63,2.1,7.51,6.44,12.39,14.4,12.67,8.41.3,12.16-5.4,14.25-12.59,2.41-8.3,4.32-16.77,7.25-24.88,9.92-27.54,31.18-39.04,59.75-32.72,3.99.88,7.96,1.84,12.43,2.88-1.01-4.68-4.15-6.87-8.1-10.17-31.95-14.99-62.39-2.11-72.98,30.89-1.8,5.6-3.56,11.21-5.44,16.78-1.24,3.67-2.81,7.75-7.16,7.94-5.11.23-6.65-4.37-7.92-8.31-2.55-7.9-4.59-15.97-7.19-23.85-3.1-9.38-7.33-18.51-16.88-22.66-15.97-6.93-32.55-9.21-49.5-3.04-5.36,1.95-9.88,4.62-11.26,10.82,4.39,2.08,7.79-.55,11.33-1.4Z"/>
  <path class="st0" d="M188.93,281.32c15.87-8.79,22.66-23.4,25.18-42.37.61-8.81-1.11-17.19-5.06-25.05-7.65-15.23-24.62-21.38-40.29-14.75-26.71,11.3-37.11,52.5-18.94,74.98,9.76,12.07,24.98,15.01,39.11,7.19ZM160.82,230.23c4-8.32,10.19-14.38,20.17-13.44,10.09.95,14.66,8.29,16.93,17.23.75,2.96.5,6.17.65,10.14-1,6.77-2.94,12.26-6.68,17-4.78,6.08-10.72,10.29-18.74,8.42-8.21-1.91-12.82-8.15-14.61-15.99-1.81-7.89-1.27-15.96,2.28-23.36Z"/>
  <path class="st0" d="M354.73,298.86c-21.17,10.8-42.98,10.74-66.74,2.84-8.59-2.79-16.58-6.59-24.08-11.79-10.99-7.61-17.93-6.93-29.44.56-22.38,14.57-46.75,20.13-73.18,14.82-5.15-1.03-10.13-2.86-15.78-4.49,5.46,15.92,12.37,21.44,27.31,22.36,22.09,1.36,41.53-6.95,59.43-18.32,12.24-7.78,22.66-7.75,34.48-.1,13.42,8.69,28.1,14.86,43.93,17.75,24.39,4.45,36.41-2.1,44.07-23.62Z"/>
  <path class="st0" d="M246.39,311.86c-8.82.82-14.72,5.9-17.43,14.11-3.01,9.11-.64,17.17,6.99,23.11,7.43,5.78,20.84,4.48,30.76-3.53,6.72-7.42,6.99-15.38,1.95-23.76-5.1-8.48-13.08-10.79-22.27-9.93ZM248.27,342.17c-7.37-1.71-10.82-6.22-10.64-12.7.14-5.24,3.61-8.97,8.75-10.17,6.92-1.61,12.33.78,14.64,7.81,2.49,7.56-1.78,12.74-12.75,15.05Z"/>
  <path class="st0" d="M292.11,211.22c-13.1,24.58-5.33,55.83,17.26,69.45,16.89,10.18,36.18,4.4,44.49-13.33,9.07-19.35,4.13-45.74-11.31-60.44-16.03-15.25-35.23-14.08-50.44,4.31ZM341.77,251.97c-2.84,10.68-8.25,18.17-19.23,17.87-10.66-.29-16.2-7.97-19.51-17.27-.91-2.55-1.43-5.32-1.63-8.03-1.17-15.78,5.45-26.49,16.84-27.54,11.96-1.1,22.55,9.9,23.73,24.81.24,3.07-.04,6.18-.2,10.15Z"/>
  <path class="st0" d="M279.61,411.07c.08,7.37-2.87,14.7-.87,23.6,10.34-7.8,18.89-15.84,29.78-20.3-2.23-10.08-11.38-16.63-10.62-26.45.81-10.45,9.42-15.89,17.13-20.93,7.46-4.88,15.7-9.47,25.16-8.34,14.66,1.75,15.94,17.46,24.68,25.62,8.72-7.87,13.66-17.18,17.64-27.31,1.76-4.49.45-12.57,6.6-12.67,7.14-.11,5.33,8.3,7.48,12.99.16.35,1.07.36,1.91.6,18.16-32.67,18.63-67.18,10.8-102.61-1.1-4.96-3.88-10.16-.4-14.98,4-5.52,8.6,2.15,13.69-.03-8.84-30.66-24.06-57.47-45.36-80.8-11.8-12.92-25.77-22.92-42.54-28.77-11.01-3.84-11.51-5.7-5.65-16.64-1.3-.93-2.53-2.25-4.04-2.83-21.28-8.09-42.92-10.55-64.96-3.39-5.36,1.74-10.54,3.38-17.79.97-24.65-8.98-48.27-5.78-73.34,4.68,9.38,9.58,4.82,13.82-3.16,16.63-23.45,8.27-40.94,24.24-55.37,43.71-15.21,20.53-26.55,43.1-33.83,68.68,5.52-1.18,9.14-6.64,13.65-2.59,4.02,3.61,1.91,8.34.83,12.68-4.55,18.3-5.85,36.92-4.56,55.64,1.24,17.93,6.05,34.9,16.13,51.1,2.56-6.05.6-13.17,8.9-16.06,7.21,14.06,9.67,30.99,23.71,41,16.88-29.22,17.79-31.17,45.02-19.72,8.23,3.46,15.76,9.23,19.81,17.61,6.03,12.47-6.72,20.69-8.68,32.33,10.89,4.54,19.38,12.55,29.05,19.12,0-8.11.04-15.35,0-22.59-.12-21.18,6.03-27.8,27.31-29.29,21.48-1.5,31.68,8.19,31.91,29.35ZM169.63,345.71c-53.22-43-60.88-122.53-17.02-176.66,42.93-52.99,121.86-61.26,176.37-17.94,55.16,45.66,62.31,124.32,16.83,179.47-42.93,52.07-122.06,58.86-176.19,15.13Z"/>
  <path d="M270.02,467.48c.74-1.56,1.37-3.19,1.86-4.84,5.41-18.33,19.24-28.93,34.72-38.1,5.44-3.22,9.3-2.42,13.18,2.81,7.45,10.01,15.51,19.56,26.69,25.77,16.33,9.06,29.93,2.24,32.05-16.37.46-4.03.61-8.77-1.04-12.25-10.12-21.25-6.61-39.93,9.33-56.74.23-.24.46-.49.7-.74,5.9,8.58,9.57,8.7,15.32-.55,10.75-17.31,17.52-36.14,18.2-56.65.64-19.42.84-38.89-4-58.86,5.17,1.91,6.64,8.26,11.91,5.17,1.22-.71,2.07-1.52,2.66-2.38,2.1-3.05.85-6.89,0-10.58-6.39-27.84-19.55-52.5-36.8-74.85-7.02-9.09-11.32-16.6-2.89-27.01,2.64-3.25,3.17-8.33,4.3-12.66,4.29-16.54,3.98-33.02,2.22-49.47-.91-8.56-2.21-17.11-3.47-25.66-1.41-9.6-3.65-19.06-7.63-27.97-5.35-11.96-14.79-15.34-26.26-9.44-8.64,4.45-16.51,9.96-23.73,16.6-14.7,13.5-25.75,29.68-35.99,46.47-1.65,2.71-3.29,5.43-4.91,8.16-2.37,3.99-4.35,7.26-9.87,7.75-21.51,1.91-42.87,9.92-64.56.64-2.39-1.02-5.53-.85-8.23-.48-5.26.73-7.75-1.34-10.26-6.1-1.78-3.37-3.62-6.69-5.52-9.97-11.67-20.12-25.81-38.5-44.37-54.08-2.92-1.96-5.2-3.55-7.59-4.93-20.84-12.02-30.63-8.07-37.22,15.02-4.12,14.42-6.45,29.14-7.81,43.99-.37,4.08-.68,8.16-.92,12.26-1.12,19.26.32,38.29,10.51,55.24,4.05,6.74,2.59,10.61-1.87,16.26-19.05,24.13-33.7,50.63-40.65,80.92-.95,4.14-1.81,8.19,1.58,11.7,4.18,4.33,7.18-2.25,11.76-1.26-1.09,9.34-2.26,18.54-3.22,27.75-3.13,29.88,2.68,57.89,18.18,83.68,6,9.99,10.19,10.11,15.9,1.12,4.18,7.24,7.62,14.94,13.67,20.73,4.41,4.22,4.82,8.41,2.7,13.95-4.21,10.98-8.34,22.17-7.67,34.18,1.05,19.01,15.53,26.88,31.96,17.49,10.71-6.12,18.86-15.23,26.04-24.98,4.43-6.01,8.71-6.85,14.85-3.2,16.51,9.81,29.91,21.86,35.52,41.36,2.81,9.77,8.73,19.95,19.84,20.35,11.29.41,16.42-9.99,20.83-19.24ZM247.71,381.72c-21.28,1.49-27.43,8.11-27.31,29.29.04,7.24,0,14.49,0,22.59-9.66-6.57-18.15-14.58-29.05-19.12,1.96-11.64,14.71-19.86,8.68-32.33-4.05-8.37-11.58-14.15-19.81-17.61-27.24-11.46-28.14-9.5-45.02,19.72-14.04-10.01-16.5-26.94-23.71-41-8.29,2.89-6.34,10.01-8.9,16.06-10.08-16.21-14.89-33.18-16.13-51.1-1.3-18.72,0-37.34,4.56-55.64,1.08-4.35,3.19-9.07-.83-12.68-4.51-4.05-8.13,1.42-13.65,2.59,7.28-25.58,18.62-48.15,33.83-68.68,14.43-19.47,31.91-35.45,55.37-43.71,7.98-2.81,12.55-7.05,3.16-16.63,25.07-10.46,48.69-13.66,73.34-4.68,7.25,2.42,12.42.78,17.79-.97,22.04-7.16,43.68-4.71,64.96,3.39,1.51.57,2.74,1.89,4.04,2.83-5.85,10.95-5.35,12.8,5.65,16.64,16.77,5.85,30.74,15.85,42.54,28.77,21.3,23.32,36.52,50.14,45.36,80.8-5.1,2.18-9.69-5.49-13.69.03-3.49,4.82-.7,10.01.4,14.98,7.83,35.42,7.36,69.94-10.8,102.61-.84-.25-1.75-.25-1.91-.6-2.15-4.68-.34-13.1-7.48-12.99-6.15.1-4.84,8.18-6.6,12.67-3.98,10.14-8.93,19.45-17.64,27.31-8.74-8.15-10.02-23.86-24.68-25.62-9.46-1.13-17.69,3.45-25.16,8.34-7.71,5.04-16.32,10.48-17.13,20.93-.76,9.82,8.4,16.37,10.62,26.45-10.89,4.46-19.44,12.5-29.78,20.3-2-8.9.95-16.22.87-23.6-.22-21.15-10.43-30.85-31.91-29.35Z"/>
  <path d="M345.81,330.58c45.48-55.15,38.33-133.81-16.83-179.47-54.51-43.32-133.44-35.05-176.37,17.94-43.86,54.13-36.19,133.67,17.02,176.66,54.13,43.73,133.26,36.94,176.19-15.13ZM168.35,167.91c16.95-6.16,33.53-3.89,49.5,3.04,9.55,4.15,13.78,13.28,16.88,22.66,2.6,7.88,4.64,15.95,7.19,23.85,1.27,3.93,2.81,8.54,7.92,8.31,4.35-.2,5.93-4.27,7.16-7.94,1.88-5.57,3.64-11.18,5.44-16.78,10.6-33,41.04-45.89,72.98-30.89,3.95,3.3,7.09,5.49,8.1,10.17-4.46-1.04-8.44-1.99-12.43-2.88-28.57-6.32-49.83,5.18-59.75,32.72-2.92,8.11-4.83,16.58-7.25,24.88-2.09,7.19-5.84,12.9-14.25,12.59-7.96-.29-12.3-5.16-14.4-12.67-2.88-10.31-4.96-20.85-9.64-30.63-11.07-23.14-32.18-33.09-57.39-27.02-3.53.85-6.94,3.48-11.33,1.4,1.38-6.2,5.89-8.87,11.26-10.82ZM353.87,267.34c-8.31,17.73-27.6,23.51-44.49,13.33-22.59-13.62-30.36-44.87-17.26-69.45,15.21-18.39,34.41-19.57,50.44-4.31,15.44,14.7,20.38,41.09,11.31,60.44ZM168.75,199.15c15.67-6.63,32.64-.48,40.29,14.75,3.95,7.86,5.67,16.23,5.06,25.05-2.52,18.98-9.31,33.58-25.18,42.37-14.13,7.83-29.35,4.88-39.11-7.19-18.18-22.48-7.77-63.68,18.94-74.98ZM266.71,345.54c-9.92,8-23.33,9.3-30.76,3.53-7.63-5.93-10-13.99-6.99-23.11,2.71-8.21,8.62-13.28,17.43-14.11,9.18-.86,17.16,1.45,22.27,9.93,5.04,8.38,4.77,16.34-1.95,23.76ZM310.65,322.48c-15.84-2.89-30.51-9.06-43.93-17.75-11.81-7.65-22.24-7.68-34.48.1-17.9,11.37-37.34,19.68-59.43,18.32-14.94-.92-21.85-6.44-27.31-22.36,5.65,1.63,10.63,3.46,15.78,4.49,26.43,5.31,50.79-.25,73.18-14.82,11.5-7.49,18.45-8.17,29.44-.56,7.5,5.2,15.5,9,24.08,11.79,23.77,7.9,45.57,7.96,66.74-2.84-7.66,21.52-19.68,28.08-44.07,23.62Z"/>
  <path d="M173.15,269.58c8.02,1.87,13.96-2.34,18.74-8.42,3.73-4.75,5.67-10.23,6.68-17-.15-3.98.1-7.19-.65-10.14-2.27-8.94-6.84-16.27-16.93-17.23-9.98-.94-16.18,5.12-20.17,13.44-3.56,7.4-4.09,15.46-2.28,23.36,1.8,7.85,6.41,14.08,14.61,15.99Z"/>
  <path d="M318.25,217c-11.39,1.05-18.01,11.76-16.84,27.54.2,2.71.72,5.48,1.63,8.03,3.32,9.3,8.85,16.97,19.51,17.27,10.97.3,16.39-7.19,19.23-17.87.16-3.97.44-7.08.2-10.15-1.18-14.91-11.77-25.91-23.73-24.81Z"/>
  <path d="M246.38,319.31c-5.15,1.2-8.61,4.92-8.75,10.17-.17,6.47,3.28,10.98,10.64,12.7,10.97-2.32,15.23-7.49,12.75-15.05-2.31-7.03-7.71-9.42-14.64-7.81Z"/>
</svg>