<?xml version="1.0" encoding="UTF-8"?>
<svg id="Calque_1" xmlns="http://www.w3.org/2000/svg" version="1.1" viewBox="0 0 500 500">
  <!-- Generator: Adobe Illustrator 30.3.0, SVG Export Plug-In . SVG Version: 2.1.3 Build 182)  -->
  <defs>
    <style>
      .st0 {
        fill: #fff;
      }
    </style>
  </defs>
  <path class="st0" d="M175.9,361.82c9.49-15.75,10.46-32.63,4.09-49.7-4.52-12.12-13.23-20.28-26.47-21.64-13.45-1.38-23.09,5.85-29.9,16.55-10.58,16.59-12.74,34.26-3.94,54.37,14.93,24.87,41.29,25.19,56.22.42ZM147.25,324.35c2.12-6.41,7.16-9.91,13.85-8.98,8.28,1.15,12.68,6.2,11.52,15.87-3.99,8.53-9.39,13.46-18.25,9.06-6.28-3.12-9.5-8.77-7.12-15.95Z"/>
  <path class="st0" d="M199.01,444.47c7.51,4.41,16.02,4.92,26.03,7.56,24.27.75,48.84,3.96,72.78-7.77-30.21-24.74-73.66-24.31-98.81.21Z"/>
  <path class="st0" d="M382.73,460.76v-.32c-.12.11-.25.22-.37.32h.37Z"/>
  <path class="st0" d="M337.72,223.08c9.94-12.16,8.05-24.02-6.91-32.2-5.83-.99-11.07.35-15.82,3.85-5.77,4.25-11.37,4.61-17.64.42-8.72-5.83-17.87-7.81-25.59,1.64-5.78,7.08-3.56,20.24,4.19,28.51,16.88,18.02,46.09,16.97,61.77-2.23Z"/>
  <path class="st0" d="M321.85,303.44c-13.17,18.51-10.43,50.92,5.65,66.78,15.81,15.59,37.44,12.8,48.53-6.45,5.54-9.61,7.8-20.07,6.18-33.15-2.22-13.02-7.09-24.57-17.97-32.88-14.05-10.72-32.45-8.27-42.39,5.71ZM337.83,315.38c9.05,1.92,13.73,6.7,12.46,15.27-1.06,7.18-6.24,11.21-13.15,11.56-6.78.35-11.31-4.12-12.67-10.44-2.09-9.75,3.09-14.85,13.36-16.39Z"/>
  <path class="st0" d="M303.57,400.93c-25.27,7.25-50.64,11.15-77.05,6.93-15.5-2.48-30.45-6.81-45.57-10.65-6.08-1.54-12.13-2.32-16.48,3.4-4.32,5.69-3.75,11.95-.96,18.19,3.07,6.86,8.89,11.11,14.36,15.86,5.39,4.68,9.63,4.92,15.74.56,36.25-25.87,72.87-25.13,109.45-.37,2.6,1.76,4.82,4.27,8.45,4,15.78-1.15,27.74-25.79,17.7-40.68-9.03-3.69-17.35.38-25.64,2.76Z"/>
  <path d="M438.38,302.67c2.18-13.21-.45-25.59-5.29-37.6-6.82-16.93-10.75-17.75-24-6-.43.38-1.49.05-3.49.05-1.13-45.48-19.69-85.04-43.53-122.71-10.42-16.47-23.44-30.58-38.88-42.29-9.8-7.43-13.91-5.76-18.6,5.35-2.03,4.81-3,10.53-8.74,13.96-7.55-16.07-14.54-31.44-24.67-44.97-12.57-16.77-25.9-32.85-45.89-41.41-3.25-1.39-6.93-3.06-10.18-.15-2.95,2.64-1.35,5.94-.48,8.99,5.67,19.81,1.01,37.52-12.33,52.55-17.66,19.91-40.98,34.52-53.4,59.06-13.61-9.43-13.5-9.37-20.81,4.5-3.36,6.38-7.18,12.53-10.94,18.69-16.7,27.33-27.87,56.82-34.2,88.14-1.88,9.29-2.8,18.77-4.25,28.84-2.68-.6-4.19-.83-5.63-1.28-14.33-4.4-16.45-2.64-15.16,11.71.61,6.77.64,13.63.35,20.43-1.57,36.22,6.54,70.26,24.48,101.57,22.75,39.71,54.35,68.01,102.67,69.34,43.28,1.2,86.64.65,129.94.03,20.93-.3,40.14-7.42,56.86-20.28,3.55-2.73,6.93-5.54,10.16-8.44.12-.11.25-.22.37-.32,33.25-29.91,50.24-68.71,55.52-114.75,3.12-15.06-2.16-29.09.13-43.01ZM311.51,438.85c-3.64.26-5.86-2.24-8.45-4-36.57-24.76-73.19-25.5-109.45.37-6.1,4.35-10.34,4.12-15.74-.56-5.47-4.74-11.29-8.99-14.36-15.86-2.79-6.24-3.36-12.51.96-18.19,4.35-5.72,10.4-4.94,16.48-3.4,15.12,3.84,30.07,8.17,45.57,10.65,26.41,4.22,51.78.32,77.05-6.93,8.29-2.38,16.61-6.45,25.64-2.76,10.04,14.9-1.92,39.54-17.7,40.68ZM297.83,444.25c-23.94,11.73-48.51,8.52-72.78,7.77-10.01-2.64-18.52-3.15-26.03-7.56,25.16-24.53,68.61-24.95,98.81-.21ZM123.62,307.03c6.82-10.69,16.46-17.92,29.9-16.55,13.24,1.36,21.95,9.52,26.47,21.64,6.37,17.06,5.4,33.95-4.09,49.7-14.93,24.76-41.29,24.45-56.22-.42-8.8-20.1-6.64-37.77,3.94-54.37ZM271.77,196.79c7.72-9.46,16.86-7.48,25.59-1.64,6.26,4.19,11.87,3.83,17.64-.42,4.75-3.5,9.99-4.85,15.82-3.85,14.96,8.18,16.85,20.03,6.91,32.2-15.68,19.2-44.88,20.25-61.77,2.23-7.75-8.27-9.97-21.44-4.19-28.51ZM364.25,297.73c10.89,8.31,15.75,19.86,17.97,32.88,1.62,13.08-.64,23.55-6.18,33.15-11.1,19.26-32.72,22.05-48.53,6.45-16.08-15.86-18.82-48.27-5.65-66.78,9.95-13.98,28.35-16.43,42.39-5.71Z"/>
  <path d="M139.88,116.75c7.2.22,6.13-9.25,9.84-13.66.51-.6.83-1.37,1.71-2.81,7.32-10.78,12.94-21.42,14.5-33.61,2.55-19.94-1.01-38.31-15.33-53.48-1.95-2.07-4.21-4.01-7.32-3.12-3.4.98-3.61,4.11-3.51,6.88.27,7.5-2.36,14.31-5.51,20.72-10.27,20.91-12.14,42.17-3.42,63.92,2.22,5.54.82,14.9,9.04,15.15Z"/>
  <path d="M422.04,217.95c1.13,3.28,1.56,7.24,6.15,8.48,6.6-1.84,8.37-7.96,10.46-13.38,6.75-17.55,3.76-34.62-3.53-52.32-2.39-9.47-5.15-17.82-5.12-26.81.02-4.41,1.79-10.79-5.08-11.64-5.7-.71-8.05,4.68-9.96,8.99-7.91,17.78-10.48,35.95-3.59,54.82,3.84,10.52,7.03,21.27,10.67,31.86Z"/>
  <path d="M154.37,340.3c8.85,4.4,14.26-.53,18.25-9.06,1.16-9.66-3.24-14.71-11.52-15.87-6.69-.93-11.73,2.57-13.85,8.98-2.38,7.18.84,12.83,7.12,15.95Z"/>
  <path d="M324.47,331.77c1.36,6.33,5.88,10.79,12.67,10.44,6.92-.35,12.09-4.38,13.15-11.56,1.27-8.57-3.41-13.35-12.46-15.27-10.26,1.55-15.45,6.65-13.36,16.39Z"/>
</svg>