<?xml version="1.0" encoding="UTF-8"?>
<svg id="Calque_1" xmlns="http://www.w3.org/2000/svg" version="1.1" viewBox="0 0 500 500">
  <!-- Generator: Adobe Illustrator 30.3.0, SVG Export Plug-In . SVG Version: 2.1.3 Build 182)  -->
  <defs>
    <style>
      .st0 {
        fill: #fff;
      }
    </style>
  </defs>
  <path class="st0" d="M166.55,215.72c-2.64-17.61-5.02-35.3-12.04-51.76-9.19,1.17-13.44,7.07-19.6,13.38-20.27,27.05-24.63,58.72-10.03,75.03,12.75-9.92,25.54-19.85,38.31-29.82,2.19-1.71,3.78-4.09,3.37-6.83Z"/>
  <path class="st0" d="M150.22,150.61c-.9-18.96-8.11-35.82-15.81-52.86-32.08,17.8-46.07,76.05-28.42,112.84q23.2-44.4,44.23-59.99Z"/>
  <path class="st0" d="M149.86,289.4c-8.24,11.22-13.52,23.72-14.97,37.66-2.76,26.57,8.2,40.07,35.14,40.16,16.04.05,31.45-4.66,42.5-20.97,2.87-20.02-.89-38.61-12.13-55.54-12.97-19.54-36.68-20.19-50.55-1.31ZM192.99,312.95c-.38,8.32-1.2,17.16-9.55,21.61-5.09,2.71-7.85-1.57-9.65-7.11-.84-7.82,1.02-14.03,4.3-19.85,1.8-3.19,4.34-5.89,8.37-4.83,5.04,1.32,6.73,5.7,6.53,10.18Z"/>
  <path class="st0" d="M123.55,90.98c3.27-2.64,6.05-5.76,3.79-10.14-4.55-8.82-8.78-18.07-18.85-22.15-11.23,13.92-18.3,52.13-13.23,73.03,6.54-15.59,14.87-29.93,28.3-40.74Z"/>
  <path class="st0" d="M244.33,349.06c-4.13,1.09-7.14,3.88-2.33,9.94,7.18,1.9,14.31,3.57,20.67-3.41-4.58-7.93-11.31-8.38-18.34-6.54Z"/>
  <path class="st0" d="M352.24,292.38c-11.44-17.2-27.23-20.56-46.88-8.57-8.36,7.8-12.94,18.06-15.65,28.58-9.99,38.81-1.55,47.97,34.53,54.9,28.88,5.55,47.24-15.04,40.97-43.42-2.49-11.3-6.59-21.9-12.97-31.5ZM322.77,334.66c-4.23,4.02-8.42.69-10.65-3.36-4.26-7.73-7.25-15.88-2.75-25.64,9.76-6.29,12.34,1.32,14.48,7.07,2.66,7.18,5.77,15.41-1.08,21.93Z"/>
  <path class="st0" d="M394.72,212.22c11.09-29.24,9.25-56.52-3.86-85.2-6.2-11.46-11.75-23.51-25.64-29.41-6.94,14.37-10.34,28.94-15.12,43.01-2.51,7.39-.59,11.67,6.38,16.11,16.09,10.26,27.11,24.99,32.62,43.53,1.14,3.84,1.45,8.17,5.62,11.97Z"/>
  <path class="st0" d="M345.9,164.31c-.84,1.34-2.19,2.64-2.55,4.19-2.9,12.37-5.29,24.87-8.49,37.16-2.72,10.42-.24,18.05,11.23,23.98,9.68,7.93,19.37,15.87,29.07,23.82,19.42-26.35,2.84-75.92-29.25-89.14Z"/>
  <path class="st0" d="M374.68,89.52c14.82,11.32,22.55,27.57,32.26,45.95,0-4.97,0-7.05,0-11.07.64-16.03-1.89-31.7-6.1-47.05-1.77-6.47-1.69-16.04-10.13-16.85-7.97-.77-10.64,8.23-14.19,14.02-2.71,4.43-8.61,9.83-1.85,15Z"/>
  <path d="M488.2,384.6c-3.71-1.37-7.61-2.25-11.46-3.23-18.8-4.81-37.57-9.72-56.43-14.29-7.88-1.91-11.72-5.08-10.96-14.45,2.06-25.25-3.66-49.16-16.47-71.06-3.41-5.82-2.69-10.1.3-15.78,37.87-72.05,41.45-146.55,13.93-222.57-9.96-27.52-32.26-31.3-51.84-9.44-16.24,18.12-29.78,38.16-39.98,60.5-12.65,27.74-25.26,55.41-31.35,85.51-1.47,7.25-5.14,10.12-13.04,9.07-9.14-1.22-18.5-1.2-27.76-1.05-27.92.46-22.42,5.25-31.03-23.49-14.54-48.52-33.66-94.94-68.78-132.71-18.97-20.39-40.52-15.95-49.96,10.19-27.46,76.05-23.87,150.55,12.99,222.93,2.53,4.97,4.62,9.18,1.36,14.71-12.9,21.93-18.54,45.71-16.52,71.06.8,10-3.69,14.34-12.77,16.5-20.59,4.88-41.15,9.98-61.54,15.64-5.19,1.44-14.71,1.05-12.48,10.01,1.88,7.58,9.63,4.06,14.9,3.21,21.76-3.51,43.45-7.41,65.18-11.08,4.04-.68,9.59-3.73,11.06,2.68,1.33,5.81-4.71,6.65-8.56,8.2-19.24,7.72-38.66,14.99-57.77,22.99-5.2,2.18-14.43,3.8-11.81,11.56,2.83,8.4,10.71,2.76,16.02,1.3,21.25-5.85,42.31-12.37,63.51-18.39,4.83-1.37,10.36-3.71,13.77,2.49.33,4.17-2.88,5.53-5.05,7.55-15.83,14.73-31.74,29.36-47.48,44.18-3.04,2.86-7.87,6.22-4.09,10.99,3.7,4.68,7.98.64,11.79-1.22,1.18-.58,2.23-1.42,4.14-2.72,14.85-10.49,29.38-19.81,42.83-30.49,11.13-8.83,19.51-9.18,32.38-1.06,37.61,23.71,78.79,38.29,124.09,32.32,32.2-4.24,62.47-15.62,89.41-34.29,8.06-5.58,14.58-5.98,22.65-.13,17.13,12.42,34.72,24.21,52.25,36.08,3.45,2.33,7.71,6.82,11.65,2.54,4.71-5.11-.84-8.94-4.08-12.02-15.03-14.29-30.37-28.25-45.51-42.43-2.73-2.56-7.43-4.74-5.14-9.55,2.24-4.7,6.67-2.89,10.56-2.15,15.64,2.99,30.72,7.95,45.86,12.75,9.24,2.92,18.59,5.55,27.94,8.12,3.19.88,6.49.35,7.86-3.07,1.4-3.51-1.01-5.93-3.77-7.53-3.8-2.2-7.71-4.33-11.78-5.96-18.82-7.56-37.74-14.88-56.57-22.42-3.15-1.26-7.47-2.45-6.59-6.97,1.09-5.58,5.67-4.3,9.62-3.65,6.52,1.07,13.06,2.04,19.57,3.19,17.37,3.09,34.73,6.23,52.08,9.43,4.18.77,8.65,1.03,10.17-3.52,1.93-5.8-3.2-7.48-7.31-9ZM108.49,58.69c10.08,4.08,14.31,13.34,18.85,22.15,2.26,4.38-.51,7.5-3.79,10.14-13.43,10.81-21.76,25.15-28.3,40.74-5.07-20.9,2.01-59.11,13.23-73.03ZM105.99,210.59c-17.65-36.79-3.66-95.05,28.42-112.84,7.7,17.03,14.91,33.89,15.81,52.86q-21.03,15.59-44.23,59.99ZM124.87,252.38c-14.6-16.31-10.24-47.98,10.03-75.03,6.17-6.31,10.41-12.21,19.6-13.38,7.03,16.46,9.4,34.16,12.04,51.76.41,2.74-1.18,5.12-3.37,6.83-12.76,9.97-25.55,19.9-38.31,29.82ZM212.54,346.25c-11.05,16.31-26.46,21.02-42.5,20.97-26.94-.09-37.9-13.59-35.14-40.16,1.45-13.94,6.73-26.44,14.97-37.66,13.86-18.88,37.58-18.23,50.55,1.31,11.24,16.93,15,35.52,12.13,55.54ZM242,359c-4.81-6.07-1.8-8.86,2.33-9.94,7.03-1.85,13.76-1.39,18.34,6.54-6.36,6.98-13.49,5.31-20.67,3.41ZM376.53,74.52c3.55-5.79,6.22-14.79,14.19-14.02,8.45.82,8.36,10.38,10.13,16.85,4.2,15.35,6.74,31.02,6.1,47.05,0,4.02,0,6.1,0,11.07-9.71-18.38-17.44-34.63-32.26-45.95-6.77-5.17-.87-10.57,1.85-15ZM324.24,367.3c-36.09-6.93-44.52-16.09-34.53-54.9,2.71-10.53,7.3-20.78,15.65-28.58,19.65-11.99,35.44-8.64,46.88,8.57,6.38,9.6,10.48,20.2,12.97,31.5,6.27,28.38-12.09,48.97-40.97,43.42ZM375.15,253.45c-9.7-7.95-19.39-15.88-29.07-23.82-11.47-5.94-13.95-13.56-11.23-23.98,3.21-12.29,5.59-24.79,8.49-37.16.36-1.54,1.71-2.85,2.55-4.19,32.09,13.22,48.67,62.78,29.25,89.14ZM389.09,200.26c-5.51-18.54-16.53-33.27-32.62-43.53-6.96-4.44-8.88-8.72-6.38-16.11,4.77-14.07,8.17-28.64,15.12-43.01,13.9,5.91,19.44,17.95,25.64,29.41,13.11,28.68,14.95,55.96,3.86,85.2-4.17-3.8-4.48-8.12-5.62-11.97Z"/>
  <path d="M309.38,305.66c-4.49,9.76-1.5,17.91,2.75,25.64,2.23,4.04,6.42,7.38,10.65,3.36,6.85-6.52,3.74-14.75,1.08-21.93-2.13-5.75-4.71-13.35-14.48-7.07Z"/>
  <path d="M186.46,302.77c-4.04-1.06-6.57,1.64-8.37,4.83-3.28,5.82-5.14,12.03-4.3,19.85,1.79,5.54,4.56,9.82,9.65,7.11,8.35-4.45,9.17-13.28,9.55-21.61.21-4.48-1.49-8.86-6.53-10.18Z"/>
</svg>