<?xml version="1.0" encoding="UTF-8"?>
<svg id="Calque_1" xmlns="http://www.w3.org/2000/svg" version="1.1" viewBox="0 0 500 500">
  <!-- Generator: Adobe Illustrator 30.3.0, SVG Export Plug-In . SVG Version: 2.1.3 Build 182)  -->
  <defs>
    <style>
      .st0 {
        fill: #fff;
      }
    </style>
  </defs>
  <path class="st0" d="M113.16,331.17c8.02,6.98,15.55,14.71,26.5,18.36,1.27-8.64,2.32-16.25,3.54-23.83.58-3.62-1.03-5.46-4.39-5.49-12.49-.11-24.75-2.31-37.75-4.87,3.07,6.45,7.24,10.57,12.09,15.84Z"/>
  <path class="st0" d="M238.34,322.68c-5.46,1.11-11.04,1.65-18.28,2.55-2.48.1-5.01.56-7.44.23-9.59-1.31-12.88,4-13.07,12.33-.22,9.93-.26,19.86-.07,29.79.08,4.05.78,8.3,5.55,9.79,10.67,3.34,21.46,6.17,32.67,7.07,4.95.4,7.65-1.45,7.63-6.75-.06-16.45-.04-32.91,0-49.36,0-4.86-2.03-6.66-7-5.65Z"/>
  <path class="st0" d="M273.21,282.1c4.47-.07,9.3-.43,10.37-5.83,1.03-5.2-3.26-7.63-6.98-9.93-9.89-6.12-20.96-4.78-33.57-4.87-7.67-.32-14.87,1.25-21.27,5.61-3.43,2.34-6.61,5.16-5.27,9.93,1.33,4.73,5.34,5.92,9.59,5.65,5.35-.34,9.34.94,12.99,5.39,4.11,5.01,17.59,4.71,21.98-.36,3.42-3.95,7.25-5.5,12.17-5.58Z"/>
  <path class="st0" d="M165.13,232.54c-10.67-10.53-18.42-12.06-31.92-6.3-9.63,4.11-26.54,25.98-24.05,33.26,3.81,11.15,9.2,21.97,22.1,25.8,12.69,3.77,24.83,2.97,34.91-6.21,4.19-3.81,9.73-9.04,8.74-14.68-1.85-10.46-1.06-22-9.78-31.88ZM145.36,273.6c-1.76,3.22-3.69,7.14-8.37,5.76-4.22-1.24-5.22-5.34-5.2-9.07.05-9.69,1.68-19.18,5.59-28.13,1.74-3.99,3.55-8.82,8.84-8.18,5.54.68,5.4,5.97,6.06,11.02-.76,10.45-2.19,19.97-6.92,28.6Z"/>
  <path class="st0" d="M159.66,322.05c-5.13-.7-8.01,1.18-9.22,6.55-1.65,7.35-2.38,14.65-1.35,23.66,10.72,13.51,27.17,14.6,43.15,21.88-2.23-17.63-.58-32.58,1.54-47.44-12.11-1.65-23.11-3.14-34.12-4.64Z"/>
  <path class="st0" d="M375.55,281.79c8.02-5.3,11.84-13.68,15.1-21.91,2.02-5.1-3.93-9.29-5.68-14.15-.73-2.03-1.92-3.9-3.62-6.99-11.72-14.29-25.99-19.26-38.06-13.24-17.99,8.97-23.59,38.71-10.03,53.28,9.45,10.16,29.47,11.49,42.29,3.01ZM347.86,241.67c.31-3.54,1.28-7.08,5.29-7.85,3.94-.76,6.44,1.99,7.96,5.19,4.02,8.49,6.52,17.41,6.56,27.73-.04,2.08-.06,3.32-.13,4.56-.21,3.63-1.29,7.13-5.1,8.04-4.02.96-6.21-2.28-7.81-5.33-5.31-10.12-7.77-20.89-6.77-32.34Z"/>
  <path class="st0" d="M356.66,326.29c1.09,7.48,2.5,14.92,3.78,22.43,5.36-.63,8.59-3.69,13.3-6.69,9.46-7.51,18.33-15.54,26.04-27.61-13.17,3.87-24.18,5.2-35.34,5.52-4.12.12-8.67.24-7.78,6.35Z"/>
  <path class="st0" d="M253.95,344.57c-.6,13.19-.17,26.42-.17,39.65,12.25,1.66,22.19-2.71,33.96-4.73,10.01-1.19,13.3-7.63,13.22-16.79-.06-6.51.21-13.04-.06-19.54-.67-15.94-1.89-17.05-17.82-17.71-2.48-.1-4.96-.51-7.43-.4-7,.29-15.24-6.2-20.29-1.16-4.68,4.67-1.07,13.63-1.4,20.68Z"/>
  <path class="st0" d="M307.81,372.3c9.35-.94,16.14-4.93,24.72-7.88,6.04-3.9,14.89-4.05,17.63-12.32,2.97-8.98.08-17.77-1.84-26.52-.52-2.37-2.27-3.8-4.78-3.49-12.13,1.47-24.25,3.03-36.84,4.62,1.56,15.75,3.43,30.31,1.12,45.59Z"/>
  <path d="M488.8,307.55c-6.34-1.5-12.79-2.6-19.24-3.6-22.4-3.47-18.51,1.7-22.52-21.07-1.05-5.94.4-8.68,6.01-10.18,11.12-2.97,22.18-6.15,33.2-9.47,3.28-.98,7.1-2.58,5.83-6.99-1.32-4.58-5.59-3.46-8.7-2.58-9.58,2.71-19,5.96-28.54,8.83-11.34,3.41-12.28,2.65-15.45-8.71-1.11-3.96.27-6.59,2.53-9.31,4.89-5.87,7.59-12.81,9.72-20.02,7.86-26.59,7.09-53.49,2.59-80.45-2.71-16.21-9.01-31.07-18.53-44.45-10.59-14.88-16.6-15.26-29.57-2.32-12.78,12.75-25.71,25.38-38.35,38.23-10.13,10.3-17.77,12.32-32.23,6.03-32.69-14.22-67.44-21.32-103.73-17.21-27.13,3.07-53.36,9.12-77.81,21.47-5.12,2.59-8.03,2.04-12.18-1.57-16.02-13.91-30.59-29.27-45.46-44.34-16.41-16.64-21.77-16.08-34.82,3.56-13.95,20.99-18.14,44.54-19.26,69.19-1.2,26.35,1.11,51.62,17.13,73.84,4.25,5.9-.23,10.8-2.25,15.58-1.99,4.7-6.42,2.16-9.87,1.15-8.06-2.36-16.01-5.12-24.14-7.2-5.24-1.34-13.32-6.6-15.27.76-1.92,7.24,7.86,6.99,13.03,8.64,10.87,3.45,22.36,5.06,32.81,10.69-1.09,6.36-2.63,12.13-2.91,17.96-.3,6.03-3.08,7.84-8.64,8.49-9.86,1.16-19.66,2.98-29.43,4.79-4.07.75-8.6,2.3-7.2,7.67,1.24,4.74,5.64,4.04,9.4,3.24,9.44-2,18.84-4.14,28.28-6.12,2.61-.55,5.59-2.06,7.52,1.3,5.22,9.07,10.39,18.18,15.94,27.92-10.41,6.61-20.43,12.81-30.24,19.31-2.94,1.95-7.45,4.37-4.45,8.74,3.3,4.81,7.28,1.2,10.49-.97,5.93-4,11.52-8.51,17.47-12.49,16.24-10.84,11.74-10.09,24.55.93,2.36,2.03,4.78,4.02,7.4,5.69,69.5,44.5,143.87,61.79,225.25,40.52,33.75-8.82,65.55-21.93,93.71-42.73,17.23-12.73,16.9-13.17,34.96-.11,5.06,3.71,9.49,7.15,14.12,10.28,2.53,1.71,5.52,1.92,7.57-.75,2.24-2.91.33-5.31-1.9-7.2-2.13-1.81-4.39-3.5-6.76-4.99-8.59-5.42-17.24-10.73-26.17-16.27,5.05-8.96,11.36-15.73,14.36-24.28,1.88-5.34,4.91-6.19,10.03-4.9,9.64,2.44,19.42,4.37,29.16,6.41,3.6.76,7.3.52,8.3-3.74.99-4.24-2.29-6.37-5.74-7.18ZM192.24,374.13c-15.98-7.28-32.43-8.36-43.15-21.88-1.02-9.01-.3-16.31,1.35-23.66,1.21-5.37,4.09-7.25,9.22-6.55,11.01,1.5,22.01,3,34.12,4.64-2.12,14.86-3.77,29.81-1.54,47.44ZM166.16,279.09c-10.08,9.18-22.23,9.98-34.91,6.21-12.9-3.84-18.28-14.65-22.1-25.8-2.49-7.28,14.42-29.16,24.05-33.26,13.5-5.76,21.25-4.23,31.92,6.3,8.72,9.88,7.93,21.42,9.78,31.88,1,5.64-4.55,10.87-8.74,14.68ZM138.82,320.19c3.36.03,4.97,1.88,4.39,5.49-1.22,7.59-2.27,15.2-3.54,23.83-10.95-3.64-18.48-11.37-26.5-18.36-4.85-5.27-9.02-9.39-12.09-15.84,13,2.55,25.26,4.76,37.75,4.87ZM245.34,377.69c.02,5.31-2.68,7.15-7.63,6.75-11.21-.9-22-3.73-32.67-7.07-4.77-1.49-5.47-5.73-5.55-9.79-.19-9.93-.15-19.86.07-29.79.19-8.33,3.48-13.64,13.07-12.33,2.42.33,4.95-.13,7.44-.23,7.24-.91,12.82-1.44,18.28-2.55,4.97-1.01,7.01.79,7,5.65-.03,16.45-.06,32.91,0,49.36ZM239.06,288.04c-3.65-4.45-7.64-5.74-12.99-5.39-4.25.27-8.26-.91-9.59-5.65-1.34-4.78,1.84-7.6,5.27-9.93,6.4-4.36,13.6-5.93,21.27-5.61,12.6.09,23.67-1.25,33.57,4.87,3.72,2.3,8,4.73,6.98,9.93-1.07,5.41-5.89,5.76-10.37,5.83-4.92.08-8.75,1.63-12.17,5.58-4.38,5.06-17.87,5.37-21.98.36ZM255.35,323.9c5.05-5.05,13.29,1.45,20.29,1.16,2.47-.1,4.95.3,7.43.4,15.94.66,17.16,1.77,17.82,17.71.27,6.5,0,13.03.06,19.54.08,9.16-3.21,15.6-13.22,16.79-11.77,2.02-21.71,6.39-33.96,4.73,0-13.23-.43-26.46.17-39.65.32-7.05-3.28-16,1.4-20.68ZM343.53,322.09c2.51-.3,4.26,1.12,4.78,3.49,1.93,8.74,4.81,17.54,1.84,26.52-2.74,8.27-11.59,8.42-17.63,12.32-8.58,2.95-15.37,6.94-24.72,7.88,2.31-15.28.43-29.85-1.12-45.59,12.59-1.59,24.71-3.15,36.84-4.62ZM343.29,225.5c12.07-6.02,26.34-1.06,38.06,13.24,1.7,3.09,2.89,4.96,3.62,6.99,1.75,4.87,7.7,9.06,5.68,14.15-3.26,8.23-7.09,16.61-15.1,21.91-12.82,8.48-32.83,7.16-42.29-3.01-13.56-14.57-7.96-44.31,10.03-53.28ZM373.74,342.02c-4.72,3-7.94,6.06-13.3,6.69-1.28-7.51-2.69-14.94-3.78-22.43-.89-6.12,3.66-6.23,7.78-6.35,11.16-.32,22.17-1.66,35.34-5.52-7.71,12.07-16.58,20.1-26.04,27.61Z"/>
  <path d="M362.44,279.34c3.81-.91,4.89-4.4,5.1-8.04.07-1.24.1-2.48.13-4.56-.05-10.33-2.54-19.24-6.56-27.73-1.52-3.21-4.02-5.95-7.96-5.19-4.01.77-4.98,4.32-5.29,7.85-1.01,11.45,1.46,22.22,6.77,32.34,1.6,3.06,3.79,6.29,7.81,5.33Z"/>
  <path d="M146.23,233.98c-5.3-.65-7.1,4.19-8.84,8.18-3.91,8.96-5.54,18.44-5.59,28.13-.02,3.74.97,7.83,5.2,9.07,4.68,1.38,6.6-2.55,8.37-5.76,4.73-8.63,6.16-18.15,6.92-28.6-.66-5.06-.52-10.35-6.06-11.02Z"/>
</svg>