<?xml version="1.0" encoding="UTF-8"?>
<svg id="Calque_1" xmlns="http://www.w3.org/2000/svg" version="1.1" viewBox="0 0 500 500">
  <!-- Generator: Adobe Illustrator 30.3.0, SVG Export Plug-In . SVG Version: 2.1.3 Build 182)  -->
  <defs>
    <style>
      .st0 {
        fill: #fff;
      }
    </style>
  </defs>
  <path class="st0" d="M189.51,214.66c16.18-8.51,21.76-18.94,18.26-34.15-2.68-11.64-14.27-20.5-26.61-20.33-15.57.22-28.44,12.9-28.17,27.77.31,17.78,13.83,28.43,36.52,26.71ZM170.71,168.85c4.09-4.09,9.11-4.96,13.9-1.33,6.76,5.12,8.68,11.41,2.44,19.52-7.47,6.08-13.71,4.85-18.25-1.84-3.73-5.49-2.88-11.55,1.92-16.35Z"/>
  <path class="st0" d="M345.43,201.7c11.75-13.5,9.15-30.23-8.24-43.05-10.08-5.29-19.87-5.05-29,1.99-13.08,10.09-14.84,29.2-3.98,41.05,11.03,12.03,30.74,12.03,41.21,0ZM329.91,161.47c8.32-.48,11.42,6.27,11.22,14.09-.13,4.84-2.98,8.14-7.25,9.65-6.3,2.23-11.82.93-16.03-6.1-2.81-11.42,2.89-17.11,12.06-17.64Z"/>
  <path class="st0" d="M337.36,277.41c-54.2-26.2-109.56-24.03-162.22,4.67-33.4,18.2-53.84,48.04-52.75,87.07,1.11,39.66,20.4,70.42,56.35,89.14,37,19.27,76.35,22.53,116.5,13.89,34.18-7.35,63.58-23.38,84.34-55.28,29.87-53.82,13.06-112.77-42.22-139.49ZM215.06,360.84c-4.01,5.05-9.86,4.28-15.39,2.5-1.6-.52-3.34-1.29-4.47-2.47-9.53-9.9-17.9-11.74-26.07,1.96-2.79,4.68-8.68,5.27-13.87,2.3-4.39-2.51-6.94-6.09-6.46-11.55,1.83-20.91,29.61-36.15,48.43-25.49,7.71,5.14,13.08,11.15,17.24,18.3,2.77,4.76,4.17,9.93.58,14.44ZM292.64,316.58c-4.62,5.41-10.82,4.3-16.59,1.43-2.28-1.14-4.47-2.62-6.39-4.31-7.41-6.49-14.14-8.01-19.93,1.97-2.74,4.72-7.41,5.73-12.32,5.31-8.63-.75-12.49-5.26-9.79-13.98,4.24-13.73,21.19-26.3,37.01-26.68,11.9,4.18,20.48,11.19,26.85,20.7,3.18,4.75,5.44,10.56,1.16,15.57ZM366.63,338.64c-4.67,4.61-9.55,1.34-14.04-1-2.98-1.56-5.75-3.51-8.42-5.17-1.18.43-2.15.51-2.7,1.03-5.64,5.33-12.12,12.61-19.25,4.42-6.43-7.4,1.91-13.22,6.52-18.17,10.15-10.88,15.98-10.97,30.95-1.29,2.56,2.42,4.78,4.01,5.97,6.16,2.44,4.42,5.69,9.37.97,14.03Z"/>
  <path d="M396.31,218.43c-4.73-33.87-18.54-62.4-48.89-81.6,24.13-42.76,13.77-83.6-5.07-127-27.28,19.67-43.18,43.1-46.63,75.56-.64,9.93-1.23,18.84-1.81,27.7-1.83.63-3.06,1.49-4.18,1.37-26.59-2.85-53.16-3.43-79.74.08-6.41.84-8.23-2.95-8.16-8.6.13-10.03-2.45-19.7-5.46-29.06-8.67-27.06-25.52-47.95-48.18-63.53-5.21,1.88-6.34,5.24-7.5,8.45-12.89,35.48-14.04,70.72,3.59,104.99,3.98,7.74,4.13,12.86-2.2,19.21-12.08,12.14-20.07,27.37-24.37,43.54-6.46,24.25-20.63,42.64-37.2,60.59-20.69,22.41-30.27,49.81-27.81,80.56,2.42,30.17,6.93,33.28,36.08,26.5,1.06,8.95,1.84,17.91,3.21,26.77,6.51,42.31,27.31,73.99,68.74,89.09,55.4,20.19,111.54,23.15,168.33,5.47,57.89-18.02,83.06-49.72,87.27-110.39.25-3.66-.9-7.98,3.61-10.15,18.76,4.8,26.09-1.15,27.46-21.37,2.45-36.2-10.07-66.53-34.91-92.4-7.11-7.41-14.63-14.81-16.16-25.79ZM308.2,160.65c9.13-7.04,18.92-7.28,29-1.99,17.39,12.82,19.99,29.55,8.24,43.05-10.47,12.03-30.18,12.03-41.21,0-10.86-11.85-9.1-30.96,3.98-41.05ZM181.16,160.19c12.34-.17,23.93,8.68,26.61,20.33,3.5,15.21-2.08,25.63-18.26,34.15-22.7,1.73-36.21-8.93-36.52-26.71-.26-14.86,12.61-27.55,28.17-27.77ZM379.58,416.9c-20.76,31.89-50.16,47.92-84.34,55.28-40.15,8.64-79.5,5.38-116.5-13.89-35.95-18.72-55.24-49.48-56.35-89.14-1.09-39.03,19.35-68.87,52.75-87.07,52.65-28.69,108.02-30.87,162.22-4.67,55.28,26.72,72.09,85.67,42.22,139.49Z"/>
  <path d="M197.24,328.1c-18.82-10.66-46.6,4.57-48.43,25.49-.48,5.46,2.07,9.04,6.46,11.55,5.19,2.97,11.08,2.38,13.87-2.3,8.17-13.71,16.54-11.86,26.07-1.96,1.13,1.18,2.87,1.95,4.47,2.47,5.53,1.78,11.38,2.55,15.39-2.5,3.59-4.51,2.2-9.68-.58-14.44-4.17-7.15-9.53-13.16-17.24-18.3Z"/>
  <path d="M264.63,280.31c-15.82.38-32.77,12.95-37.01,26.68-2.69,8.72,1.16,13.23,9.79,13.98,4.91.43,9.58-.58,12.32-5.31,5.78-9.97,12.52-8.45,19.93-1.97,1.92,1.68,4.11,3.17,6.39,4.31,5.77,2.87,11.97,3.98,16.59-1.43,4.28-5.01,2.02-10.82-1.16-15.57-6.37-9.52-14.95-16.52-26.85-20.7Z"/>
  <path d="M359.7,318.45c-14.97-9.68-20.81-9.59-30.95,1.29-4.61,4.95-12.95,10.77-6.52,18.17,7.12,8.2,13.6.91,19.25-4.42.55-.52,1.53-.6,2.7-1.03,2.67,1.66,5.44,3.61,8.42,5.17,4.5,2.34,9.37,5.61,14.04,1,4.72-4.65,1.47-9.61-.97-14.03-1.19-2.15-3.41-3.74-5.97-6.16Z"/>
  <path d="M333.88,185.21c4.28-1.52,7.13-4.82,7.25-9.65.2-7.81-2.9-14.57-11.22-14.09-9.18.53-14.88,6.22-12.06,17.64,4.2,7.04,9.73,8.34,16.03,6.1Z"/>
  <path d="M187.04,187.04c6.25-8.11,4.32-14.4-2.44-19.52-4.78-3.63-9.81-2.76-13.9,1.33-4.8,4.8-5.65,10.86-1.92,16.35,4.54,6.69,10.78,7.92,18.25,1.84Z"/>
</svg>