<?xml version="1.0" encoding="UTF-8"?>
<svg id="Calque_1" xmlns="http://www.w3.org/2000/svg" version="1.1" viewBox="0 0 500 500">
  <!-- Generator: Adobe Illustrator 30.3.0, SVG Export Plug-In . SVG Version: 2.1.3 Build 182)  -->
  <defs>
    <style>
      .st0 {
        fill: #fff;
      }
    </style>
  </defs>
  <path class="st0" d="M327.4,68.56c-34.63-27.26-73.31-35.32-115.94-21.57-44.36,14.3-64.92,47.15-72.84,90.85-7.02,38.77-8.72,77.66-4.44,116.73,5.45,49.76,16.71,97.74,47.17,139.06,37.59,50.99,99.54,50.99,137.48.44,29.1-38.78,39.48-84.02,46.48-132.79,1.36-14.82,3.92-29.64,3.83-44.45-.18-30.22-2.59-60.46-9.67-89.88-5.31-22.06-13.48-43.74-32.08-58.38ZM298.76,111.02c.93-6.18,3.86-11.79,10.74-13.17,6.98-1.4,9.59,4.1,12.73,8.91,5.73,8.8,10.58,18.03,14.59,27.71,5.73,13.84,4.29,22.01-4.8,27.8-8.9,5.67-20,3.54-29.61-6.44-5.81-15.19-5.89-29.97-3.65-44.81ZM161.49,140.85c1.91-6.11,4.93-11.88,7.85-18.61,3.88-6.71,6.91-12.92,10.91-18.43,6.67-9.18,16.48-8.11,20.02,2.71,5.15,15.73,3.61,32.02-1.22,47.49-3.08,9.86-17.44,14-27.95,9.82-9.05-3.6-12.95-12.25-9.61-22.97ZM194.99,330.01c-.58,3.78-1.5,7.19-5.78,8.17-4.37,1-6.99-1.97-8.71-5.06-3.31-5.93-5.99-12.2-9.23-19.23-6.44-16.67-10.31-33.07-13.16-49.68-2.48-14.43,3.43-24.4,14.62-26.18,11.67-1.86,22.35,6.14,23.69,20.01,2.3,23.97,2.27,48.04-1.43,71.97ZM194.75,228.02c-7.15,3.03-14.54,4.4-23.23,2.18-6.67-1.69-12.66-2.79-13.77-9.58,2.21-3.43,4.72-3.26,6.96-2.38,8.92,3.49,17.84,4.07,27,1,2.65-.89,5.93-1.67,7.39,1.59,1.78,3.95-1.32,5.89-4.36,7.18ZM199.84,207.97c-2.94,1.27-6.08,2.07-10.12,3.38-12.08,2.3-22.72.5-32.68-4.43-5.89-2.92-11.05-7.39-11.11-14.66-.06-7.26,4.87-11.79,10.86-14.78,14.67-7.34,29.69-6.81,44.28-.08,6.26,2.89,11.96,7.81,11.37,15.67-.56,7.51-5.97,12.04-12.61,14.9ZM264.59,399.86c-9.48,2.4-19.06,2.28-29.54-.29-4.34-1.92-7.44-3.68-6.47-8.19,2.82-3.22,6.1-1.93,9.02-.95,8.3,2.79,16.47,2.89,24.84.25,3.23-1.02,7.75-3.27,9.31,1.63,1.75,5.5-3.4,6.59-7.16,7.54ZM279.74,377.24c-18.67,7.12-37.57,6.55-57.42.68-5.87-2.44-11.15-5.01-9.92-11.34,1.38-7.09,7.97-5.42,12.89-5.48,17.2-.21,34.4-.16,51.6-.1,4.76.01,10.49-.56,11.35,5.96.75,5.75-3.94,8.55-8.49,10.28ZM341.86,266.23c-1.05,8.74-3.61,17.29-5.79,26.87-3.35,13.09-7.87,24.71-13.34,35.94-2.29,4.71-5.13,10.07-11.48,8.77-5.78-1.18-5.95-6.77-6.53-11.65-2.24-18.81-2.93-37.69-2.4-56.61.07-2.41.08-4.85.43-7.22,2.41-16.56,11.92-25.95,24.45-24.26,12.1,1.63,16.85,10.09,14.67,28.17ZM334.65,228.52c-14.87,5.6-27.24,3.02-34.62-8.11,10.44-3.23,20.78,4.03,31.22-.95,4.51-1.1,9.3-4.49,10.89,1.4,1.39,5.12-3.91,6.31-7.49,7.66ZM351.97,199.67c-15.05,14.61-40.08,16.74-56,5.56-10.5-7.38-10.49-18.19.02-25.59,13.07-9.19,35.85-9.79,49.24-1.12,7.5,4.86,11.5,11.17,6.74,21.14Z"/>
  <path d="M414.51,182.3c-3.43-34.27-12.65-67.43-29.72-97.61-24.64-43.59-63.39-66.65-112.45-72.12-47-5.24-90.91,3.25-127.26,35.81-33.47,29.98-48.47,70.17-55.61,112.83-10.74,64.16-9.86,129.18-9.63,194.03.05,14.5,5.91,25.58,17.5,35.2,29.92,24.85,64.06,43.33,96.39,66.06,15.94,11.12,31.96,20.42,48.06,29.63,5.81,3.32,10.47,3.88,16.65.17,19.36-11.6,38.71-23.16,57.31-35.98,30.49-21.01,63.23-38.75,91.13-63.52,7.55-6.7,12.73-13.99,12.92-24.71,1.08-60.03.68-120.04-5.3-179.8ZM365.31,261.27c-7,48.77-17.38,94.01-46.48,132.79-37.94,50.56-99.89,50.56-137.48-.44-30.46-41.32-41.72-89.3-47.17-139.06-4.28-39.07-2.58-77.95,4.44-116.73,7.91-43.7,28.48-76.54,72.84-90.85,42.62-13.75,81.31-5.69,115.94,21.57,18.59,14.64,26.77,36.32,32.08,58.38,7.08,29.42,9.49,59.66,9.67,89.88.09,14.81-2.47,29.63-3.83,44.45Z"/>
  <path d="M327.19,238.05c-12.53-1.69-22.03,7.71-24.45,24.26-.35,2.38-.36,4.81-.43,7.22-.53,18.93.16,37.8,2.4,56.61.58,4.88.74,10.47,6.53,11.65,6.35,1.3,9.19-4.07,11.48-8.77,5.46-11.23,9.99-22.84,13.34-35.94,2.18-9.58,4.74-18.13,5.79-26.87,2.18-18.09-2.58-26.54-14.67-28.17Z"/>
  <path d="M172.73,238.04c-11.19,1.78-17.1,11.75-14.62,26.18,2.85,16.61,6.72,33.02,13.16,49.68,3.24,7.02,5.92,13.3,9.23,19.23,1.72,3.09,4.34,6.05,8.71,5.06,4.28-.98,5.2-4.39,5.78-8.17,3.7-23.93,3.73-48,1.43-71.97-1.33-13.88-12.02-21.87-23.69-20.01Z"/>
  <path d="M171.1,163.83c10.52,4.18,24.87.05,27.95-9.82,4.84-15.47,6.37-31.76,1.22-47.49-3.54-10.82-13.35-11.89-20.02-2.71-4,5.51-7.04,11.72-10.91,18.43-2.92,6.73-5.94,12.5-7.85,18.61-3.35,10.72.55,19.37,9.61,22.97Z"/>
  <path d="M332.01,162.27c9.08-5.79,10.53-13.96,4.8-27.8-4.01-9.68-8.86-18.91-14.59-27.71-3.14-4.82-5.75-10.31-12.73-8.91-6.88,1.38-9.8,6.99-10.74,13.17-2.25,14.84-2.17,29.63,3.65,44.81,9.6,9.98,20.71,12.11,29.61,6.44Z"/>
  <path d="M201.07,177.4c-14.59-6.73-29.61-7.27-44.28.08-5.98,2.99-10.92,7.52-10.86,14.78.06,7.27,5.22,11.74,11.11,14.66,9.95,4.93,20.59,6.73,32.68,4.43,4.04-1.3,7.18-2.11,10.12-3.38,6.63-2.86,12.05-7.38,12.61-14.9.58-7.86-5.11-12.78-11.37-15.67Z"/>
  <path d="M345.23,178.53c-13.39-8.67-36.18-8.08-49.24,1.12-10.52,7.4-10.53,18.21-.02,25.59,15.92,11.18,40.95,9.05,56-5.56,4.76-9.97.77-16.28-6.74-21.14Z"/>
  <path d="M276.88,361c-17.2-.05-34.4-.1-51.6.1-4.92.06-11.51-1.62-12.89,5.48-1.23,6.33,4.05,8.9,9.92,11.34,19.85,5.87,38.75,6.44,57.42-.68,4.55-1.73,9.24-4.53,8.49-10.28-.85-6.52-6.59-5.94-11.35-5.96Z"/>
  <path d="M191.72,219.25c-9.16,3.07-18.08,2.49-27-1-2.25-.88-4.75-1.05-6.96,2.38,1.11,6.79,7.09,7.89,13.77,9.58,8.69,2.22,16.08.85,23.23-2.18,3.04-1.29,6.14-3.23,4.36-7.18-1.47-3.26-4.74-2.48-7.39-1.59Z"/>
  <path d="M331.25,219.46c-10.44,4.99-20.78-2.27-31.22.95,7.38,11.13,19.75,13.71,34.62,8.11,3.58-1.35,8.88-2.54,7.49-7.66-1.6-5.89-6.38-2.5-10.89-1.4Z"/>
  <path d="M262.44,390.69c-8.36,2.64-16.54,2.54-24.84-.25-2.92-.98-6.2-2.27-9.02.95-.97,4.51,2.13,6.27,6.47,8.19,10.47,2.56,20.05,2.69,29.54.29,3.76-.95,8.91-2.04,7.16-7.54-1.56-4.9-6.08-2.65-9.31-1.63Z"/>
</svg>