<?xml version="1.0" encoding="utf-8"?>
<!-- Generator: Adobe Illustrator 30.3.0, SVG Export Plug-In . SVG Version: 9.03 Build 0)  -->
<svg version="1.0" id="Calque_1" xmlns="http://www.w3.org/2000/svg" xmlns:xlink="http://www.w3.org/1999/xlink" x="0px" y="0px"
	 viewBox="0 0 1024 1024" style="enable-background:new 0 0 1024 1024;" xml:space="preserve">
<g transform="translate(0.000000,1024.000000) scale(0.100000,-0.100000)">
	<path d="M2424.41,9975.75c-6.11-8.56-14.67-64.8-15.89-123.49c-3.67-75.8-9.78-110.04-22.01-118.6
		c-9.78-4.89-70.91-22.01-134.49-36.68c-184.62-42.79-352.12-101.48-502.51-177.29c-391.25-196.85-644.34-438.93-836.3-800.84
		c-83.14-158.95-123.49-262.87-160.17-421.82c-56.24-239.64-55.02-243.31,41.57-172.39c145.5,106.37,302,156.5,484.17,155.28
		c162.61,0,310.55-45.24,430.38-130.82l56.24-40.35l84.36,78.25c133.27,123.49,338.68,216.41,602.77,273.87
		c59.91,13.45,110.04,23.23,111.26,22.01s19.56-154.05,41.57-338.68c20.79-184.62,56.24-487.84,79.47-672.46
		s56.24-462.16,73.36-617.44c17.12-154.05,39.12-350.9,50.13-436.49c17.12-141.83,17.12-157.72-1.22-185.84
		c-17.12-24.45-18.34-48.91-11-145.5l8.56-116.15l-44.02-13.45c-146.72-48.91-256.76-221.3-292.21-452.38l-13.45-91.7l-34.23,39.12
		c-31.79,35.46-47.68,74.58-66.02,165.06c-9.78,50.13-47.68,81.92-97.81,81.92c-133.27,0-107.59-242.09,41.57-391.25
		c37.9-37.9,80.7-77.03,96.59-86.81l28.12-17.12l-18.34-144.27c-25.68-188.29-24.45-249.42,4.89-452.38
		c30.57-206.63,68.47-331.34,150.39-491.51c52.57-103.93,80.7-140.61,179.73-238.42c92.92-92.92,138.16-127.16,226.19-173.62
		c61.13-30.57,149.16-68.47,196.85-81.92l86.81-25.68l-17.12-118.6c-47.68-343.57-100.26-897.43-144.27-1513.65
		c-11-147.94-26.9-364.35-37.9-479.28c-23.23-282.43-18.34-294.66,154.05-375.36c94.14-42.79,282.43-110.04,434.04-152.83
		c83.14-24.45,89.25-28.12,146.72-107.59c90.48-123.49,205.41-239.64,298.33-303.22l84.36-57.46l-55.02-50.13
		c-70.91-64.8-85.59-102.7-56.24-133.27c48.91-47.68,130.82-52.57,994.02-52.57c748.27,0,831.41,2.45,893.76,20.79
		c37.9,12.23,81.92,33.01,100.26,46.46l31.79,24.45l44.02-29.34c84.36-57.46,114.93-59.91,874.2-64.8
		c870.53-6.11,1095.5,7.34,1117.51,66.02c12.23,30.57-28.12,96.59-79.47,133.27c-25.68,17.12-47.68,35.46-47.68,40.35
		c1.22,3.67,26.9,23.23,57.46,44.02c107.59,67.25,275.1,242.09,352.12,365.57c7.34,11,80.7,39.12,171.17,66.02
		c178.51,52.57,369.24,125.93,435.27,168.73c69.69,42.79,108.82,97.81,108.82,149.16c0,24.45-17.12,234.75-36.68,467.05
		s-36.68,436.49-36.68,454.83c0,25.68,12.23,39.12,64.8,68.47c177.29,101.48,273.88,268.98,303.22,524.52
		c14.67,130.82,12.23,124.71,69.69,199.29c22.01,29.34,42.79,67.25,47.68,84.36c15.89,64.8-41.57,545.3-95.37,802.06
		c-62.36,292.21-190.73,646.79-350.9,972.01c-99.04,201.74-196.85,355.79-503.73,803.28l-77.03,111.26l40.35,211.52
		c20.79,116.15,41.57,251.87,45.24,300.77l7.34,88.03l-35.46,13.45c-19.56,8.56-99.04,22.01-176.06,31.79
		c-139.38,18.34-171.17,31.79-171.17,74.58c0,20.79,36.68,20.79,250.64-1.22c270.21-26.9,390.03-33.01,409.59-20.79
		c47.68,31.79-42.79,55.02-409.59,105.15c-127.16,18.34-243.31,36.68-257.98,42.79c-30.57,12.23-63.58,108.82-41.57,122.27
		c7.34,4.89,130.82,20.79,272.65,35.46c327.67,34.23,534.3,62.36,562.42,77.03c47.68,24.45,0,34.23-172.39,34.23
		c-163.84-1.22-244.53-4.89-597.88-31.79l-112.48-8.56l-25.68,58.69c-13.45,33.01-20.79,63.58-15.89,68.47
		s133.27,51.35,284.88,103.93c272.65,92.92,358.24,127.16,372.91,151.61c24.45,39.12-171.17-1.22-508.62-103.93
		c-99.04-30.57-183.4-55.02-187.07-55.02c-8.56,0-117.38,227.41-117.38,245.75c0,4.89,31.79,12.23,70.91,17.12
		c434.04,46.46,928,139.38,992.8,187.07c44.02,33.01,46.46,79.47,3.67,110.04c-110.04,78.25-540.41,198.07-1171.3,327.67
		c-133.27,26.9-212.74,48.91-222.52,61.13c-7.34,11-73.36,196.85-145.5,412.03c-234.75,706.7-330.12,926.77-451.16,1051.48
		c-58.69,59.91-172.39,116.15-253.09,125.93c-84.36,8.56-220.08-26.9-347.23-90.48c-196.85-99.04-349.68-123.49-482.95-77.03
		c-36.68,12.23-121.04,47.68-188.29,78.25c-227.41,103.93-348.46,114.93-491.51,45.24c-195.62-96.59-297.11-308.11-621.11-1304.57
		c-44.02-135.71-84.36-250.64-90.48-253.09c-4.89-3.67-141.83-34.23-302-67.25c-523.3-110.04-919.44-220.08-1050.26-292.21
		c-99.04-53.8-85.59-112.48,36.68-158.95c106.37-40.35,354.57-84.36,703.03-124.71c117.38-13.45,237.2-28.12,265.32-31.79
		l50.13-6.11l-58.69-124.71c-33.01-68.47-66.02-125.93-73.36-128.38s-83.14,17.12-168.73,44.02
		c-194.4,62.36-441.38,124.71-490.29,124.71c-20.79,0-37.9-6.11-37.9-13.45c0-19.56,116.15-66.02,391.25-158.95
		c138.16-46.46,256.76-86.81,265.32-90.48c11-3.67,7.34-22.01-11-68.47l-26.9-63.58l-128.38,8.56
		c-70.91,4.89-195.62,13.45-276.32,19.56c-232.3,18.34-495.18,15.89-495.18-4.89c0-9.78,23.23-22.01,53.8-30.57
		c53.8-13.45,685.91-86.81,750.71-86.81c58.69,0,66.02-12.23,45.24-83.14c-18.34-59.91-22.01-63.58-58.69-63.58
		c-55.02,0-514.74-68.47-589.32-88.03c-39.12-9.78-61.13-22.01-61.13-34.23c0-23.23,130.82-22.01,437.71,6.11
		c119.82,11,221.3,18.34,223.75,14.67c3.67-2.45,0-19.56-6.11-36.68c-11-26.9-22.01-31.79-83.14-39.12
		c-108.82-11-250.64-40.35-264.09-53.8c-14.67-14.67,14.67-228.64,58.69-446.27c17.12-79.47,30.57-151.61,30.57-158.95
		s-51.35-70.91-113.71-141.83c-62.36-70.91-128.38-147.94-146.72-171.17c-31.79-40.35-34.23-41.57-47.68-18.34
		c-7.34,13.45-40.35,48.91-72.14,79.47c-35.46,34.23-69.69,81.92-89.25,125.93c-17.12,39.12-55.02,102.7-84.36,140.61
		c-51.35,67.25-53.8,75.8-67.25,198.07c-25.68,217.63-29.34,233.53-57.46,266.54c-24.45,29.34-31.79,74.58-78.25,473.17
		c-100.26,891.32-147.94,1300.91-172.39,1503.87c-13.45,114.93-24.45,223.75-24.45,243.31v35.46l205.41-7.34
		c146.72-4.89,232.3-13.45,305.66-31.79c96.59-24.45,235.97-83.14,313-132.05c34.23-22.01,34.23-22.01,53.8,8.56
		c33.01,50.13,113.71,122.27,189.51,166.28c114.93,67.25,206.63,94.14,347.23,100.26c147.94,6.11,253.09-9.78,369.24-57.46
		c110.04-45.24,111.26-39.12,14.67,154.05c-210.3,420.59-556.31,739.71-976.9,902.32c-245.75,94.14-458.5,135.71-770.27,147.94
		l-193.18,8.56l-22.01,86.81C2495.33,9975.75,2459.87,10018.55,2424.41,9975.75z M3052.86,9434.12
		c177.28-176.06,295.88-363.13,381.47-606.44c33.01-92.92,88.03-315.45,88.03-355.79c0-33.01-23.23,13.45-55.02,112.48
		c-77.03,239.64-178.51,462.16-278.77,611.33c-107.59,162.61-189.51,250.64-369.24,401.03l-48.91,40.35l79.47-40.35
		C2906.14,9568.61,2966.05,9520.93,3052.86,9434.12z M2154.21,9480.58c-178.51-229.86-282.43-470.72-348.46-816.73
		c-17.12-89.25-44.02-316.67-44.02-374.13c0-12.23-6.11-23.23-13.45-23.23c-23.23,0-6.11,364.35,24.45,502.51
		c69.69,321.56,205.41,584.43,390.03,753.16c37.9,35.46,70.91,64.8,73.36,64.8C2237.35,9586.95,2200.67,9539.27,2154.21,9480.58z
		 M6774.62,8420.54c97.81-11,266.54-31.79,376.58-45.24l198.07-26.9l51.35-156.5c26.9-86.81,47.68-160.17,45.24-163.84
		c-3.67-2.45-55.02,0-114.93,6.11c-415.7,41.57-729.93,55.02-1296.02,53.8c-491.51,0-644.34-4.89-941.44-26.9
		c-194.4-15.89-372.91-30.57-396.14-35.46c-35.46-6.11-40.35-3.67-34.23,15.89c3.67,13.45,25.68,86.81,50.13,165.06l44.02,141.83
		l191.96,26.9c179.73,23.23,498.84,56.24,670.02,67.25C5803.83,8453.55,6604.67,8438.88,6774.62,8420.54z M5674.23,7575.68
		c326.45-2.45,887.65,0,1247.11,6.11l654.12,11l36.68-41.57c20.79-22.01,47.68-58.69,59.91-80.7c20.79-34.23,20.79-39.12,3.67-31.79
		c-11,3.67-68.47,17.12-127.16,29.34c-90.48,18.34-172.39,22.01-504.96,22.01c-432.82-1.22-537.97-12.23-616.22-70.91
		c-37.9-28.12-40.35-28.12-374.13-26.9l-336.23,1.22l-45.24,31.79c-75.8,52.57-191.96,64.8-615,64.8
		c-309.33,0-399.81-4.89-493.95-22.01c-63.58-12.23-117.38-18.34-119.82-15.89c-3.67,3.67,14.67,36.68,40.35,74.58l45.24,69.69
		l276.32-7.34C4956.53,7584.24,5347.78,7578.13,5674.23,7575.68z M4957.76,7364.16c9.78-17.12-272.65-332.56-298.33-332.56
		c-18.34,0-51.35,90.48-57.46,158.95c-9.78,96.59,1.22,128.38,45.24,146.72C4713.23,7365.38,4944.31,7384.95,4957.76,7364.16z
		 M6896.89,7361.72c0-22.01-276.32-330.12-295.88-330.12c-17.12,0-47.68,74.58-58.69,140.61c-14.67,89.25,2.45,145.5,48.91,165.06
		C6663.36,7366.61,6896.89,7386.17,6896.89,7361.72z M6292.9,7234.56c34.23-11,70.91-29.34,80.7-40.35
		c9.78-12.23,33.01-69.69,50.13-127.16c78.25-254.31,226.19-369.24,519.63-402.25c245.75-28.12,452.38,30.57,573.43,162.61
		c67.25,72.14,85.59,111.26,121.04,250.64c17.12,64.8,34.23,121.04,39.12,125.93s34.23,19.56,66.02,33.01l56.24,24.45l50.13-108.82
		c28.12-61.13,50.13-113.71,50.13-119.82c0-4.89-23.23-19.56-51.35-31.79c-108.82-47.68-149.16-92.92-97.81-108.82
		c13.45-4.89,59.91,3.67,105.15,18.34c46.46,13.45,84.36,23.23,85.59,20.79c2.45-2.45,12.23-26.9,23.23-53.8
		c19.56-50.13,19.56-51.35-7.34-58.69c-14.67-3.67-41.57-7.34-58.69-7.34c-61.13,0-108.82-24.45-108.82-56.24
		c0-37.9,37.9-47.68,143.05-37.9l78.25,7.34l18.34-42.79c9.78-24.45,14.67-47.68,11-51.35s-52.57-6.11-108.82-3.67
		c-75.8,2.45-103.93-1.22-114.93-14.67c-37.9-44.02,14.67-68.47,195.62-88.03l68.47-7.34l28.12-114.93
		c15.89-63.58,24.45-118.6,20.79-123.49c-26.9-25.68-805.73-189.51-899.88-188.29c-11,0,62.36,44.02,165.06,96.59
		c189.51,97.81,279.99,154.05,289.77,182.18c9.78,22.01-3.67,48.91-28.12,57.46c-37.9,11-478.06,67.25-734.82,92.92
		c-325.23,31.79-1046.59,45.24-1375.49,24.45c-420.59-25.68-1045.37-97.81-1096.72-124.71c-61.13-33.01,30.57-108.82,289.77-239.64
		c169.95-85.59,178.51-91.7,122.27-83.14c-169.95,22.01-863.2,173.62-881.54,191.96c-4.89,6.11,51.35,216.41,59.91,224.97
		c2.45,3.67,53.8,11,112.48,18.34c113.71,12.23,152.83,25.68,152.83,52.57c0,36.68-35.46,47.68-134.49,40.35
		c-106.37-7.34-108.82-6.11-84.36,63.58l13.45,37.9l96.59-7.34c99.04-8.56,133.27,1.22,133.27,40.35
		c0,22.01-72.14,52.57-124.71,52.57c-67.25,0-75.8,12.23-51.35,72.14c11,28.12,26.9,48.91,34.23,46.46
		c140.61-51.35,196.85-56.24,196.85-14.67c0,18.34-20.79,35.46-79.47,63.58c-44.02,22.01-84.36,41.57-90.48,44.02
		c-12.23,3.67,97.81,228.64,112.48,228.64c4.89-1.22,33.01-13.45,63.58-28.12c53.8-26.9,55.02-28.12,83.14-135.71
		c62.36-240.86,163.84-347.23,382.69-405.92c103.93-26.9,319.11-26.9,431.6,0c224.97,53.8,344.79,179.73,416.93,435.27
		c22.01,78.25,47.68,99.04,161.39,128.38C5955.44,7268.79,6202.42,7261.46,6292.9,7234.56z M6016.58,6430.05
		c0-22.01,3.67-134.49,7.34-249.42c4.89-117.38,2.45-212.74-3.67-216.41c-23.23-14.67-392.47,24.45-508.62,53.8l-45.24,12.23
		l2.45,210.3l3.67,210.3l85.59,7.34c47.68,3.67,169.95,7.34,272.65,8.56l185.84,2.45V6430.05z M6638.91,6450.84
		c3.67-4.89,7.34-102.7,7.34-217.63v-207.85l-36.68-11c-47.68-12.23-278.77-42.79-405.92-52.57l-101.48-7.34v259.2v259.2
		l264.09-7.34C6511.75,6461.84,6634.02,6454.51,6638.91,6450.84z M5393.02,6244.21v-200.52l-132.05,34.23
		c-72.14,18.34-172.39,50.13-222.52,69.69l-91.7,35.46l3.67,108.82c2.45,59.91,6.11,111.26,8.56,113.71
		c6.11,6.11,305.66,35.46,382.69,37.9l51.35,1.22V6244.21z M6927.46,6432.5c74.58-6.11,157.72-14.67,187.07-18.34l51.35-7.34
		v-113.71v-114.93l-63.58-25.68c-81.92-33.01-354.57-112.48-361.91-106.37c-2.45,3.67-7.34,94.14-11,201.74l-7.34,196.85h35.46
		C6777.07,6444.72,6854.1,6439.83,6927.46,6432.5z M4867.28,6304.12v-91.7l-30.57,12.23c-77.03,29.34-238.42,121.04-238.42,135.71
		c0,8.56,150.39,30.57,223.75,34.23l45.24,1.22V6304.12z M7420.19,6379.92c48.91-8.56,89.25-19.56,89.25-26.9
		c1.22-6.11-55.02-40.35-124.71-75.8l-127.16-63.58l-8.56,57.46c-15.89,119.82-14.67,124.71,36.68,123.49
		C7310.15,6394.6,7371.28,6387.26,7420.19,6379.92z M5385.69,5955.66c300.77-66.02,704.25-91.7,989.13-62.36
		c135.71,14.67,392.47,61.13,441.38,80.7c19.56,8.56,20.79,6.11,13.45-19.56c-9.78-33.01-105.15-283.66-110.04-289.77
		c-2.45-2.45-55.02,7.34-118.6,20.79c-310.55,67.25-739.71,67.25-1060.04,1.22c-63.58-13.45-119.82-24.45-125.93-24.45
		c-13.45,0-50.13,84.36-96.59,217.63c-29.34,88.03-31.79,100.26-13.45,95.37C5315.99,5971.56,5352.67,5963,5385.69,5955.66z
		 M2868.24,5802.83c50.13-101.48,20.79-251.87-68.47-354.57c-48.91-55.02-101.48-79.47-171.17-79.47h-51.35l7.34,101.48
		c7.34,129.6,44.02,222.52,114.93,303.22C2788.76,5872.52,2830.33,5879.86,2868.24,5802.83z M6516.64,5590.09
		c77.03-14.67,144.27-29.34,150.39-33.01c4.89-3.67-3.67-33.01-20.79-66.02c-26.9-53.8-40.35-64.8-118.6-102.7
		c-48.91-23.23-112.48-47.68-140.61-53.8c-52.57-12.23-75.8-29.34-245.75-182.18l-84.36-75.8l-140.61,124.71
		c-130.82,116.15-147.94,127.16-245.75,160.17c-57.46,19.56-122.27,45.24-143.05,58.69c-45.24,26.9-92.92,121.04-69.69,134.49
		c13.45,7.34,227.41,50.13,320.34,63.58c20.79,2.45,163.84,3.67,317.89,1.22C6322.24,5616.99,6404.16,5610.87,6516.64,5590.09z
		 M3093.21,5537.51c31.79-94.14,31.79-144.27,1.22-204.18c-31.79-64.8-135.71-154.05-204.18-177.29
		c-83.14-28.12-260.43-24.45-240.86,6.11c3.67,6.11,17.12,11,29.34,11c13.45,0,55.02,12.23,94.14,26.9
		c138.16,51.35,245.75,196.85,268.98,359.46c3.67,29.34,11,53.8,15.89,53.8C3063.86,5613.32,3079.76,5579.08,3093.21,5537.51z
		 M9285.96,2780.42c-29.34-136.94-66.02-228.64-118.6-299.55c-26.9-35.46-117.38-101.48-125.93-91.7
		c-3.67,3.67-12.23,58.69-19.56,123.49c-9.78,85.59-9.78,121.04,0,133.27c7.34,8.56,51.35,36.68,97.81,62.36
		s100.26,58.69,119.82,74.58C9285.96,2821.99,9295.74,2820.77,9285.96,2780.42z M6236.65,1036.92
		c52.57-146.72,105.15-277.54,117.38-290.99c18.34-20.79,37.9-23.23,180.95-23.23c145.5,0,443.82,13.45,698.14,30.57l97.81,6.11
		l-86.81-42.79c-47.68-22.01-160.17-66.02-250.64-96.59c-603.99-200.52-1206.76-200.52-1814.42,1.22
		c-150.39,50.13-319.11,123.49-308.11,134.49c4.89,3.67,116.15,0,249.42-9.78c133.27-8.56,354.57-17.12,492.73-17.12
		c297.11,0,306.89,2.45,335.01,107.59c47.68,176.06,106.37,383.91,130.82,463.39l26.9,89.25l18.34-42.79
		C6133.95,1323.02,6185.3,1183.64,6236.65,1036.92z M4194.82,846.18c124.71-19.56,254.31-39.12,287.32-44.02
		c40.35-6.11,114.93-36.68,220.08-92.92c180.95-95.37,289.77-141.83,463.39-201.74c146.72-50.13,425.48-112.48,551.42-123.49
		c50.13-3.67,89.25-9.78,85.59-13.45c-2.45-3.67-202.96-6.11-445.05-6.11l-438.93,1.22l-73.36,45.24
		c-117.38,72.14-324,127.16-478.06,128.38c-41.57,0-74.58,12.23-139.38,50.13c-84.36,50.13-255.54,202.96-304.44,271.43
		l-25.68,35.46l35.46-7.34C3952.73,885.31,4070.11,865.74,4194.82,846.18z M8227.14,869.41c-11-31.79-198.07-206.63-277.54-259.2
		c-101.48-66.02-94.14-63.58-264.09-81.92c-144.27-14.67-289.77-58.69-390.03-118.6l-70.91-42.79l-418.15-3.67
		c-408.37-3.67-564.87,4.89-368.02,20.79c319.11,24.45,765.38,167.5,1072.27,341.12c105.15,59.91,112.48,62.36,306.89,90.48
		c108.82,15.89,239.64,36.68,289.77,46.46C8225.92,882.86,8232.03,884.08,8227.14,869.41z"/>
	<path d="M5875.97,7064.61c-75.8-25.68-103.93-44.02-103.93-68.47c0-30.57,19.56-45.24,85.59-62.36
		c30.57-8.56,79.47-28.12,110.04-44.02c69.69-36.68,110.04-36.68,182.18,1.22c30.57,17.12,79.47,35.46,107.59,42.79
		c101.48,24.45,108.82,78.25,18.34,117.38C6214.65,7079.28,5945.66,7086.62,5875.97,7064.61z"/>
</g>
</svg>
