<?xml version="1.0" standalone="no"?>
<!DOCTYPE svg PUBLIC "-//W3C//DTD SVG 20010904//EN"
 "http://www.w3.org/TR/2001/REC-SVG-20010904/DTD/svg10.dtd">
<svg version="1.0" xmlns="http://www.w3.org/2000/svg"
 width="1024.000000pt" height="1024.000000pt" viewBox="0 0 1024.000000 1024.000000"
 preserveAspectRatio="xMidYMid meet">

<g transform="translate(0.000000,1024.000000) scale(0.100000,-0.100000)"
fill="#000000" stroke="none">
<path d="M2258 9398 l-24 -63 -69 -7 c-235 -24 -418 -61 -584 -120 -115 -40
-300 -136 -385 -200 -139 -104 -286 -269 -386 -432 -47 -79 -104 -204 -115
-255 -7 -33 -7 -34 21 -27 203 45 338 27 539 -73 123 -62 214 -132 222 -172 6
-34 18 -37 33 -9 7 13 38 28 93 44 151 45 311 66 508 66 l122 0 -6 -420 c-5
-343 -9 -426 -22 -456 -8 -20 -15 -53 -15 -74 0 -42 -10 -54 -55 -64 -59 -15
-82 -65 -54 -118 9 -17 6 -25 -20 -52 -35 -36 -38 -54 -15 -102 13 -28 14 -40
5 -60 -17 -37 -14 -47 25 -104 19 -28 34 -59 32 -68 -4 -23 -62 -38 -93 -24
-33 15 -51 46 -69 117 -23 88 -72 119 -116 75 -16 -16 -20 -33 -20 -82 1 -120
49 -201 146 -249 56 -28 70 -31 131 -27 37 3 74 7 82 9 10 3 37 -48 91 -166
206 -453 475 -860 871 -1313 160 -183 155 -165 151 -472 -3 -337 7 -453 84
-910 74 -442 81 -476 131 -625 116 -354 239 -585 395 -746 84 -87 252 -223
385 -312 51 -34 92 -65 93 -69 0 -4 -20 -21 -45 -38 -25 -17 -49 -39 -55 -50
-13 -23 -13 -57 -1 -65 90 -55 1051 -48 1309 11 75 17 114 35 166 80 l39 33
33 -29 c44 -38 84 -49 229 -61 201 -16 948 20 1054 50 41 13 71 38 71 62 0 24
-61 73 -127 101 -29 13 -53 25 -53 28 0 3 21 18 46 34 129 82 294 264 444 492
214 324 328 725 371 1308 11 146 11 203 -4 435 -10 146 -18 302 -18 346 0 135
-17 265 -59 450 -58 254 -58 246 51 472 222 459 311 687 408 1051 57 213 92
380 117 567 26 199 27 200 108 282 39 40 71 78 71 85 0 15 -47 16 -111 4 -61
-11 -62 10 -5 91 115 164 105 195 -33 102 -42 -28 -80 -48 -85 -45 -10 7 -10
5 19 128 24 103 26 148 6 148 -19 0 -81 -72 -118 -137 -16 -29 -36 -53 -44
-53 -8 0 -14 1 -14 3 -5 58 -30 210 -35 215 -14 15 -46 -44 -76 -138 -22 -73
-36 -103 -54 -114 -35 -23 -43 -21 -91 24 -24 22 -53 40 -65 40 -24 0 -24 -2
1 -117 l14 -62 -196 -193 c-107 -106 -224 -226 -260 -265 -59 -67 -67 -73
-104 -73 -21 0 -126 -11 -233 -25 -209 -27 -209 -27 -236 26 l-14 27 252 107
c139 59 261 114 272 122 60 45 -261 -48 -474 -136 -41 -17 -80 -31 -87 -31
-12 0 -74 68 -74 81 0 7 183 156 280 229 143 107 149 151 9 63 -41 -26 -124
-84 -185 -129 -162 -121 -149 -118 -228 -41 -36 35 -105 91 -153 125 -152 105
-160 117 -103 137 l35 12 -40 21 -40 20 30 7 c47 12 50 17 16 31 l-32 13 46
44 45 44 0 70 c0 122 -78 474 -128 573 -25 51 -30 55 -65 58 -27 2 -45 -2 -60
-15 -52 -46 -225 -461 -234 -565 -5 -51 -3 -63 21 -98 28 -42 27 -47 -5 -29
-11 5 -28 9 -37 7 -13 -3 -9 -10 18 -27 l35 -23 -35 6 -34 6 32 -33 33 -34
-53 9 c-245 40 -408 48 -609 28 -242 -24 -428 -71 -662 -166 -59 -24 -113 -44
-118 -44 -6 0 -1 16 10 36 24 41 21 56 -7 31 -30 -27 -35 -20 -13 18 22 38 18
44 -15 20 -21 -14 -21 -14 -16 55 4 62 2 76 -23 125 -54 106 -341 431 -410
465 -75 36 -112 8 -126 -97 -14 -108 20 -517 52 -628 15 -52 68 -105 106 -105
49 0 59 -15 24 -36 -48 -28 -40 -45 17 -37 l47 6 -33 -35 c-17 -19 -32 -36
-32 -38 0 -3 23 -3 52 -1 60 4 62 11 -23 -89 -25 -30 -66 -86 -92 -125 -25
-38 -54 -81 -64 -93 l-18 -24 -152 41 c-155 42 -330 81 -364 81 -33 0 -21 -18
24 -34 23 -9 137 -46 252 -82 116 -36 212 -67 213 -69 2 -2 -6 -24 -17 -50
l-20 -46 -143 8 c-221 12 -505 10 -519 -4 -16 -16 4 -18 316 -43 143 -11 271
-23 283 -27 20 -5 23 -10 18 -35 -3 -17 -12 -42 -18 -57 -14 -28 -34 -34 -311
-94 l-119 -26 -221 148 c-265 177 -307 202 -468 276 -327 151 -309 138 -309
237 0 34 -7 62 -21 84 -20 33 -20 40 -12 456 l8 423 63 3 c138 7 400 -42 539
-100 l73 -30 25 31 c36 42 148 115 236 152 170 72 378 100 494 65 l47 -15 -5
38 c-7 57 -81 200 -171 336 -151 226 -381 429 -598 529 -158 73 -397 142 -585
169 l-88 13 -21 59 c-12 32 -26 61 -32 63 -5 1 -21 -25 -34 -60z m4023 -2113
c46 -32 86 -81 76 -91 -3 -3 -32 6 -63 21 -32 15 -74 30 -94 32 -47 7 -113
-22 -167 -71 -22 -20 -43 -36 -47 -36 -15 0 -5 85 14 115 31 50 72 66 162 63
66 -3 82 -7 119 -33z m-658 -76 c34 -9 57 -32 45 -45 -3 -2 -28 -10 -55 -17
-28 -8 -70 -29 -95 -50 -54 -44 -97 -48 -161 -15 -33 17 -60 22 -122 22 -67 1
-80 4 -83 18 -6 29 94 70 213 88 76 11 216 11 258 -1z m-935 -86 c36 -29 62
-76 49 -89 -3 -3 -31 6 -62 21 -88 43 -170 26 -289 -60 -26 -19 -52 -35 -57
-35 -18 0 -8 38 21 81 54 81 138 122 238 115 52 -3 70 -9 100 -33z m2582 -132
c0 -11 -166 -233 -205 -275 -32 -34 -48 -33 -81 7 -32 38 -105 189 -96 199 5
5 318 69 375 77 4 1 7 -3 7 -8z m-1288 -261 c10 -52 19 -158 20 -235 l3 -140
-90 -33 c-49 -19 -137 -45 -195 -58 -123 -28 -130 -25 -130 60 0 28 -11 148
-25 266 -13 118 -22 216 -20 218 6 6 270 20 350 18 l70 -1 17 -95z m355 84
c17 -5 23 -17 32 -67 6 -34 12 -89 14 -122 l2 -60 -55 -36 c-60 -40 -238 -139
-251 -139 -4 0 -10 39 -14 88 -4 48 -15 143 -24 212 -10 69 -16 129 -13 134 5
9 266 0 309 -10z m265 -25 c10 -5 18 -14 18 -19 0 -9 -37 -44 -120 -115 l-55
-46 -6 30 c-4 17 -10 63 -13 102 l-7 72 83 -8 c45 -4 91 -11 100 -16z m-1118
-6 c10 -35 35 -240 47 -387 9 -115 9 -150 0 -156 -23 -14 -181 -19 -303 -9
-167 13 -176 15 -182 47 -35 169 -62 439 -46 456 13 12 351 63 437 65 32 1 43
-3 47 -16z m-550 -79 c3 -9 6 -31 6 -49 0 -18 12 -112 26 -210 14 -97 23 -179
20 -182 -7 -7 -213 41 -315 74 -60 20 -85 33 -91 48 -15 40 -33 246 -23 256
10 10 307 76 349 78 12 1 25 -6 28 -15z m-429 -194 c7 -68 8 -110 2 -110 -18
0 -201 91 -234 116 -18 14 -33 31 -33 38 0 17 233 82 249 70 2 -2 9 -53 16
-114z m-775 17 c0 -23 -31 -120 -51 -159 -22 -43 -42 -47 -92 -22 -41 21 -167
116 -167 126 0 4 10 10 23 13 18 5 251 49 280 54 4 0 7 -5 7 -12z m2543 -462
c376 -56 618 -175 859 -421 91 -94 109 -116 175 -214 129 -191 234 -469 297
-781 46 -229 55 -547 20 -784 -58 -402 -134 -618 -314 -888 -201 -303 -447
-532 -785 -732 -332 -196 -610 -274 -876 -245 -229 25 -557 129 -779 247 -559
297 -851 616 -1028 1125 -66 187 -88 325 -101 625 -10 219 2 380 44 617 138
780 570 1211 1375 1372 405 81 874 114 1113 79z"/>
<path d="M6092 5739 c-72 -36 -172 -174 -172 -238 0 -26 4 -31 25 -31 14 0 68
18 121 40 53 22 109 40 124 40 15 0 73 -23 129 -51 57 -29 110 -49 123 -47 56
8 18 109 -76 204 -102 101 -186 126 -274 83z"/>
<path d="M5193 5669 c-92 -45 -192 -189 -196 -281 -3 -67 27 -64 147 16 136
91 155 95 276 57 106 -34 139 -38 158 -19 25 25 12 57 -47 121 -110 117 -236
157 -338 106z"/>
<path d="M6815 5626 c-74 -34 -149 -153 -120 -192 12 -18 16 -17 85 5 89 30
115 23 219 -54 75 -56 107 -67 118 -40 24 64 -180 297 -259 295 -7 -1 -26 -7
-43 -14z"/>
<path d="M4451 5435 c-80 -35 -218 -224 -209 -286 6 -45 49 -37 130 25 117 88
162 99 292 75 75 -14 86 -4 61 51 -21 47 -92 115 -140 136 -43 18 -91 17 -134
-1z"/>
<path d="M5735 5216 c-93 -43 -232 -193 -249 -268 -5 -20 -1 -33 14 -48 28
-28 59 -21 185 44 117 60 151 63 259 22 39 -15 89 -26 117 -26 43 0 49 3 55
24 9 36 -18 77 -98 151 -71 65 -173 125 -213 125 -11 0 -43 -11 -70 -24z"/>
<path d="M6508 5161 c-50 -32 -123 -120 -133 -163 -6 -23 -3 -28 17 -33 13 -3
52 3 88 14 100 32 132 28 225 -25 44 -25 94 -47 110 -48 27 -1 30 1 27 28 -8
71 -84 178 -161 228 -60 38 -112 38 -173 -1z"/>
<path d="M7165 5053 c-44 -23 -65 -43 -97 -92 -32 -51 -36 -88 -11 -98 9 -4
47 -1 85 5 78 14 86 11 197 -64 35 -24 67 -41 72 -38 16 10 9 68 -15 119 -12
28 -46 76 -75 107 -47 52 -61 61 -111 73 -8 2 -28 -3 -45 -12z"/>
<path d="M4864 5036 c-41 -18 -130 -126 -162 -195 -30 -66 -41 -139 -21 -151
17 -11 38 0 129 71 41 32 88 62 103 68 40 15 107 14 157 -4 23 -8 56 -15 72
-15 90 0 4 145 -125 210 -65 33 -105 37 -153 16z"/>
<path d="M4175 4776 c-100 -44 -230 -280 -181 -329 26 -25 56 -8 142 79 90 91
111 100 193 84 73 -14 128 -13 134 3 2 6 0 26 -6 42 -31 96 -187 163 -282 121z"/>
</g>
</svg>
