<?xml version="1.0" encoding="utf-8"?>
<!-- Generator: Adobe Illustrator 30.3.0, SVG Export Plug-In . SVG Version: 9.03 Build 0)  -->
<svg version="1.0" id="Calque_1" xmlns="http://www.w3.org/2000/svg" xmlns:xlink="http://www.w3.org/1999/xlink" x="0px" y="0px"
	 viewBox="0 0 1024 1024" style="enable-background:new 0 0 1024 1024;" xml:space="preserve">
<g transform="translate(0.000000,1024.000000) scale(0.100000,-0.100000)">
	<path d="M5529.52,9310.6c-37.75-49.2-66.36-117.84-100.68-242.54c-66.36-235.68-100.68-425.6-100.68-562.89
		c0-115.55,14.87-148.73,85.81-197.92c28.6-19.45,51.48-40.04,51.48-44.62s-20.59-14.87-45.76-22.88
		c-24.03-6.86-48.05-18.3-52.63-25.17c-10.3-17.16,17.16-33.18,56.06-33.18c17.16,0,30.89-4.58,30.89-11.44
		c0-5.72-4.58-11.44-9.15-11.44c-13.73,0-59.49-44.62-59.49-57.2c0-6.86,24.03-11.44,52.63-11.44c77.8,0,64.07-24.03-81.23-133.86
		c-236.82-179.62-336.36-298.6-485.09-575.47c-38.9-72.08-74.36-135-78.94-138.43c-4.58-4.58-59.49,12.58-122.42,36.61
		c-275.72,108.69-450.77,153.31-438.18,110.98c5.72-19.45,67.5-50.34,308.9-153.31l202.5-86.95l-29.75-59.49
		c-16.02-32.03-29.75-59.49-32.03-61.78c-1.14-1.14-105.25,10.3-231.1,26.31c-236.82,30.89-415.3,34.32-423.31,9.15
		c-5.72-16.02,44.62-32.03,173.9-54.92c259.71-44.62,429.03-78.94,429.03-86.95c0-3.43-12.58-36.61-28.6-70.93
		c-22.88-50.34-36.61-65.21-60.64-69.79c-17.16-3.43-115.55-19.45-219.66-36.61c-104.11-16.02-205.93-36.61-226.53-45.76
		c-43.47-17.16-43.47-42.33-1.14-49.2c27.46-3.43,323.77,17.16,398.14,28.6c37.75,5.72,38.9,5.72,30.89-30.89
		c-12.58-62.92-109.83-267.71-145.3-307.76l-34.32-36.61l-93.81,4.58c-76.65,4.58-128.14,17.16-282.59,70.93
		c-370.68,129.28-414.16,144.15-480.51,157.88c-37.75,6.86-68.64,17.16-68.64,20.59s58.35,41.19,129.28,85.81
		c290.6,179.62,431.32,284.88,431.32,324.92c0,25.17-36.61,37.75-83.52,30.89c-57.2-9.15-348.94-132.71-583.48-247.12l-169.32-83.52
		l-86.95,26.31c-86.95,26.31-164.75,26.31-189.92,1.14c-17.16-17.16,30.89-65.21,80.09-82.37c34.32-11.44,37.75-14.87,24.03-29.75
		c-12.58-12.58-24.03-12.58-48.05-3.43c-17.16,5.72-51.48,11.44-75.51,11.44c-48.05,0-137.29-29.75-137.29-45.76
		c0-5.72,13.73-20.59,30.89-33.18c16.02-13.73,27.46-26.31,25.17-28.6s-48.05-28.6-101.82-58.35
		c-53.77-29.75-160.17-92.67-235.68-137.29c-138.43-83.52-139.58-83.52-234.54-88.09c-123.56-4.58-186.48-35.47-271.15-131.57
		c-80.09-91.53-136.15-115.55-226.53-98.39c-34.32,5.72-61.78,8.01-61.78,3.43c0-17.16,68.64-101.82,101.82-124.7
		c18.31-13.73,64.07-38.9,100.68-56.06c58.35-27.46,80.09-30.89,180.76-30.89c99.53,0,122.42,3.43,177.33,29.75
		c75.51,36.61,104.11,62.92,156.74,144.15c38.9,60.64,45.76,66.36,195.64,136.15c86.95,41.19,203.65,97.25,259.71,125.85
		c88.09,44.62,104.11,49.2,107.54,32.03c1.14-10.3-3.43-24.03-11.44-28.6c-67.5-37.75-96.1-65.21-96.1-90.38
		c0-27.46,3.43-28.6,59.49-27.46l58.35,2.29l29.75-93.81c84.66-270,324.92-645.26,570.89-891.24
		c116.7-116.7,261.99-239.11,328.35-279.15c28.6-16.02,35.47-26.31,30.89-49.2c-102.97-569.75-101.82-1034.24,3.43-1621.16
		c93.81-521.7,267.71-909.54,525.13-1169.25c57.2-57.2,104.11-107.54,104.11-109.83c0-3.43-19.45-14.87-43.48-27.46
		c-138.43-70.93-252.84-213.94-191.06-236.82c45.76-18.31,117.84,8.01,183.05,64.07c62.92,56.06,108.69,73.22,108.69,41.19
		c0-9.15-9.15-19.45-19.45-24.03c-46.91-17.16-152.16-92.67-162.46-116.7c-17.16-36.61-1.14-41.19,114.41-32.03
		c97.25,6.86,101.82,6.86,101.82-16.02c0-12.58,3.43-25.17,9.15-27.46c4.58-2.29,178.48-1.14,385.55,3.43
		c421.02,10.3,542.29,27.46,676.15,91.53l70.93,34.32l157.88-21.74c272.29-38.9,413.01-48.05,686.45-45.76l264.28,3.43l45.76-48.05
		c51.48-53.77,180.76-118.98,283.73-144.15c37.75-8.01,145.3-29.75,239.11-48.05l170.47-32.03l20.59,29.75
		c25.17,33.18,43.47,33.18,203.65,2.29c131.57-25.17,136.15-24.03,140.72,32.03c4.58,67.5,35.47,77.8,147.59,50.34
		c58.35-13.73,85.81-16.02,93.81-8.01c25.17,25.17-26.31,154.45-101.82,260.85c-17.16,22.88-14.87,26.31,35.47,60.64
		c100.68,68.64,226.53,207.08,343.22,374.11c16.02,22.88,28.6,26.31,86.95,26.31c168.18,0,486.23,99.53,673.86,210.51
		c249.41,147.59,438.18,359.24,505.68,567.46c14.87,45.76,26.31,116.7,29.75,184.2c3.43,92.67,1.14,124.7-21.74,199.07
		c-49.2,168.18-156.74,290.6-323.77,371.82c-113.26,54.92-232.25,80.09-383.27,80.09h-114.41l-5.72,37.75
		c-3.43,19.45-8.01,115.55-11.44,211.65l-6.87,173.9l52.63,102.97c94.96,188.77,140.72,445.05,117.84,667
		c-34.32,344.37-161.31,710.47-400.43,1157.81c-165.89,308.9-205.93,396.99-192.21,410.72c2.29,2.29,112.12-8.01,242.54-24.03
		c131.57-14.87,247.12-25.17,256.27-20.59c53.77,20.59-68.64,62.92-340.93,120.13c-90.38,19.45-175.04,36.61-188.77,40.04
		c-17.16,3.43-33.18,29.75-60.64,98.39c-20.59,51.48-34.32,94.96-32.03,98.39c8.01,6.86,256.27,33.18,482.8,49.2
		c100.68,8.01,199.07,20.59,217.38,27.46l34.32,14.87l-28.6,14.87c-30.89,17.16-232.25,21.74-572.04,12.58l-188.77-5.72
		l-34.32,83.52c-33.18,81.23-33.18,83.52-12.58,99.53c12.58,8.01,131.57,51.48,265.43,94.96
		c257.42,84.66,318.05,109.83,307.76,126.99c-14.87,24.03-116.7,9.15-328.35-45.76c-121.27-30.89-239.11-61.78-260.85-68.64
		c-21.74-5.72-43.48-11.44-46.91-11.44c-4.58,0-36.61,58.35-70.93,129.28c-118.98,241.4-272.29,439.33-457.63,593.78
		c-45.76,37.75-32.03,64.07,35.47,68.64c28.6,2.29,53.77,9.15,56.06,16.02c2.29,8.01-14.87,25.17-38.9,40.04l-43.48,27.46
		l54.92,3.43c67.5,4.58,70.93,26.31,8.01,61.78c-25.17,14.87-43.47,30.89-42.33,36.61c2.29,5.72,30.89,19.45,64.07,29.75
		c131.57,43.47,144.15,83.52,144.15,469.07c-1.14,454.2-43.48,629.24-152.16,629.24c-50.34,0-106.4-54.92-199.07-195.64
		c-81.23-122.42-231.1-383.27-275.72-479.37c-45.76-98.39-46.91-170.47-4.58-242.54c27.46-48.05,40.04-89.24,25.17-89.24
		c-2.29,0-21.74,10.3-42.33,22.88c-65.21,38.9-74.36,21.74-24.03-43.47c25.17-34.32,27.46-38.9,8.01-32.03
		c-76.65,33.18-92.67,17.16-43.47-46.91c16.02-21.74,27.46-41.19,24.03-44.62c-2.29-3.43-42.33,6.86-88.09,22.88
		c-115.55,41.19-314.62,82.37-467.93,99.54c-152.16,16.02-433.6,8.01-596.06-17.16c-209.37-32.03-220.81-29.75-170.47,40.04
		c11.44,17.16,21.74,40.04,21.74,50.34c0,16.02-6.86,18.3-40.04,12.58c-48.05-9.15-49.2-3.43-10.3,48.05
		c45.76,59.49,62.92,129.28,49.2,200.21c-40.04,216.23-183.05,605.22-257.42,702.46C5624.47,9363.22,5569.56,9363.22,5529.52,9310.6
		z M5510.07,7553.29c57.2-40.04,74.37-77.8,78.94-168.18c5.72-104.11-16.02-169.32-76.65-236.82
		c-110.98-123.56-275.72-116.7-340.94,14.87c-75.51,148.73,32.03,375.26,194.49,411.87
		C5416.25,7585.33,5476.89,7576.18,5510.07,7553.29z M7301.69,7501.81c96.1-44.62,153.31-126.99,162.46-236.82
		c17.16-189.92-177.33-332.93-363.82-267.71c-72.08,26.31-118.98,66.36-152.16,133.86
		C6833.76,7361.09,7070.59,7610.5,7301.69,7501.81z M6316.64,7293.59c37.75-9.15,74.36-21.74,83.52-28.6
		c37.75-32.03-4.58-67.5-81.23-67.5c-20.59,0-69.79-13.73-109.83-29.75c-84.66-34.32-112.12-32.03-189.92,18.31
		c-29.75,18.31-64.07,34.32-76.65,34.32c-30.89,0-65.21,20.59-65.21,40.04C5877.31,7317.62,6138.16,7337.06,6316.64,7293.59z
		 M6034.05,6815.37c2.29-1.14-1.14-77.8-8.01-168.18c-5.72-90.38-11.44-218.52-11.44-283.73v-117.84l-65.21,8.01
		c-96.1,11.44-256.27,46.91-306.61,67.5l-43.47,18.31l6.86,224.24c4.58,138.43,12.58,229.96,20.59,240.26
		c8.01,10.3,46.91,17.16,110.98,19.45C5834.98,6827.95,6027.19,6823.37,6034.05,6815.37z M6443.63,6795.92
		c57.2-5.72,120.13-13.73,141.87-17.16l38.9-5.72l-8.01-248.26c-3.43-135-9.15-248.26-11.44-250.55
		c-12.58-12.58-151.02-27.46-323.77-33.18l-197.93-8.01v74.36c0,100.68,21.74,479.37,28.6,499.96
		C6118.72,6824.52,6218.25,6821.09,6443.63,6795.92z M5539.81,6646.04c-3.43-90.38-9.15-191.06-12.58-224.24
		c-8.01-72.08-3.43-73.22-170.47,13.73l-114.41,59.49l2.29,140.72c1.14,76.65,4.58,143.01,6.86,146.44
		c8.01,6.86,148.73,22.88,228.82,25.17l65.21,1.14L5539.81,6646.04z M5173.71,6663.2c-4.58-61.78-10.3-113.26-11.44-115.55
		c-2.29-2.29-41.19,28.6-86.95,66.36c-84.66,70.93-124.7,118.98-110.98,132.71c9.15,8.01,112.12,24.03,172.76,26.31l44.62,1.14
		L5173.71,6663.2z M6892.11,6739.86c245.98-35.47,220.81-21.74,219.66-117.84c-1.14-45.76-4.58-113.26-9.15-151.02l-6.86-68.64
		l-74.36-26.31c-97.25-35.47-273.43-82.37-305.47-82.37c-26.31,0-26.31,1.14-26.31,181.91c0,209.37,8.01,287.16,29.75,287.16
		C6727.36,6762.74,6805.16,6752.44,6892.11,6739.86z M7340.59,6671.21c188.77-35.47,189.92-36.61,108.69-92.67
		c-54.92-36.61-241.4-136.15-258.56-136.15c-4.58,0-9.15,57.2-9.15,125.85C7181.56,6714.69,7165.55,6704.39,7340.59,6671.21z
		 M3186.45,6410.36c76.65-46.91,81.23-101.82,6.86-81.23c-37.75,10.3-141.87,94.96-141.87,115.55
		C3051.45,6465.28,3129.24,6445.83,3186.45,6410.36z M2616.7,6247.9c8.01-19.45,12.58-36.61,10.3-38.9
		c-2.29-2.29-58.35-30.89-123.56-64.07c-112.12-56.06-121.27-58.35-135-38.9c-8.01,11.44-14.87,26.31-14.87,33.18
		c0,12.58,213.94,141.87,235.68,143.01C2596.1,6282.23,2608.69,6266.21,2616.7,6247.9z M2270.04,6092.31
		c24.03-24.03,27.46-36.61,22.88-69.79c-9.15-51.48-45.76-91.53-90.38-97.25c-26.31-4.58-33.18-1.14-28.6,12.58
		c3.43,10.3,6.86,25.17,9.15,34.32c2.29,10.3-5.72,18.31-18.31,20.59c-48.05,9.15-56.06,14.87-42.33,28.6
		c20.59,20.59,17.16,32.03-17.16,44.62c-28.6,10.3-29.75,11.44-8.01,26.31C2152.2,6131.21,2231.14,6131.21,2270.04,6092.31z
		 M6026.04,5990.49c387.84-48.05,681.87-153.31,972.47-345.51c212.8-141.87,423.31-370.68,525.13-574.33
		c30.89-59.49,26.31-82.37-28.6-154.45c-22.88-29.75-70.93-104.11-106.4-164.75l-66.36-110.98l-164.75-8.01
		c-90.38-3.43-197.93-12.58-239.11-19.45c-120.13-19.45-116.7-21.74-156.74,65.21c-62.92,133.86-143.01,208.22-224.24,208.22
		c-73.22,0-205.93-115.55-248.26-217.37c-12.58-30.89-12.58-37.75,1.14-46.91c25.17-16.02,58.35-12.58,130.42,12.58
		c36.61,12.58,76.65,22.88,88.09,22.88c28.6,0,99.53-36.61,133.86-69.79l26.31-25.17l-152.16-53.77
		c-356.95-124.7-631.53-311.19-775.68-526.28c-92.67-138.43-120.13-227.67-113.26-369.54c3.43-92.67,9.15-113.26,43.47-178.48
		c98.39-184.2,278.01-288.31,583.48-338.65c137.29-24.03,368.39-18.31,543.44,10.3c352.38,60.64,700.17,215.09,893.52,399.28
		c36.61,34.32,54.92,43.47,80.09,40.04l33.18-3.43l-3.43-80.09c-8.01-177.33-84.66-456.49-173.9-633.82
		c-178.48-355.81-442.76-616.66-812.29-802c-570.89-287.16-1271.07-241.4-1882.01,123.56c-156.74,93.81-352.38,264.28-485.09,425.6
		c-121.27,148.73-169.32,221.95-252.84,388.99c-228.82,456.49-287.16,1003.35-170.47,1583.4
		c81.23,402.71,242.54,748.23,458.77,983.91c205.93,225.38,585.77,409.58,942.72,458.77
		C5582.14,6011.08,5855.58,6011.08,6026.04,5990.49z M4178.36,5585.48c-29.75-82.37-61.78-159.03-70.93-169.32
		c-14.87-18.31-16.02-14.87-10.3,33.18c10.3,92.67,108.69,311.19,130.42,290.6C4229.85,5736.5,4208.11,5666.71,4178.36,5585.48z
		 M7863.43,5173.62c-16.02-41.19-57.2-110.98-90.38-155.59c-70.93-93.81-199.07-266.57-244.83-330.64
		c-37.75-53.77-60.64-64.07-60.64-29.75c0,45.76,82.37,177.33,225.38,358.1c43.48,54.92,104.11,141.87,136.15,194.49
		c46.91,77.8,57.2,89.24,59.49,66.36C7890.89,5261.71,7879.45,5214.8,7863.43,5173.62z M7496.18,4504.33
		c105.26-28.6,212.8-86.95,243.69-132.71c54.92-80.08,17.16-171.61-94.96-228.81c-70.93-36.61-109.83-81.23-116.7-133.86
		c-4.58-38.9-2.29-49.2,24.03-68.64c16.02-13.73,56.06-27.46,91.53-30.89c112.12-14.87,151.02-86.95,99.53-187.63
		c-27.46-53.77-144.15-165.89-240.26-229.96c-161.31-109.83-425.6-217.37-647.55-264.28c-147.59-30.89-454.2-43.47-590.34-24.03
		c-235.68,34.32-438.18,147.59-506.83,284.88c-82.37,162.46-22.88,362.67,162.46,550.3c116.7,116.7,225.38,193.35,398.14,279.15
		c194.49,97.25,388.99,159.03,620.09,196.78C7070.59,4536.37,7398.94,4529.5,7496.18,4504.33z M8647.12,3973.48
		c-14.87-27.46-98.39-104.11-161.31-147.59c-153.31-104.11-424.45-197.93-575.47-197.93h-48.05l28.6,28.6
		c20.59,19.45,54.92,33.18,120.13,45.76c178.48,36.61,339.79,105.25,520.55,220.81C8648.27,3998.65,8664.29,4005.51,8647.12,3973.48
		z M8906.83,3449.49c4.58-116.7-10.3-234.54-50.34-405c-27.46-116.7-78.94-250.55-91.53-237.97c-3.43,3.43,10.3,93.81,28.6,199.07
		c29.75,163.6,81.23,507.97,81.23,544.58c0,5.72,6.87,9.15,14.87,6.86C8898.82,3553.6,8904.54,3518.14,8906.83,3449.49z
		 M4799.6,1647.57c3.43-18.31-14.87-28.6-117.84-69.79l-57.2-22.88l34.32,36.61C4725.23,1663.59,4791.59,1688.76,4799.6,1647.57z
		 M7834.83,1489.69c37.75-37.75,60.64-92.67,37.75-92.67c-18.31,0-116.7,82.37-122.42,101.82
		C7737.58,1550.33,7778.77,1545.75,7834.83,1489.69z M7517.92,1474.82c29.75-26.31,53.77-100.68,33.18-100.68
		c-21.74,0-106.4,82.37-106.4,104.11C7444.7,1508,7482.45,1506.85,7517.92,1474.82z"/>
	<path d="M5354.47,7409.14c-13.73-9.15-30.89-35.47-37.75-57.2c-36.61-110.98,59.49-187.63,138.43-109.83
		C5542.1,7330.2,5452.86,7477.79,5354.47,7409.14z"/>
	<path d="M7101.48,7337.06c-33.18-27.46-43.48-106.4-18.31-145.3c27.46-41.19,69.79-54.92,117.84-38.9
		c73.22,24.03,88.09,118.98,29.75,184.2C7206.73,7363.38,7134.66,7364.52,7101.48,7337.06z"/>
	<path d="M5316.72,5634.68c-57.2-25.17-144.15-113.26-189.92-194.49c-75.51-135-45.76-157.88,100.68-78.94
		c123.56,65.21,147.59,65.21,271.15-6.86l84.66-49.2l20.59,26.31c25.17,30.89,22.88,45.76-18.31,132.71
		c-38.9,80.09-93.81,141.87-147.59,167.04C5381.93,5656.42,5368.2,5657.56,5316.72,5634.68z"/>
	<path d="M6123.29,5568.32c-97.25-44.62-234.54-216.23-217.37-271.15c10.3-32.03,61.78-27.46,154.45,12.58
		c118.98,52.63,144.15,46.91,276.87-58.35c74.36-58.35,115.55-58.35,121.27-1.14c11.44,117.84-131.57,316.91-243.69,338.65
		C6191.94,5593.49,6162.19,5587.77,6123.29,5568.32z"/>
	<path d="M4668.03,5480.23c-76.65-37.75-197.93-201.36-197.93-265.43c0-56.06,49.2-41.19,149.87,43.47
		c17.16,13.73,46.91,30.89,66.36,40.04c34.32,13.73,43.48,12.58,115.55-22.88c42.33-20.59,83.52-34.32,90.38-29.75
		c20.59,12.58,14.87,86.95-10.3,138.43C4830.49,5490.52,4753.83,5524.85,4668.03,5480.23z"/>
	<path d="M6854.36,5328.07c-98.39-43.48-194.49-209.37-135-232.25c10.3-3.43,45.76,1.14,77.8,11.44
		c94.96,30.89,105.25,32.03,135,20.59c16.02-5.72,67.5-44.62,113.26-85.81c102.97-91.53,130.42-96.1,129.28-18.31
		c-1.14,65.21-50.34,171.61-112.12,237.97C6988.21,5342.94,6931.01,5361.24,6854.36,5328.07z"/>
	<path d="M5624.47,5018.02c-52.63-27.46-167.04-141.87-205.93-205.93c-46.91-74.37-13.73-121.27,66.36-92.67
		c24.03,9.15,66.36,26.31,94.96,40.04c85.81,40.04,130.42,33.18,248.26-38.9c108.69-66.36,126.99-72.08,149.87-49.2
		c52.63,52.63-83.52,297.46-195.64,351.23C5719.43,5053.49,5689.69,5052.34,5624.47,5018.02z"/>
	<path d="M4887.69,5010.01c-81.23-44.62-204.79-211.65-197.93-268.86c5.72-46.91,37.75-45.76,125.85,8.01
		c42.33,25.17,91.53,45.76,108.69,45.76s62.92-18.31,99.53-41.19c49.2-29.75,75.51-38.9,96.1-33.18
		c26.31,6.86,27.46,10.3,20.59,60.64c-14.87,106.4-126.99,242.54-200.21,242.54C4924.3,5023.74,4900.27,5016.88,4887.69,5010.01z"/>
	<path d="M4337.39,4876.16c-80.09-49.2-169.32-196.78-162.46-271.15c4.58-60.64,27.46-60.64,88.09-4.58
		c27.46,25.17,65.21,54.92,84.66,65.21c34.32,17.16,37.75,17.16,96.1-13.73c51.48-28.6,61.78-30.89,77.8-17.16
		c44.62,37.75-20.59,211.65-91.53,244.83C4383.15,4902.47,4380.86,4902.47,4337.39,4876.16z"/>
	<path d="M6653,4354.46c-104.11-28.6-164.75-99.53-133.86-156.74c20.59-40.04,30.89-43.48,130.42-43.48
		c112.12,0,180.76,29.75,212.8,90.38c25.17,46.91,14.87,72.08-38.9,104.11C6782.28,4375.05,6730.8,4376.19,6653,4354.46z"/>
	<path d="M7202.16,4257.21c-108.69-27.46-218.52-105.26-251.7-178.48c-20.59-43.48,16.02-105.26,77.8-132.71
		c136.15-59.49,380.98,35.47,413.01,160.17c8.01,35.47-22.88,99.53-65.21,130.42C7341.73,4261.79,7259.36,4270.94,7202.16,4257.21z
		 M7136.94,4097.04c29.75-16.02,28.6-65.21-1.14-74.36c-27.46-9.15-88.09,2.29-98.39,18.31c-8.01,13.73,16.02,44.62,46.91,56.06
		C7115.21,4109.62,7111.77,4109.62,7136.94,4097.04z"/>
	<path d="M6185.07,4116.49c-67.5-19.45-117.84-56.06-136.15-99.53c-28.6-68.64,11.44-116.7,109.83-131.57
		c37.75-5.72,60.64,1.14,141.87,42.33c106.4,53.77,135,86.95,115.55,138.43C6397.87,4114.2,6274.31,4141.66,6185.07,4116.49z"/>
	<path d="M5997.44,3749.24c-52.63-18.31-74.37-34.32-98.39-69.79c-48.05-69.79-52.63-113.26-17.16-148.73
		c25.17-25.17,38.9-28.6,102.97-28.6c61.78,0,78.94,4.58,107.54,28.6c19.45,16.02,45.76,28.6,58.35,28.6
		c34.32,0,88.09,29.75,97.25,51.48c10.3,29.75,8.01,84.66-5.72,110.98c-16.02,29.75-78.94,54.92-132.71,53.77
		C6085.54,3774.41,6035.2,3762.97,5997.44,3749.24z"/>
	<path d="M6964.19,3655.43c-58.35-25.17-91.53-60.64-91.53-97.25c0-17.16,4.58-35.47,11.44-38.9c5.72-3.43,10.3-22.88,8.01-42.33
		c-3.43-48.05,32.03-66.36,126.99-66.36c91.53,0,143.01,21.74,211.65,89.24c62.92,61.78,67.5,89.24,20.59,138.43
		c-33.18,34.32-35.47,35.47-140.72,35.47C7041.98,3672.59,6990.5,3666.87,6964.19,3655.43z"/>
	<path d="M6369.27,3534.15c-57.2-28.6-78.94-48.05-94.96-80.09c-18.31-36.61-19.45-46.91-5.72-74.36
		c8.01-18.31,37.75-43.47,66.36-58.35c42.33-21.74,64.07-26.31,120.13-21.74c72.08,5.72,152.16,36.61,203.65,76.65
		c24.03,19.45,30.89,34.32,30.89,67.5c0,53.77-32.03,85.81-102.97,104.11C6476.81,3576.49,6448.21,3575.34,6369.27,3534.15z"/>
	<path d="M1628.22,8867.84c-35.47-11.44-72.08-40.04-88.09-70.93c-6.86-12.58-2.29-75.51,12.58-175.04
		c12.58-85.81,22.88-172.76,22.88-193.35c0-35.47-3.43-38.9-42.33-46.91c-57.2-10.3-148.73-58.35-163.6-84.66
		c-5.72-12.58-11.44-35.47-11.44-51.48c0-37.75-6.86-37.75-286.02-6.86c-114.41,12.58-250.55,24.03-302.04,26.31
		c-89.24,2.29-98.39,0-191.06-45.76c-135-66.36-147.59-81.23-147.59-161.31c0-35.47,26.31-265.43,57.2-511.4
		c32.03-244.83,73.22-572.04,92.67-726.49c18.31-154.45,57.2-463.35,85.81-686.45c192.2-1522.77,267.71-2126.84,267.71-2156.58
		c0-32.03-4.58-36.61-51.48-49.2c-51.48-13.73-51.48-13.73-51.48-66.36c0-68.64,22.88-212.8,37.75-229.96
		c6.86-10.3,45.76-14.87,117.84-14.87c59.49,0,107.54-4.58,107.54-9.15c0-5.72-14.87-62.92-33.18-129.28
		c-18.31-65.21-80.09-294.03-138.43-507.97c-57.2-213.94-140.72-519.41-184.2-679.58c-43.47-160.17-78.94-303.18-78.94-316.91
		c0-33.18,70.93-73.22,129.28-73.22c56.06,0,154.45,32.03,167.04,54.92c5.72,10.3,38.9,128.14,73.22,259.71
		c57.2,217.37,152.16,575.47,315.77,1188.7c32.03,118.98,61.78,220.81,67.5,226.53c4.58,4.58,33.18,12.58,62.92,16.02l53.77,8.01
		l1.14-628.1c1.14-345.51,5.72-852.34,9.15-1125.77l6.86-497.67l51.48-25.17c27.46-14.87,65.21-26.31,82.37-26.31
		c49.2,0,188.77,56.06,195.64,78.94c2.29,10.3,0,263.14-4.58,561.74c-5.72,298.6-8.01,543.44-5.72,545.72
		c2.29,2.29,106.4,24.03,231.1,49.2c124.7,24.03,393.56,77.8,597.21,118.98c202.5,41.19,372.97,75.51,378.69,75.51
		c4.58,0,30.89-91.53,57.2-202.5c27.46-112.12,81.23-327.21,118.98-478.22l70.93-274.58l62.92-20.59
		c60.64-20.59,62.92-20.59,139.58,4.58c135,42.33,140.72-40.04-52.63,732.21c-93.81,374.11-208.22,826.02-255.13,1005.64
		c-45.76,179.62-83.52,331.78-83.52,339.79c0,18.31,12.58,21.74,257.42,59.49c169.32,26.31,219.66,38.9,232.25,54.92
		c19.45,25.17,8.01,187.63-16.02,235.68c-14.87,28.6-21.74,30.89-84.66,30.89c-61.78,0-68.64,2.29-74.36,26.31
		c-5.72,29.75-65.21,472.5-91.53,688.73c-10.3,82.37-22.88,160.17-28.6,173.9c-11.44,28.6-116.7,165.89-122.42,160.17
		c-3.43-4.58,60.64-510.26,126.99-989.63c3.43-22.88,0-40.04-8.01-42.33c-8.01-3.43-320.34-49.2-694.45-102.97
		c-374.11-52.63-821.45-117.84-994.2-143.01c-171.61-25.17-316.91-45.76-321.49-45.76c-16.02,0-18.31,14.87-183.05,1338.57
		c-25.17,197.93-60.64,481.66-80.09,629.24c-19.45,147.59-62.92,497.67-97.25,777.97c-34.32,280.3-88.09,709.33-120.13,954.16
		c-30.89,245.98-54.92,448.48-51.48,450.77c4.58,4.58,645.26-51.48,688.73-60.64c16.02-3.43,27.46-17.16,32.03-38.9
		c8.01-36.61,33.18-62.92,68.64-73.22c12.58-4.58,161.31-18.31,330.64-32.03c339.79-26.31,356.95-25.17,369.54,36.61
		c6.86,34.32,8.01,34.32,59.49,28.6c28.6-4.58,155.59-17.16,281.44-30.89c125.85-12.58,232.25-26.31,236.82-30.89
		c4.58-4.58,34.32-207.08,66.36-448.48c66.36-502.25,89.24-662.42,98.39-676.15c6.86-11.44,93.81-38.9,100.68-32.03
		c2.29,2.29-2.29,56.06-11.44,118.98c-40.04,298.6-121.27,914.12-131.57,1001.07c-6.86,53.77-19.45,108.69-28.6,122.42
		c-19.45,30.89-20.59,30.89-382.12,67.5c-160.17,16.02-295.17,32.03-298.6,36.61c-4.58,4.58-13.73,41.19-20.59,81.23
		c-6.86,41.19-19.45,81.23-28.6,90.38c-10.3,10.3-58.35,20.59-129.28,27.46c-61.78,5.72-128.14,12.58-147.59,16.02l-35.47,4.58
		l-32.03,226.53c-17.16,123.56-35.47,234.54-41.19,244.83C1807.84,8858.69,1685.42,8885,1628.22,8867.84z M696.94,7865.63
		c17.16-137.29,51.48-417.59,76.65-622.38c26.31-204.79,66.36-530.85,91.53-726.49C1194.61,3930,1195.75,3920.85,1182.03,3911.7
		c-13.73-9.15-109.83-12.58-109.83-4.58c0,3.43-38.9,311.19-85.81,684.16c-48.05,372.97-106.4,838.61-131.57,1033.1
		c-25.17,195.64-57.2,455.34-73.22,577.76c-93.81,727.63-221.95,1768.74-227.67,1840.82c-2.29,21.74,8.01,34.32,43.47,54.92
		c25.17,13.73,50.34,24.03,57.2,22.88C660.33,8118.47,679.78,8004.06,696.94,7865.63z M2861.53,3660
		c81.23-304.32,146.44-594.92,136.15-604.07c-12.58-11.44-379.83-85.81-386.7-78.94c-12.58,13.73-110.98,813.44-100.68,823.73
		c6.86,6.86,140.72,32.03,290.6,54.92C2805.47,3856.78,2831.78,3767.55,2861.53,3660z M2210.55,3751.53
		c5.72-16.02,98.39-751.66,100.68-803.14l2.29-33.18l-220.81-45.76c-121.27-24.03-224.24-41.19-227.67-37.75
		c-4.58,3.43-9.15,201.36-12.58,440.47l-5.72,433.6l78.94,12.58c43.47,6.86,120.13,19.45,170.47,28.6s96.1,16.02,100.68,17.16
		C2201.4,3765.26,2208.26,3758.39,2210.55,3751.53z"/>
	<path d="M2461.1,7536.13c-35.47-16.02-96.1-83.52-96.1-106.4c0-5.72-20.59-43.47-45.76-82.37
		c-66.36-102.97-60.64-115.55,28.6-59.49c28.6,18.31,70.93,36.61,93.81,41.19c115.55,21.74,186.48,122.42,132.71,186.48
		C2546.91,7547.57,2504.58,7555.58,2461.1,7536.13z"/>
	<path d="M1346.77,7483.51c-46.91-46.91-24.03-122.42,57.2-200.21c115.55-108.69,147.59-220.81,84.66-284.88
		c-38.9-37.75-65.21-37.75-136.15,4.58c-30.89,18.31-66.36,34.32-76.65,34.32c-27.46,0-54.92-30.89-54.92-61.78
		c0-36.61,30.89-60.64,91.53-69.79c125.85-20.59,149.87-72.08,66.36-143.01c-38.9-34.32-45.76-45.76-40.04-70.93
		c6.86-25.17,16.02-29.75,67.5-36.61c74.36-10.3,89.24-21.74,89.24-70.93c0-46.91-54.92-112.12-148.73-176.19
		c-86.95-59.49-115.55-93.81-122.42-146.44c-8.01-57.2,22.88-93.81,81.23-93.81c56.06,0,90.38,33.18,149.87,151.02
		c68.64,133.86,100.68,169.32,151.02,169.32c30.89,0,42.33-6.86,58.35-34.32c22.88-40.04,48.05-43.48,92.67-10.3
		c54.92,40.04,104.11,4.58,104.11-75.51c0-14.87,11.44-41.19,26.31-58.35c21.74-25.17,33.18-29.75,57.2-22.88
		c26.31,5.72,30.89,13.73,30.89,45.76c0,20.59-10.3,62.92-24.03,92.67c-20.59,45.76-21.74,58.35-9.15,86.95
		c16.02,41.19,41.19,56.06,94.96,56.06c25.17,0,41.19,5.72,42.33,14.87c0,6.86,1.14,30.89,2.29,52.63
		c2.29,36.61,13.73,49.2,57.2,62.92c28.6,9.15,24.03,46.91-9.15,68.64c-32.03,20.59-38.9,75.51-13.73,96.1
		c8.01,6.86,60.64,24.03,116.7,36.61c114.41,26.31,154.45,53.77,154.45,105.25c0,46.91-36.61,77.8-90.38,77.8
		c-36.61,0-59.49-10.3-117.84-56.06c-92.67-69.79-112.12-76.65-149.87-46.91c-42.33,33.18-50.34,82.37-19.45,131.57
		c27.46,44.62,27.46,105.26-1.14,123.56c-30.89,19.45-74.36,0-90.38-38.9c-8.01-19.45-27.46-42.33-42.33-52.63
		c-32.03-20.59-48.05-10.3-90.38,56.06c-16.02,24.03-35.47,43.47-43.47,43.47c-9.15,0-22.88-21.74-32.03-48.05
		c-12.58-41.19-20.59-50.34-48.05-52.63c-46.91-5.72-93.81,43.48-116.7,122.42c-45.76,154.45-56.06,179.62-85.81,209.37
		C1422.28,7512.11,1378.81,7515.54,1346.77,7483.51z"/>
	<path d="M2049.24,7466.35c-24.03-36.61-11.44-76.65,21.74-72.08c28.6,3.43,57.2,54.92,46.91,82.37
		C2107.58,7504.1,2070.97,7498.38,2049.24,7466.35z"/>
	<path d="M2529.75,6997.27c-24.03-24.03-26.31-33.18-16.02-45.76c24.03-28.6,88.09-21.74,109.83,11.44
		c10.3,16.02,16.02,36.61,11.44,45.76C2624.71,7037.32,2562.93,7029.31,2529.75,6997.27z"/>
	<path d="M2167.08,6560.24c-27.46-26.31,20.59-94.96,65.21-94.96c32.03,0,44.62,24.03,29.75,61.78
		C2249.45,6562.52,2189.96,6583.12,2167.08,6560.24z"/>
	<path d="M1685.42,6298.24c-26.31-25.17-19.45-67.5,10.3-67.5c17.16,0,24.03,9.15,26.31,33.18
		C1727.75,6307.4,1709.44,6323.41,1685.42,6298.24z"/>
	<path d="M1508.09,5688.45c-27.46-18.31-18.31-72.08,19.45-105.25c48.05-42.33,58.35-66.36,46.91-108.69
		c-8.01-26.31-20.59-40.04-56.06-53.77c-58.35-22.88-58.35-46.91-1.14-75.51c41.19-21.74,58.35-42.33,58.35-72.08
		c0-6.86-25.17-36.61-57.2-67.5c-33.18-32.03-57.2-65.21-57.2-78.94c0-81.23,69.79-93.81,126.99-22.88
		c20.59,25.17,46.91,48.05,58.35,52.63c88.09,27.46,146.44-188.77,125.85-470.22c-10.3-157.88-4.58-211.65,27.46-247.12
		c68.64-75.51,121.27,50.34,84.66,201.36c-42.33,175.04-49.2,423.31-12.58,466.78c43.47,53.77,92.67-16.02,92.67-130.42
		c0-78.94,13.73-113.26,46.91-113.26c41.19,0,50.34,46.91,22.88,124.7c-30.89,89.24-30.89,171.61-1.14,229.96
		c12.58,25.17,22.88,59.49,22.88,76.65c0,49.2,17.16,64.07,76.65,70.93c46.91,5.72,56.06,11.44,58.35,33.18
		c5.72,40.04-17.16,59.49-73.22,59.49c-66.36,0-105.26,34.32-116.7,101.82c-11.44,66.36-34.32,81.23-86.95,52.63
		c-52.63-28.6-97.25-14.87-120.13,37.75c-21.74,49.2-40.04,45.76-61.78-10.3c-18.31-45.76-20.59-46.91-56.06-40.04
		c-20.59,4.58-57.2,27.46-83.52,52.63C1543.55,5701.04,1534.4,5704.47,1508.09,5688.45z"/>
	<path d="M1279.27,5602.64c-30.89-36.61,38.9-85.81,74.36-50.34c13.73,13.73,13.73,19.45-2.29,41.19
		C1331.9,5622.09,1298.72,5626.67,1279.27,5602.64z"/>
	<path d="M2635,5418.45c-17.16-17.16-17.16-21.74,1.14-51.48c38.9-67.5,107.54-73.22,115.55-9.15
		C2758.56,5409.3,2671.61,5455.06,2635,5418.45z"/>
	<path d="M2353.56,5362.39c0-10.3,10.3-38.9,22.88-62.92c12.58-25.17,25.17-65.21,29.75-90.38c9.15-60.64,50.34-130.42,84.66-147.59
		c43.48-20.59,86.95-6.86,102.97,32.03c33.18,78.94-20.59,170.47-131.57,223.09c-30.89,14.87-68.64,35.47-82.37,45.76
		C2355.85,5379.55,2353.56,5379.55,2353.56,5362.39z"/>
	<path d="M2783.73,4915.05c-9.15-24.03,11.44-70.93,36.61-84.66c44.62-24.03,51.48,37.75,10.3,76.65
		C2798.61,4936.79,2792.89,4937.94,2783.73,4915.05z"/>
	<path d="M3378.65,1521.72c-50.34-38.9-37.75-48.05,57.2-42.33c89.24,5.72,115.55,18.31,104.11,48.05
		C3528.53,1556.05,3417.55,1552.61,3378.65,1521.72z"/>
	<path d="M2413.05,1511.43c-30.89-12.58-44.62-42.33-27.46-59.49c6.86-6.86,44.62-20.59,84.66-30.89
		c75.51-19.45,98.39-49.2,43.47-56.06c-40.04-4.58-91.53-26.31-91.53-37.75c0-5.72-58.35-9.15-129.28-6.86
		c-107.54,2.29-133.86-1.14-160.17-18.31c-35.47-22.88-37.75-33.18-12.58-59.49c16.02-16.02,43.47-18.31,183.05-14.87
		c138.43,3.43,167.04,1.14,181.91-14.87c16.02-16.02,17.16-22.88,4.58-42.33c-11.44-19.45-11.44-26.31,0-41.19
		c19.45-22.88,52.63-22.88,115.55-1.14c75.51,26.31,112.12,21.74,148.73-17.16c41.19-43.47,92.67-45.76,167.04-5.72
		c77.8,41.19,161.31,40.04,241.4-5.72c108.69-61.78,233.39-69.79,241.4-16.02c4.58,28.6-22.88,52.63-89.24,76.65
		c-85.81,32.03-89.24,36.61-57.2,69.79c24.03,27.46,35.47,29.75,120.13,29.75c108.69,0,165.89,16.02,165.89,45.76
		c0,42.33-32.03,51.48-170.47,51.48c-165.89,0-207.08,13.73-207.08,69.79c0,20.59-5.72,41.19-12.58,44.62
		c-25.17,16.02-121.27,5.72-175.04-18.31c-49.2-21.74-70.93-24.03-165.89-19.45c-93.81,5.72-123.56,12.58-203.65,48.05
		C2516.02,1522.87,2462.25,1530.88,2413.05,1511.43z"/>
	<path d="M3880.9,1270.03c-105.26-24.03-135-52.63-84.66-80.09c30.89-16.02,188.77-27.46,242.54-17.16
		c86.95,16.02,93.81,74.36,10.3,98.39C3998.74,1284.9,3943.83,1284.9,3880.9,1270.03z"/>
	<path d="M1789.53,1148.76c-37.75-5.72-51.48-30.89-30.89-54.92c26.31-32.03,137.29-13.73,137.29,22.88
		c0,16.02-46.91,42.33-66.36,38.9C1825,1154.48,1806.69,1151.04,1789.53,1148.76z"/>
	<path d="M2258.6,1072.1c-105.26-28.6-129.28-90.38-43.48-112.12c101.82-27.46,245.98,82.37,154.45,116.7
		C2334.11,1090.41,2327.25,1090.41,2258.6,1072.1z"/>
</g>
</svg>
