<?xml version="1.0" standalone="no"?>
<!DOCTYPE svg PUBLIC "-//W3C//DTD SVG 20010904//EN"
 "http://www.w3.org/TR/2001/REC-SVG-20010904/DTD/svg10.dtd">
<svg version="1.0" xmlns="http://www.w3.org/2000/svg"
 width="1024.000000pt" height="1024.000000pt" viewBox="0 0 1024.000000 1024.000000"
 preserveAspectRatio="xMidYMid meet">

<g transform="translate(0.000000,1024.000000) scale(0.100000,-0.100000)"
fill="#000000" stroke="none">
<path d="M3960 9980 c-388 -25 -670 -108 -1090 -316 -652 -325 -997 -603
-1288 -1040 -133 -199 -236 -425 -352 -774 -76 -228 -116 -378 -154 -580 -39
-209 -47 -297 -48 -535 -1 -258 15 -400 68 -615 82 -333 178 -555 359 -830
249 -377 556 -670 964 -920 507 -311 1204 -510 1787 -510 453 0 817 81 1175
260 68 35 78 38 83 22 37 -129 50 -164 74 -202 37 -58 97 -99 169 -116 74 -17
115 -17 181 0 29 7 52 10 52 7 -1 -3 -9 -31 -20 -61 -23 -67 -25 -158 -4 -208
34 -82 96 -120 231 -141 81 -13 140 -39 192 -86 69 -63 182 -259 385 -670 331
-669 511 -958 855 -1365 125 -148 494 -521 601 -607 135 -108 378 -273 470
-318 152 -76 258 -107 386 -113 141 -6 230 13 334 70 140 77 231 195 266 345
32 137 3 390 -72 614 -78 238 -366 662 -773 1139 -184 216 -412 432 -856 814
-457 392 -476 409 -582 519 -162 169 -234 290 -253 430 -22 156 -57 223 -143
279 -49 31 -56 33 -144 33 -51 0 -93 1 -93 2 0 1 7 30 16 64 21 82 13 155 -27
237 -34 71 -88 114 -166 134 -24 6 -43 13 -43 16 0 2 29 43 63 91 326 442 465
715 563 1104 78 312 110 583 101 876 -17 563 -165 996 -532 1551 -278 421
-459 611 -795 834 -652 434 -1259 611 -1940 566z m585 -699 c169 -30 341 -76
474 -128 464 -178 868 -490 1118 -863 215 -321 349 -770 369 -1235 30 -700
-319 -1564 -795 -1970 -286 -244 -692 -432 -1062 -494 -441 -73 -846 -47
-1291 84 -293 87 -628 253 -823 410 -275 220 -441 422 -588 712 -85 169 -129
284 -171 446 -135 520 -126 1016 25 1461 149 437 513 870 979 1164 378 237
730 369 1125 421 44 6 94 13 110 15 82 12 415 -3 530 -23z m3451 -6454 c98
-52 522 -458 801 -769 211 -234 359 -505 418 -759 25 -111 30 -227 12 -290
-21 -72 -44 -93 -88 -81 -50 12 -70 51 -134 249 -61 185 -138 354 -287 623
-140 252 -308 465 -662 837 -82 87 -146 174 -146 200 0 19 3 21 28 14 16 -5
41 -15 58 -24z"/>
<path d="M4328 9039 c-60 -9 -68 -15 -68 -45 0 -32 37 -54 148 -88 297 -92
571 -256 809 -483 197 -188 346 -371 466 -570 85 -142 104 -181 257 -524 71
-160 141 -306 155 -325 50 -66 98 -53 132 35 15 38 18 76 18 211 0 190 -16
270 -93 475 -105 282 -231 481 -437 694 -158 163 -428 354 -661 468 -112 55
-153 69 -285 98 -231 51 -357 67 -441 54z"/>
<path d="M2164 7818 c-98 -106 -224 -392 -272 -619 -68 -317 -50 -627 55 -950
56 -175 185 -421 288 -554 173 -222 420 -435 504 -435 50 0 33 46 -63 165
-274 337 -420 673 -501 1151 -66 390 -57 671 36 1086 32 143 32 188 1 188 -10
0 -32 -15 -48 -32z"/>
<path d="M6171 6727 c-35 -17 -59 -55 -78 -117 -20 -71 -31 -426 -14 -459 37
-68 129 36 181 204 26 85 37 234 21 292 -20 72 -63 104 -110 80z"/>
</g>
</svg>
