<?xml version="1.0" encoding="utf-8"?>
<!-- Generator: Adobe Illustrator 30.3.0, SVG Export Plug-In . SVG Version: 9.03 Build 0)  -->
<svg version="1.0" id="Calque_1" xmlns="http://www.w3.org/2000/svg" xmlns:xlink="http://www.w3.org/1999/xlink" x="0px" y="0px"
	 viewBox="0 0 1024 1024" style="enable-background:new 0 0 1024 1024;" xml:space="preserve">
<g transform="translate(0.000000,1024.000000) scale(0.100000,-0.100000)">
	<path d="M7438.24,8503.48c-2.42-2.42-126.92-21.76-276.8-43.51c-421.85-59.23-798.98-124.5-1387.63-241.75l-540.31-107.58
		l-290.1,42.31c-432.73,61.65-965.78,152.3-1426.31,240.54c-226.03,43.51-448.44,82.19-495.58,87.03
		c-70.11,4.83-132.96-3.63-362.62-48.35c-152.3-30.22-452.07-83.4-664.81-117.25c-599.54-96.7-1162.81-190.98-1266.76-212.74
		c-116.04-25.38-124.5-37.47-106.37-142.63c26.59-154.72,13.3-1596.75-22.97-2346.17c-82.19-1743-95.49-2117.71-102.74-3009.76
		c-4.83-601.95,1.21-872.71,19.34-901.72c10.88-16.92,83.4-8.46,790.52,99.12c219.99,33.84,537.89,79.78,707.11,101.53
		c378.34,51.98,519.76,73.73,652.72,105.16c159.55,36.26,108.79,41.1,1027.43-93.07c163.18-24.17,378.34-54.39,477.45-67.69
		c100.33-12.09,379.54-50.77,622.5-84.61l441.19-61.65l145.05,19.34c79.78,10.88,251.42,30.22,380.75,44.72
		c129.34,13.3,546.35,67.69,924.69,119.67c1057.65,147.47,970.62,139.01,1171.27,114.83c239.33-27.8,481.08-62.85,672.06-96.7
		c221.2-41.1,444.82-73.73,640.63-96.7c317.9-35.05,635.8-68.9,728.87-74.94c84.61-6.04,93.07-4.83,93.07,15.71
		c1.21,13.3,1.21,199.44,0,415.81c0,378.34-18.13,796.56-54.39,1293.35c-12.09,170.43-16.92,441.19-15.71,979.08
		c3.63,1865.09-1.21,2225.29-44.72,2979.55c-9.67,166.81-20.55,383.17-25.38,481.08c-9.67,217.57,0,207.9-219.99,239.33
		c-159.55,22.97-367.46,64.06-697.44,137.8c-182.52,39.89-381.96,74.94-1099.95,187.35
		C7551.86,8504.69,7451.53,8515.57,7438.24,8503.48z M3131.49,8230.31c194.61-36.26,255.04-44.72,494.37-72.52
		c257.46-30.22,441.19-62.85,806.23-143.84c433.94-96.7,745.79-158.34,800.19-158.34c70.11,0,311.85,35.05,829.2,119.67
		c242.96,39.89,525.8,83.4,628.54,97.91c273.18,37.47,397.68,56.81,580.2,91.86c204.28,38.68,222.41,37.47,767.55-49.56
		c233.29-37.47,488.33-78.57,568.11-90.66c79.78-13.3,293.72-39.89,476.24-60.44c181.31-20.55,372.29-43.51,423.06-51.98
		l91.86-15.71l8.46-205.49c3.63-112.41,15.71-271.97,25.38-355.37c27.8-227.24,49.56-857,39.89-1184.57
		c-4.83-155.93-13.3-488.33-19.34-737.33c-6.04-249-16.92-540.31-24.17-646.68c-7.25-114.83-9.67-323.94-4.83-514.92
		c6.04-236.91,4.83-323.94-6.04-329.99c-15.71-9.67-18.13-55.6-3.63-55.6c6.04,0,14.5-137.8,18.13-304.6
		c10.88-400.09,41.1-1035.89,56.81-1188.19c14.5-143.84,36.26-380.75,36.26-402.51c0-9.67-8.46-13.3-20.55-9.67
		c-12.09,3.63-146.26,29.01-299.77,55.6c-265.92,47.14-644.26,94.28-954.91,120.87c-79.78,6.04-160.76,15.71-180.1,19.34
		c-30.22,6.04-32.64,9.67-14.5,19.34c10.88,6.04,59.23,24.17,106.37,41.1c161.97,54.39,182.52,88.24,73.73,119.67
		c-38.68,10.88-76.15,25.38-83.4,31.43c-7.25,6.04-44.72,16.92-83.4,24.17s-82.19,20.55-96.7,30.22s-58.02,22.97-97.91,30.22
		c-38.68,6.04-84.61,21.76-101.53,33.84c-22.97,15.71-38.68,19.34-59.23,10.88c-16.92-6.04-100.33-15.71-186.15-22.97
		c-140.21-10.88-163.18-10.88-204.28,8.46c-43.51,19.34-48.35,19.34-100.33-1.21c-54.39-20.55-56.81-19.34-116.04,6.04
		c-58.02,24.17-64.06,25.38-153.51,7.25c-50.77-9.67-148.68-24.17-217.57-30.22c-103.95-9.67-141.42-19.34-221.2-56.81
		c-85.82-39.89-97.91-43.51-116.04-26.59c-24.17,20.55-122.08,42.31-224.83,50.77c-44.72,3.63-79.78,14.5-100.33,30.22
		c-37.47,29.01-93.07,32.64-139,8.46c-16.92-8.46-68.9-27.8-114.83-42.31s-106.37-37.47-135.38-51.98
		c-48.35-22.97-53.18-22.97-82.19-3.63c-29.01,18.13-33.84,18.13-80.99-1.21c-42.31-18.13-89.45-21.76-274.38-22.97
		c-123.29-1.21-239.33-6.04-259.88-9.67c-19.34-4.83-71.32-10.88-114.83-14.5c-171.64-13.3-221.2-26.59-336.03-88.24
		c-61.65-33.84-131.75-77.36-157.14-96.7c-90.66-71.32-117.25-78.57-250.21-71.32c-101.53,6.04-342.07,41.1-436.36,62.85
		c-19.34,3.63-22.97,13.3-19.34,44.72s-7.25,58.02-50.77,124.5c-60.44,90.66-71.32,147.47-36.26,197.02
		c10.88,15.71,15.71,35.05,12.09,44.72c-9.67,27.8-76.15-2.42-130.54-59.23c-42.31-42.31-47.14-54.39-43.51-94.28
		c4.83-51.98,4.83-50.77-29.01-32.64c-20.55,10.88-29.01,8.46-53.18-20.55c-36.26-41.1-36.26-45.93,4.83-74.94l32.64-24.17
		l-175.27,3.63c-96.7,1.21-209.11,10.88-250.21,19.34c-90.66,18.13-143.84,6.04-140.21-32.64c2.42-24.17,1.21-24.17-107.58-6.04
		c-107.58,16.92-114.83,16.92-280.43-14.5c-201.86-38.68-740.96-112.41-895.68-123.29c-59.23-3.63-160.76-12.09-223.62-19.34
		c-359-36.26-717.99-70.11-721.62-67.69c-1.21,2.42-12.09,140.21-21.76,305.81s-24.17,361.41-31.43,433.94
		c-15.71,152.3-4.83,385.59,43.51,924.69c54.39,606.79,66.48,1132.59,47.14,1970.25c-8.46,367.46,1.21,564.48,44.72,888.42
		c32.64,240.54,44.72,734.91,22.97,912.6c-8.46,70.11-19.34,204.28-22.97,298.56l-7.25,172.85l54.39,7.25
		c30.22,3.63,108.79,16.92,175.27,30.22c66.48,12.09,236.91,41.1,378.34,65.27c140.21,22.97,293.72,50.77,338.45,60.44
		c44.72,8.46,171.64,27.8,282.85,41.1c186.15,22.97,547.56,84.61,734.91,125.71C2933.26,8258.11,2980.4,8258.11,3131.49,8230.31z"/>
	<path d="M2915.13,8132.4c-9.67-15.71-26.59-70.11-37.47-119.67c-16.92-82.19-79.78-446.03-79.78-464.16
		c0-3.63,10.88-7.25,22.97-7.25c26.59,0,35.05,31.43,74.94,278.01c13.3,83.4,32.64,188.56,43.51,233.29
		C2959.85,8144.48,2947.77,8183.16,2915.13,8132.4z"/>
	<path d="M7518.01,7986.14c4.83-42.31,20.55-149.88,37.47-239.33c15.71-89.45,39.89-244.17,51.98-343.28
		c13.3-97.91,26.59-181.31,30.22-184.94c2.42-3.63,10.88-2.42,18.13,2.42c32.64,19.34,4.83,241.75-96.7,777.22
		c-8.46,42.31-18.13,62.85-30.22,62.85C7514.39,8061.08,7511.97,8047.79,7518.01,7986.14z"/>
	<path d="M5150.09,7720.22c-2.42-8.46-10.88-85.82-18.13-172.85c-55.6-638.21-64.06-852.16-31.43-852.16
		c9.67,0,18.13,7.25,18.13,16.92c0,32.64,36.26,525.8,54.39,730.08c22.97,267.13,22.97,292.52,0,292.52
		C5162.18,7734.72,5152.51,7727.47,5150.09,7720.22z"/>
	<path d="M4145.63,7618.68c-32.64-8.46-78.57-16.92-99.12-16.92c-24.17,0-49.56-9.67-64.06-24.17
		c-16.92-16.92-33.84-21.76-53.18-16.92c-20.55,4.83-32.64,0-41.1-14.5c-9.67-16.92-16.92-18.13-48.35-7.25
		c-50.77,16.92-143.84-6.04-236.91-59.23c-76.15-43.51-94.28-66.48-59.23-73.73c13.3-2.42-14.5-18.13-65.27-38.68
		c-85.82-32.64-111.2-60.44-70.11-74.94c10.88-4.83,15.71-15.71,12.09-29.01c-10.88-32.64,49.56-65.27,114.83-62.85
		c117.25,4.83,168.01-39.89,181.31-160.76c4.83-49.56,10.88-60.44,29.01-60.44c13.3,0,25.38-7.25,27.8-14.5
		c3.63-8.46-2.42-15.71-13.3-15.71c-29.01,0-22.97-20.55,10.88-43.51l30.22-19.34l-36.26-42.31
		c-43.51-48.35-43.51-65.27-10.88-174.06c31.43-103.95,66.48-155.93,119.67-182.52c73.73-36.26,80.99-31.43,139.01,91.86
		c49.56,107.58,55.6,113.62,96.7,120.87c26.59,4.83,65.27,27.8,94.28,54.39s68.9,49.56,93.07,54.39
		c60.44,10.88,132.96,51.98,171.64,96.7c41.1,47.14,41.1,56.81,3.63,101.53c-37.47,44.72-37.47,50.77-2.42,50.77
		c36.26,0,84.61,35.05,76.15,55.6c-3.63,9.67-1.21,16.92,4.83,16.92c15.71,0,15.71,48.35,0,72.52c-8.46,13.3-4.83,22.97,13.3,36.26
		l24.17,19.34l-25.38,32.64l-26.59,33.84l33.84,43.51c18.13,24.17,59.23,59.23,91.86,79.78c31.43,19.34,58.02,41.1,58.02,47.14
		c0,6.04-14.5,15.71-32.64,22.97c-32.64,13.3-85.82,6.04-153.51-20.55c-19.34-7.25-21.76-4.83-15.71,10.88
		c4.83,12.09,2.42,20.55-6.04,20.55c-10.88,0-10.88,3.63,0,14.5c24.17,24.17,16.92,42.31-18.13,49.56
		c-19.34,3.63-64.06,15.71-100.33,25.38C4314.85,7641.65,4227.82,7641.65,4145.63,7618.68z M4459.9,7529.24
		c-3.63-6.04-14.5-12.09-21.76-12.09c-8.46,0-7.25,4.83,3.63,12.09C4464.74,7543.74,4469.57,7543.74,4459.9,7529.24z
		 M4441.77,6929.7c0-2.42-8.46-4.83-18.13-4.83s-18.13,4.83-18.13,12.09c0,6.04,8.46,8.46,18.13,4.83
		C4433.31,6936.95,4441.77,6932.12,4441.77,6929.7z"/>
	<path d="M3329.73,7590.88c-49.56-4.83-110-14.5-132.96-21.76s-68.9-19.34-102.74-27.8c-32.64-7.25-65.27-18.13-71.32-24.17
		c-14.5-14.5,37.47-72.52,65.27-72.52c14.5,0,19.34-10.88,19.34-42.31c0-26.59-6.04-42.31-15.71-42.31
		c-8.46,0-15.71,9.67-15.71,21.76c0,26.59-84.61,111.2-111.2,111.2c-12.09,0-35.05-19.34-53.18-42.31
		c-30.22-39.89-31.43-44.72-12.09-65.27c10.88-10.88,19.34-27.8,19.34-36.26c0-26.59,54.39-42.31,97.91-26.59
		c50.77,18.13,55.6,10.88,16.92-30.22c-43.51-47.14-35.05-70.11,30.22-79.78c94.28-14.5,165.6-10.88,181.31,8.46
		c7.25,9.67,10.88,22.97,6.04,30.22c-3.63,6.04,10.88,22.97,33.84,36.26c22.97,13.3,47.14,37.47,54.39,54.39
		s22.97,30.22,33.84,30.22s53.18,19.34,94.28,44.72c201.86,120.87,218.78,137.8,157.14,160.76
		C3579.94,7594.51,3437.31,7601.76,3329.73,7590.88z"/>
	<path d="M7032.1,7468.8c-21.76-13.3-39.89-31.43-39.89-42.31c0-27.8,90.66-80.99,152.3-88.24l54.39-6.04l-3.63,41.1
		c-2.42,29.01-10.88,42.31-30.22,47.14c-14.5,3.63-37.47,20.55-51.98,39.89C7081.66,7499.02,7081.66,7499.02,7032.1,7468.8z"/>
	<path d="M5422.06,7445.83c-9.67-6.04-13.3-19.34-9.67-30.22c4.83-10.88,2.42-19.34-3.63-19.34c-7.25,0-12.09,4.83-12.09,10.88
		c0,12.09-132.96,9.67-153.51-2.42c-21.76-13.3-2.42-70.11,27.8-83.4c15.71-7.25,29.01-22.97,29.01-35.05
		c0-24.17,43.51-59.23,72.52-59.23c9.67,0,29.01,19.34,42.31,43.51c22.97,43.51,24.17,43.51,39.89,18.13
		c19.34-29.01,65.27-33.84,85.82-8.46c10.88,13.3,4.83,24.17-31.43,54.39l-45.93,37.47h51.98c93.07,0,141.42,53.18,60.44,65.27
		C5469.2,7453.09,5437.77,7455.5,5422.06,7445.83z"/>
	<path d="M2660.09,7373.31c-12.09-18.13,24.17-51.98,71.32-68.9c49.56-16.92,71.32-6.04,58.02,27.8
		C2776.12,7367.26,2675.8,7399.9,2660.09,7373.31z"/>
	<path d="M7221.87,7355.18c-27.8-30.22-26.59-67.69,2.42-67.69c38.68,0,106.37,26.59,106.37,41.1c0,16.92-49.56,55.6-70.11,55.6
		C7254.51,7384.19,7237.59,7370.89,7221.87,7355.18z"/>
	<path d="M2505.37,7351.55c-25.38-6.04-29.01-27.8-6.04-29.01c7.25,0,1.21-6.04-14.5-12.09c-27.8-10.88-27.8-13.3-10.88-31.43
		c24.17-22.97,58.02-13.3,66.48,20.55c3.63,13.3,10.88,24.17,16.92,24.17s10.88,8.46,10.88,18.13
		C2568.22,7360.01,2547.67,7362.43,2505.37,7351.55z"/>
	<path d="M2817.22,7349.13c-10.88-16.92,4.83-48.35,30.22-62.85c45.93-24.17,64.06,18.13,25.38,53.18
		C2847.44,7362.43,2826.89,7366.06,2817.22,7349.13z"/>
	<path d="M2305.92,7269.36c-99.12-45.93-82.19-96.7,20.55-60.44c70.11,24.17,101.53,51.98,83.4,74.94
		C2390.54,7305.62,2378.45,7304.41,2305.92,7269.36z"/>
	<path d="M7238.79,7245.18c-33.84-37.47-44.72-42.31-97.91-42.31c-99.12,0-221.2-50.77-221.2-90.66c0-8.46-21.76-18.13-48.35-22.97
		c-53.18-8.46-58.02-18.13-29.01-61.65c22.97-35.05,16.92-37.47-33.84-10.88c-35.05,18.13-38.68,18.13-53.18,0
		c-12.09-18.13-14.5-18.13-20.55,4.83c-8.46,33.84-30.22,30.22-47.14-6.04l-14.5-31.43l-15.71,37.47
		c-12.09,31.43-20.55,37.47-48.35,33.84c-20.55-2.42-38.68-14.5-47.14-31.43c-7.25-15.71-20.55-35.05-27.8-42.31
		c-14.5-14.5-18.13-60.44-4.83-73.73c4.83-4.83,10.88-42.31,12.09-82.19c3.63-70.11,1.21-74.94-44.72-128.13l-48.35-54.39
		l7.25-93.07c4.83-61.65,2.42-108.79-7.25-137.8c-13.3-41.1-12.09-47.14,10.88-68.9c30.22-27.8,29.01-25.38,10.88-65.27
		c-12.09-26.59-9.67-35.05,19.34-65.27c21.76-22.97,32.64-44.72,29.01-62.85c-3.63-29.01-6.04-29.01-120.87-25.38
		c-113.62,3.63-117.25,3.63-136.59-26.59c-18.13-27.8-18.13-31.43,9.67-76.15c47.14-71.32,49.56-91.86,14.5-124.5
		c-38.68-36.26-37.47-49.56,2.42-97.91c19.34-22.97,31.43-50.77,30.22-66.48c-2.42-14.5,2.42-30.22,8.46-35.05
		c20.55-12.09,15.71-78.57-6.04-87.03c-9.67-3.63-31.43,0-48.35,8.46c-24.17,13.3-29.01,25.38-29.01,67.69
		c0,31.43-12.09,76.15-31.43,113.62c-36.26,71.32-32.64,108.79,13.3,132.96c36.26,19.34,37.47,29.01,6.04,68.9
		c-31.43,41.1-30.22,79.78,3.63,118.46c32.64,38.68,106.37,50.77,189.77,31.43c71.32-15.71,87.03,0,37.47,41.1
		c-38.68,33.84-47.14,64.06-24.17,87.03c16.92,16.92,3.63,39.89-21.76,39.89c-15.71,0-16.92,7.25-8.46,39.89
		c6.04,20.55,10.88,96.7,10.88,168.02v128.13l50.77,62.85c43.51,53.18,49.56,67.69,43.51,100.33
		c-13.3,70.11-24.17,80.99-82.19,80.99c-45.93,0-54.39-3.63-54.39-24.17c0-20.55-8.46-24.17-50.77-25.38
		c-29.01-1.21-64.06,0-78.57,1.21c-30.22,2.42-129.34-38.68-141.42-59.23c-14.5-22.97-33.84-14.5-25.38,9.67
		c4.83,16.92,0,27.8-18.13,37.47c-33.84,18.13-48.35,6.04-48.35-42.31c0-31.43-6.04-41.1-29.01-47.14
		c-15.71-3.63-37.47-20.55-48.35-37.47c-14.5-22.97-27.8-29.01-44.72-24.18c-14.5,4.83-25.38,1.21-30.22-12.09
		c-9.67-22.97-35.05-4.83-44.72,31.43c-6.04,21.76-2.42,22.97,43.51,16.92c41.1-6.04,55.6-2.42,77.36,16.92
		c14.5,14.5,24.17,33.84,20.55,43.51c-9.67,22.97-102.74,79.78-180.1,108.79c-32.64,13.3-68.9,32.64-78.57,42.31
		c-25.38,25.38-122.08,30.22-172.85,8.46c-20.55-9.67-55.6-24.17-76.15-31.43c-20.55-8.46-44.72-29.01-54.39-44.72
		c-8.46-16.92-25.38-36.26-37.47-42.31c-12.09-6.04-48.35-51.98-82.19-101.53c-33.84-49.56-65.27-90.66-70.11-90.66
		s-29.01-19.34-53.18-42.31c-41.1-37.47-45.93-47.14-45.93-102.74c0-105.16,35.05-137.8,102.74-96.7l38.68,24.17l19.34-49.56
		c15.71-38.68,16.92-54.39,4.83-71.32c-7.25-13.3-8.46-27.8-3.63-32.64c6.04-4.83,13.3-3.63,15.71,3.63
		c2.42,8.46,14.5,12.09,25.38,8.46c24.17-6.04,87.03,38.68,87.03,61.65c0,8.46,13.3,39.89,29.01,70.11
		c29.01,54.39,29.01,55.6,7.25,88.24c-25.38,39.89-21.76,56.81,29.01,116.04c20.55,22.97,43.51,53.18,49.56,64.06
		c7.25,12.09,22.97,20.55,33.84,18.13c19.34-4.83,18.13-10.88-14.5-59.23c-43.51-64.06-48.35-119.67-13.3-151.09
		c19.34-16.92,35.05-19.34,84.61-13.3c38.68,4.83,60.44,3.63,60.44-4.83c0-6.04-15.71-12.09-35.05-12.09s-47.14-9.67-62.85-22.97
		c-22.97-19.34-25.38-25.38-13.3-41.1c9.67-10.88,10.88-21.76,3.63-25.38c-6.04-4.83-14.5-2.42-19.34,4.83
		c-12.09,20.55-29.01,2.42-42.31-48.35c-12.09-43.51-16.92-47.14-73.73-59.23c-32.64-7.25-84.61-13.3-113.62-13.3h-54.39v60.44
		c0,67.69-14.5,76.15-58.02,36.26c-14.5-14.5-26.59-26.59-26.59-27.8c0-1.21,4.83-20.55,10.88-42.31
		c10.88-36.26,9.67-41.1-20.55-51.98c-18.13-7.25-60.44-41.1-95.49-77.36c-58.02-60.44-143.84-114.83-181.31-114.83
		c-27.8,0-16.92-48.35,13.3-59.23c45.93-18.13,59.23-80.99,22.97-116.04c-14.5-15.71-31.43-18.13-72.52-12.09
		c-94.28,14.5-100.33,7.25-100.33-114.83v-106.37l43.51-25.38l43.51-25.38l-49.56-56.81c-27.8-30.22-54.39-74.94-61.65-99.12
		c-6.04-25.38-32.64-65.27-61.65-91.86c-85.82-84.61-136.59-205.49-117.25-282.85c9.67-37.47,8.46-60.44-6.04-103.95
		c-22.97-64.06-18.13-79.78,47.14-182.52c96.7-154.72,151.09-188.56,284.05-177.69c49.56,3.63,103.95,14.5,122.08,22.97
		c45.93,22.97,78.57,20.55,106.37-7.25c13.3-13.3,35.05-24.17,49.56-24.17c13.3,0,35.05-6.04,48.35-13.3
		c21.76-10.88,22.97-20.55,15.71-94.28c-7.25-80.99-6.04-83.4,36.26-145.05c66.48-97.91,87.03-206.69,50.77-276.8
		c-8.46-18.13-20.55-58.02-24.17-89.45c-7.25-47.14-3.63-70.11,21.76-126.92c16.92-38.68,38.68-108.79,48.35-154.72
		c9.67-47.14,31.43-114.83,48.35-151.09s31.43-80.99,31.43-97.91c0-18.13,9.67-44.72,21.76-58.02
		c19.34-25.38,24.17-26.59,111.2-12.09c49.56,7.25,108.79,25.38,130.54,37.47c45.93,27.8,141.42,157.14,154.72,209.11
		c4.83,20.55,25.38,51.98,44.72,70.11c32.64,30.22,35.05,37.47,29.01,94.28l-7.25,60.44l72.52,72.52l73.73,71.32l-7.25,88.24
		c-3.63,47.14-9.67,120.87-14.5,161.97c-7.25,66.48-4.83,80.99,22.97,126.92c16.92,29.01,67.69,89.45,111.2,134.17
		c83.4,85.82,157.14,217.57,165.6,292.52l3.63,36.26l-60.44-4.83c-172.85-13.3-192.19,1.21-62.85,49.56
		c174.06,66.48,322.73,190.98,322.73,270.76c0,15.71-20.55,43.51-55.6,71.32c-30.22,24.17-51.98,47.14-49.56,50.77
		c3.63,2.42,35.05-3.63,70.11-13.3c35.05-10.88,91.86-19.34,125.71-19.34c53.18,0,66.48-4.83,95.49-35.05
		c19.34-20.55,41.1-48.35,48.35-64.06c9.67-19.34,26.59-29.01,53.18-31.43c35.05-3.63,38.68-7.25,38.68-45.93
		c0-22.97,25.38-110,55.6-192.19c48.35-129.34,60.44-151.09,83.4-151.09c43.51,0,74.94,49.56,84.61,134.17
		c8.46,74.94,10.88,79.78,95.49,168.01c96.7,101.53,97.91,102.74,143.84,113.62c20.55,4.83,32.64,2.42,32.64-6.04
		c0-7.25,16.92-32.64,36.26-55.6c20.55-21.76,36.26-53.18,36.26-67.69c0-39.89,18.13-61.65,45.93-54.39
		c30.22,8.46,45.93-27.8,58.02-139c3.63-42.31,22.97-106.37,42.31-148.68c19.34-41.1,35.05-78.57,35.05-83.4
		s-19.34,8.46-42.31,29.01c-76.15,66.48-140.21,37.47-74.94-33.84c15.71-18.13,60.44-82.19,99.12-143.84
		c68.9-111.2,113.62-157.14,137.8-141.42c7.25,3.63,9.67,0,6.04-9.67c-9.67-26.59,25.38-45.93,114.83-64.06
		c161.97-30.22,357.79-30.22,327.57,0c-3.63,2.42-44.72,8.46-90.66,10.88c-51.98,3.63-103.95,15.71-135.38,31.43
		c-27.8,14.5-62.85,25.38-78.57,25.38c-15.71,0-47.14,3.63-70.11,7.25c-39.89,7.25-43.51,9.67-38.68,44.72
		c2.42,30.22-7.25,54.39-49.56,112.41c-48.35,65.27-50.77,72.52-27.8,72.52c15.71-1.21,24.17,6.04,22.97,16.92
		c-8.46,59.23-24.17,95.49-65.27,154.72c-48.35,67.69-62.85,136.59-32.64,154.72c13.3,8.46,22.97-1.21,88.24-84.61l27.8-36.26
		l55.6,45.93c49.56,41.1,55.6,50.77,55.6,96.7c0,37.47-10.88,67.69-42.31,116.04c-47.14,74.94-51.98,102.74-19.34,119.67
		c29.01,15.71,37.47,6.04,30.22-35.05c-4.83-18.13-1.21-36.26,4.83-41.1c24.17-14.5,49.56,7.25,53.18,44.72
		c3.63,33.84,13.3,43.51,88.24,80.99c74.94,38.68,89.45,51.98,125.71,114.83c53.18,94.28,55.6,158.34,9.67,246.58l-33.84,65.27
		l33.84,35.05c27.8,29.01,30.22,36.26,15.71,45.93c-9.67,6.04-31.43,12.09-48.35,12.09c-54.39,1.21-64.06,16.92-30.22,48.35
		l30.22,27.8v-26.59c0-26.59,7.25-27.8,68.9-4.83c7.25,2.42,16.92-7.25,21.76-22.97c4.83-15.71,19.34-37.47,31.43-49.56
		c13.3-12.09,22.97-37.47,22.97-58.02c0-44.72,26.59-56.81,66.48-30.22c38.68,25.38,39.89,74.94,1.21,126.92l-29.01,39.89
		l29.01,42.31c15.71,24.17,29.01,48.35,29.01,53.18c0,6.04,15.71,10.88,35.05,10.88c26.59,0,44.72,10.88,66.48,39.89
		c47.14,61.65,91.86,166.81,93.07,219.99c0,61.65,15.71,27.8,29.01-64.06c8.46-64.06,31.43-90.66,55.6-66.48
		c8.46,8.46,7.25,24.17-3.63,45.93c-12.09,26.59-12.09,35.05,0,39.89c19.34,6.04,18.13,39.89-2.42,68.9
		c-9.67,13.3-24.17,48.35-32.64,78.57c-8.46,30.22-20.55,61.65-26.59,68.9c-15.71,20.55-32.64,8.46-32.64-22.97v-26.59l-25.38,27.8
		c-15.71,16.92-36.26,25.38-55.6,22.97s-36.26,4.83-43.51,16.92c-10.88,15.71-3.63,33.84,32.64,88.24
		c25.38,36.26,58.02,68.9,72.52,72.52c66.48,13.3,170.43,15.71,190.98,4.83c39.89-21.76,88.24-2.42,101.53,39.89
		c14.5,51.98,43.51,67.69,82.19,47.14c25.38-14.5,33.84-14.5,51.98,0c10.88,9.67-8.46-24.17-43.51-74.94
		c-72.53-105.16-73.73-118.46-16.92-244.17c38.68-82.19,59.23-85.82,94.28-13.3c13.3,27.8,30.22,58.02,37.47,66.48
		c26.59,32.64,31.43,91.86,10.88,131.75c-21.76,42.31-15.71,78.57,10.88,68.9c9.67-3.63,29.01,1.21,42.31,12.09
		c14.5,9.67,38.68,15.71,51.98,12.09c18.13-4.83,42.31,7.25,82.19,41.1c39.89,32.64,67.69,47.14,94.28,47.14
		c47.14,0,51.98,26.59,13.3,68.9c-56.81,59.23,29.01,78.57,116.04,25.38c20.55-12.09,39.89-21.76,44.72-21.76
		c14.5,0,59.23,88.24,53.18,105.16c-3.63,8.46-19.34,20.55-33.84,27.8c-15.71,6.04-90.66,38.68-168.01,71.32
		c-217.57,95.49-337.24,116.04-337.24,60.44c0-22.97-1.21-22.97-38.68-3.63c-26.59,13.3-56.81,18.13-99.12,13.3
		c-55.6-4.83-66.48-1.21-101.53,29.01c-33.84,30.22-49.56,35.05-113.62,35.05c-50.77,0-84.61,7.25-111.2,22.97
		c-38.68,24.17-152.3,49.56-218.78,49.56c-22.97,0-44.72-9.67-58.02-25.38c-18.13-20.55-33.84-24.17-90.66-21.76
		c-37.47,2.42-74.94,0-83.4-4.83c-20.55-13.3-64.06,16.92-72.52,49.56c-3.63,14.5-15.71,32.64-27.8,38.68
		c-30.22,15.71-112.41,15.71-129.33-1.21c-9.67-9.67-25.38-9.67-60.44,2.42c-25.38,8.46-90.66,15.71-145.05,16.92H7487.8
		l43.51,37.47c39.89,32.64,42.31,39.89,30.22,62.85c-19.34,36.26-50.77,50.77-110,50.77c-32.64,0-61.65,8.46-80.99,24.17
		C7323.41,7299.58,7282.31,7293.53,7238.79,7245.18z M6726.29,6828.17c0-22.97-32.64-72.52-48.35-72.52
		c-6.04,0-2.42,14.5,7.25,33.84s14.5,47.14,9.67,68.9c-7.25,35.05-6.04,35.05,12.09,12.09
		C6716.62,6857.18,6726.29,6837.84,6726.29,6828.17z M5905.55,5917.98c-9.67-25.38-4.83-33.84,48.35-73.73
		c95.49-71.32,72.52-106.37-47.14-70.11c-58.02,18.13-78.57,19.34-131.75,7.25c-35.05-7.25-66.48-10.88-70.11-7.25
		c-21.76,21.76,29.01,147.47,60.44,147.47c9.67,0,22.97-10.88,30.22-25.38c20.55-37.47,77.36-26.59,82.19,16.92
		c2.42,18.13,10.88,32.64,20.55,32.64C5911.6,5945.79,5912.81,5938.53,5905.55,5917.98z M5412.39,5809.2
		c31.43-30.22,56.81-60.44,56.81-67.69c0-19.34-103.95,55.6-132.96,95.49C5286.68,5905.9,5320.52,5893.81,5412.39,5809.2z
		 M5234.7,5806.78c10.88-15.71,27.8-32.64,38.68-36.26c30.22-8.46,99.12-77.36,99.12-96.7c0-8.46-14.5-18.13-32.64-20.55
		c-43.51-4.83-47.14-26.59-7.25-44.72c29.01-13.3,35.05-12.09,54.39,13.3c12.09,15.71,25.38,39.89,29.01,54.39
		c3.63,14.5,18.13,27.8,32.64,30.22c20.55,2.42,33.84-9.67,59.23-56.81c16.92-32.64,38.68-61.65,48.35-64.06
		c24.17-4.83,50.77,64.06,35.05,91.86c-7.25,13.3-8.46,26.59-4.83,31.43c19.34,18.13,37.47,3.63,50.77-41.1
		c19.34-64.06,58.02-88.24,155.93-94.28c44.72-2.42,83.4-6.04,85.82-9.67c8.46-7.25-25.38-113.62-38.68-122.08
		c-24.17-14.5-183.73-6.04-236.91,13.3c-72.52,26.59-94.28,24.17-117.25-10.88c-24.17-37.47-35.05-37.47-91.86,1.21
		c-25.38,18.13-62.85,35.05-84.61,39.89c-37.47,7.25-39.89,12.09-45.93,67.69l-6.04,60.44l-102.74-1.21
		c-73.73-1.21-120.87-8.46-166.81-27.8c-64.06-25.38-142.63-35.05-130.54-14.5c3.63,4.83,22.97,13.3,42.31,16.92
		c47.14,9.67,84.61,47.14,94.28,94.28c3.63,19.34,19.34,44.72,33.84,56.81s32.64,32.64,41.1,48.35
		c10.88,19.34,25.38,26.59,55.6,26.59c21.76,0,44.72,6.04,48.35,12.09C5186.35,5845.46,5214.15,5838.21,5234.7,5806.78z
		 M6295.98,5322.08c19.34-24.17,54.39-51.98,77.36-61.65l43.51-18.13l-30.22-22.97c-31.43-24.17-59.23-30.22-59.23-12.09
		c0,7.25-14.5,27.8-31.43,45.93c-47.14,50.77-68.9,85.82-59.23,100.33C6248.84,5372.84,6258.51,5368.01,6295.98,5322.08z
		 M5923.69,5224.17c45.93-82.19,74.94-134.17,131.75-241.75c16.92-30.22,30.22-70.11,30.22-85.82c0-29.01-1.21-30.22-24.17-8.46
		c-37.47,33.84-96.7,132.96-111.2,183.73c-6.04,25.38-30.22,83.4-53.18,129.33c-35.05,70.11-42.31,103.95-22.97,103.95
		C5876.54,5305.15,5898.3,5268.89,5923.69,5224.17z"/>
	<path d="M5187.56,5749.97c-6.04-43.51,13.3-82.19,29.01-56.81c4.83,8.46,4.83,26.59,0,39.89c-6.04,14.5-7.25,32.64-4.83,41.1
		c3.63,7.25,0,14.5-6.04,14.5C5199.65,5788.65,5191.19,5770.52,5187.56,5749.97z"/>
	<path d="M2831.73,7256.06c-18.13-16.92-9.67-29.01,32.64-45.93c31.43-13.3,42.31-25.38,42.31-47.14
		c0-37.47,19.34-42.31,158.34-45.93c112.41-2.42,131.75,2.42,131.75,37.47c0,29.01-22.97,36.26-118.46,36.26
		c-71.32,0-83.4,3.63-105.16,30.22C2948.97,7252.43,2851.07,7276.61,2831.73,7256.06z"/>
	<path d="M2516.25,7224.63c-14.5-22.97-21.76-25.38-33.84-12.09c-19.34,18.13-65.27,19.34-99.12,1.21
		c-48.35-25.38-53.18-59.23-8.46-59.23c12.09,0,24.17-8.46,29.01-18.13c7.25-20.55,39.89-22.97,102.74-6.04
		c24.17,6.04,58.02,14.5,77.36,18.13c25.38,4.83,32.64,13.3,32.64,36.26c0,18.13-7.25,30.22-16.92,30.22s-19.34,8.46-24.17,18.13
		C2565.8,7259.69,2538,7254.85,2516.25,7224.63z"/>
	<path d="M2719.31,7236.72c-66.48-24.17-66.48-56.81,0-80.99c48.35-16.92,62.85-10.88,79.78,32.64c9.67,25.38,8.46,35.05-8.46,47.14
		C2766.45,7253.64,2767.66,7253.64,2719.31,7236.72z"/>
	<path d="M6405.97,7222.22c-120.87-45.93-136.59-56.81-180.1-120.87c-61.65-93.07-64.06-108.79-15.71-145.05
		c41.1-31.43,105.16-42.31,105.16-19.34c0,7.25-8.46,26.59-19.34,42.31c-10.88,16.92-15.71,39.89-10.88,53.18
		c12.09,37.47,107.58,116.04,171.64,140.21c68.9,25.38,88.24,39.89,88.24,61.65C6544.98,7259.69,6489.38,7253.64,6405.97,7222.22z"
		/>
	<path d="M8083.7,7182.33c-14.5-36.26,38.68-64.06,102.74-55.6c64.06,7.25,80.99,18.13,71.32,43.51
		C8244.47,7205.29,8097,7216.17,8083.7,7182.33z"/>
	<path d="M2835.35,7179.91c-22.97-14.5-7.25-49.56,21.76-49.56c31.43,0,43.51,20.55,25.38,42.31
		C2865.57,7193.21,2858.32,7194.42,2835.35,7179.91z"/>
	<path d="M8297.65,7161.78c0-35.05,85.82-59.23,103.95-30.22c10.88,18.13-6.04,31.43-58.02,39.89
		C8307.32,7178.7,8297.65,7176.28,8297.65,7161.78z"/>
	<path d="M2172.96,7135.19c-8.46-3.63-15.71-14.5-15.71-25.38c0-9.67-10.88-33.84-25.38-53.18c-24.17-33.84-24.17-37.47-4.83-66.48
		c27.8-43.51,50.77-48.35,91.86-18.13c39.89,30.22,60.44,25.38,50.77-10.88c-3.63-13.3,0-24.17,7.25-24.17s13.3-13.3,13.3-30.22
		c0-21.76,6.04-30.22,24.17-30.22c13.3,0,27.8-8.46,31.43-18.13c4.83-12.09,24.17-18.13,60.44-18.13c37.47,0,53.18-4.83,53.18-16.92
		c0-13.3-12.09-14.5-56.81-6.04c-31.43,6.04-59.23,15.71-62.85,21.76c-12.09,16.92-210.32,76.15-235.7,68.9
		c-13.3-3.63-33.84,2.42-44.72,12.09c-13.3,12.09-22.97,14.5-29.01,6.04c-3.63-7.25-20.55-13.3-36.26-13.3
		c-16.92,0-58.02-10.88-93.07-24.17c-59.23-21.76-67.69-22.97-118.46-6.04c-30.22,9.67-124.5,31.43-211.53,48.35
		c-188.56,38.68-252.63,33.84-346.91-21.76c-35.05-21.76-79.78-45.93-97.91-55.6c-39.89-21.76-41.1-30.22-3.63-66.48l27.8-29.01
		l-43.51-7.25c-24.17-4.83-54.39-15.71-66.48-25.38c-21.76-15.71-21.76-19.34-3.63-47.14c14.5-21.76,32.64-31.43,65.27-33.84
		l45.93-3.63l-66.48-36.26c-62.85-35.05-66.48-38.68-66.48-84.61c-1.21-50.77,13.3-83.4,31.43-71.32
		c6.04,3.63,15.71-7.25,22.97-24.17c8.46-22.97,20.55-31.43,42.31-31.43c59.23,0,29.01-35.05-83.4-99.12
		c-66.48-37.47-99.12-70.11-68.9-70.11s151.09,53.18,206.69,91.86c67.69,45.93,74.94,48.35,65.27,22.97
		c-4.83-9.67-1.21-18.13,4.83-18.13c14.5,0,31.43,22.97,32.64,42.31c0,18.13,45.93,90.66,56.81,90.66c4.83,0,6.04-8.46,2.42-18.13
		c-4.83-9.67-1.21-18.13,6.04-18.13c20.55,0,79.78,31.43,95.49,51.98c13.3,15.71,25.38,13.3,90.66-12.09
		c168.01-65.27,188.56-80.99,246.58-190.98c27.8-53.18,50.77-106.37,51.98-118.46c0-13.3,10.88-36.26,24.17-53.18
		c30.22-38.68,32.64-130.54,6.04-216.36c-9.67-32.64-18.13-90.66-18.13-128.13c0-88.24,45.93-218.78,89.45-252.63
		c32.64-25.38,54.39-67.69,87.03-170.43c10.88-31.43,29.01-65.27,42.31-77.36c12.09-10.88,22.97-27.8,22.97-35.05
		c0-16.92,58.02-78.57,73.73-78.57c20.55,0,10.88,49.56-24.17,118.46c-59.23,117.25-54.39,134.17,7.25,31.43
		c32.64-54.39,71.32-113.62,85.82-131.75c14.5-18.13,26.59-49.56,26.59-68.9c0-24.17,12.09-47.14,35.05-67.69
		c47.14-44.72,184.94-111.2,229.66-111.2c19.34,0,39.89-6.04,43.51-12.09c4.83-7.25,43.51-29.01,85.82-48.35
		c61.65-27.8,82.19-43.51,94.28-74.94c27.8-65.27,137.8-132.96,171.64-105.16c54.39,44.72,56.81-85.82,3.63-178.89
		c-30.22-51.98-38.68-83.4-42.31-151.09c-3.63-62.85-1.21-90.66,12.09-105.16c8.46-10.88,39.89-65.27,67.69-122.08
		c37.47-77.36,70.11-122.08,129.34-178.89l79.78-77.36l-8.46-230.87c-4.83-128.13-13.3-256.25-19.34-286.47
		c-15.71-79.78-14.5-246.58,2.42-263.51c10.88-10.88,10.88-25.38,0-61.65c-18.13-59.23-2.42-183.73,31.43-250.21
		c14.5-29.01,49.56-65.27,89.45-91.86c79.78-53.18,106.37-61.65,148.68-45.93l32.64,12.09l-56.81,61.65
		c-49.56,53.18-55.6,65.27-49.56,99.12c3.63,20.55,18.13,49.56,31.43,62.85c30.22,32.64,30.22,61.65,0,80.99
		c-29.01,18.13-31.43,41.1-6.04,50.77c24.17,8.46,54.39,82.19,39.89,100.33c-7.25,9.67-2.42,15.71,14.5,21.76
		c14.5,4.83,27.8,21.76,32.64,42.31c4.83,25.38,15.71,37.47,39.89,42.31c67.69,14.5,107.58,87.03,70.11,124.5
		c-10.88,10.88-4.83,14.5,30.22,14.5c39.89,0,47.14,6.04,85.82,65.27c65.27,101.53,91.86,159.55,91.86,199.44
		c0,44.72,25.38,70.11,102.74,105.16c55.6,24.17,65.27,33.84,94.28,97.91c16.92,38.68,35.05,105.16,38.68,148.68
		c6.04,61.65,16.92,91.86,50.77,142.63c53.18,77.36,66.48,158.34,32.64,188.56c-45.93,41.1-113.62,78.57-158.34,87.03
		c-25.38,4.83-70.11,20.55-100.33,35.05s-68.9,30.22-87.03,35.05c-25.38,6.04-33.84,14.5-33.84,37.47
		c0,16.92-13.3,51.98-30.22,78.57c-22.97,37.47-44.72,51.98-101.53,72.52c-48.35,18.13-89.45,44.72-129.34,84.61
		c-53.18,53.18-60.44,56.81-120.87,56.81c-36.26,0-76.15,8.46-91.86,18.13c-71.32,45.93-125.71,36.26-205.49-36.26
		c-27.8-25.38-36.26-27.8-51.98-14.5c-10.88,9.67-32.64,12.09-55.6,7.25c-55.6-10.88-71.32,8.46-71.32,89.45
		c0,79.78-21.76,108.79-82.19,108.79c-21.76,0-38.68,2.42-38.68,6.04c0,2.42,8.46,36.26,18.13,73.73
		c9.67,37.47,14.5,73.73,10.88,78.57c-3.63,6.04-22.97,10.88-42.31,10.88c-27.8,0-41.1-8.46-56.81-36.26
		c-36.26-64.06-120.87-64.06-147.47,0c-10.88,25.38-13.3,62.85-7.25,114.83c9.67,99.12,12.09,103.95,59.23,135.38
		c32.64,22.97,45.93,25.38,87.03,15.71c39.89-8.46,50.77-7.25,67.69,10.88c18.13,19.34,29.01,20.55,79.78,10.88
		c56.81-10.88,60.44-14.5,73.73-61.65c18.13-67.69,42.31-99.12,67.69-89.45c19.34,7.25,20.55,20.55,13.3,116.04l-8.46,106.37
		l56.81,41.1c51.98,37.47,90.66,88.24,90.66,118.46c0,33.84,78.57,136.59,116.04,152.3c31.43,12.09,41.1,24.17,41.1,47.14
		c0,21.76,13.3,36.26,53.18,59.23c35.05,19.34,51.98,24.17,47.14,13.3c-16.92-44.72,97.91-14.5,140.21,36.26
		c19.34,22.97,8.46,43.51-20.55,36.26c-33.84-8.46-56.81,15.71-56.81,58.02c0,31.43-6.04,39.89-30.22,47.14
		c-39.89,9.67-14.5,19.34,77.36,27.8c38.68,2.42,77.36,12.09,83.4,18.13c7.25,7.25,20.55,13.3,29.01,13.3s0-22.97-22.97-55.6
		c-42.31-64.06-37.47-71.32,48.35-84.61c27.8-3.63,54.39-12.09,56.81-18.13c3.63-4.83,14.5-7.25,24.17-2.42
		c26.59,9.67,21.76,72.52-8.46,102.74c-20.55,20.55-25.38,38.68-22.97,82.19c2.42,41.1-3.63,61.65-21.76,83.4
		c-14.5,15.71-25.38,32.64-25.38,37.47s-13.3,15.71-30.22,24.17c-19.34,10.88-35.05,33.84-43.51,65.27
		c-16.92,61.65-55.6,140.21-70.11,140.21c-6.04,0-19.34-14.5-30.22-31.43c-30.22-43.51-70.11-35.05-80.99,18.13
		c-4.83,21.76-25.38,55.6-47.14,76.15c-33.84,30.22-47.14,35.05-94.28,31.43c-53.18-3.63-56.81-6.04-66.48-45.93
		c-4.83-22.97-14.5-60.44-20.55-82.19c-6.04-24.17-6.04-54.39,1.21-74.94c13.3-37.47,2.42-68.9-38.68-110
		c-14.5-14.5-22.97-39.89-22.97-70.11c0-26.59-4.83-50.77-10.88-54.39c-19.34-12.09-41.1,29.01-39.89,73.73
		c2.42,51.98-14.5,76.15-50.77,76.15c-14.5,0-44.72,13.3-66.48,29.01c-21.76,15.71-53.18,35.05-71.32,42.31
		c-43.51,18.13-77.36,77.36-64.06,113.62c6.04,14.5,42.31,55.6,80.99,91.86c39.89,35.05,85.82,78.57,103.95,94.28l32.64,31.43
		l-14.5-38.68c-19.34-53.18,3.63-74.94,50.77-47.14c24.17,13.3,38.68,15.71,47.14,7.25c16.92-16.92,50.77-3.63,50.77,19.34
		c0,8.46-25.38,32.64-55.6,51.98l-55.6,36.26l37.47,7.25c54.39,10.88,83.4,45.93,83.4,103.95c1.21,30.22-4.83,49.56-13.3,50.77
		c-16.92,2.42,48.35,19.34,79.78,21.76c19.34,1.21,117.25-90.66,117.25-110c0-20.55-56.81-73.73-94.28-90.66
		c-31.43-12.09-39.89-22.97-36.26-43.52c2.42-21.76,9.67-25.38,43.51-22.97c29.01,3.63,49.56-4.83,78.57-29.01
		c20.55-18.13,56.81-39.89,79.78-49.56c43.51-18.13,80.99-12.09,66.48,10.88c-6.04,8.46-2.42,10.88,10.88,6.04
		c45.93-18.13,50.77,53.18,6.04,111.2c-31.43,41.1-26.59,59.23,6.04,27.8c35.05-33.84,45.93-33.84,78.57,1.21
		c38.68,41.1,32.64,60.44-32.64,99.12c-53.18,32.64-58.02,39.89-53.18,72.52c7.25,42.31-15.71,62.85-147.47,132.96
		c-55.6,29.01-85.82,38.68-99.12,31.43c-14.5-7.25-26.59-2.42-45.93,20.55c-22.97,26.59-29.01,27.8-54.39,14.5
		c-21.76-10.88-30.22-12.09-33.84-1.21c-8.46,26.59-60.44,13.3-91.86-24.17c-44.72-51.98-41.1-105.16,8.46-123.29
		c10.88-4.83,24.17-16.92,29.01-27.8c7.25-20.55-29.01-101.53-47.14-101.53c-13.3,0-12.09,20.55,2.42,30.22
		c20.55,12.09-2.42,44.72-26.59,38.68c-16.92-4.83-26.59,2.42-35.05,25.38c-7.25,18.13-20.55,48.35-31.43,68.9
		c-16.92,32.64-15.71,37.47,3.63,48.35c10.88,6.04,35.05,24.17,51.98,39.89c30.22,26.59,31.43,26.59,8.46,44.72
		c-30.22,22.97-55.6,22.97-90.66-1.21c-22.97-16.92-26.59-27.8-21.76-60.44c3.63-22.97,2.42-41.1-2.42-41.1
		c-6.04,0-19.34-14.5-31.43-31.43c-19.34-30.22-19.34-36.26-2.42-71.32c10.88-21.76,15.71-43.51,12.09-47.14
		c-10.88-10.88-30.22-8.46-22.97,2.42c8.46,14.5-8.46,36.26-35.05,41.1c-15.71,2.42-25.38-3.63-27.8-20.55
		c-10.88-55.6-53.18-68.9-111.2-36.26l-30.22,16.92l31.43,1.21c30.22,0,71.32,32.64,71.32,54.39c0,6.04-10.88,21.76-24.17,36.26
		c-15.71,15.71-27.8,50.77-32.64,88.24c-6.04,50.77-10.88,62.85-29.01,62.85c-12.09,0-31.43-13.3-42.31-30.22
		s-25.38-26.59-33.84-21.76c-14.5,9.67-20.55,10.88-64.06,13.3c-14.5,1.21-33.84,9.67-42.31,19.34
		C2351.86,7119.47,2217.69,7155.74,2172.96,7135.19z"/>
	<path d="M2704.81,7098.92c-8.46-3.63-15.71-16.92-15.71-30.22c0-14.5-6.04-19.34-18.13-15.71c-32.64,13.3-18.13-36.26,19.34-65.27
		c33.84-27.8,37.47-27.8,66.48-8.46c25.38,16.92,30.22,27.8,26.59,70.11c-3.63,44.72-7.25,50.77-33.84,53.18
		C2732.61,7103.76,2712.06,7101.34,2704.81,7098.92z"/>
	<path d="M3166.55,7082c-3.63-6.04,1.21-12.09,12.09-12.09s15.71,6.04,12.09,12.09c-3.63,7.25-9.67,12.09-12.09,12.09
		S3170.17,7089.25,3166.55,7082z"/>
	<path d="M9120.8,6968.38c-13.3-15.71-13.3-20.55,2.42-26.59c30.22-10.88,74.94,0,74.94,19.34
		C9198.16,6986.51,9138.93,6991.35,9120.8,6968.38z"/>
	<path d="M4430.89,6738.72c-16.92-19.34-13.3-61.65,8.46-100.33c22.97-42.31,108.79-49.56,170.43-14.5
		c58.02,32.64,70.11,59.23,43.51,100.33c-15.71,24.17-27.8,29.01-55.6,25.38c-19.34-3.63-50.77-8.46-71.32-12.09
		c-19.34-2.42-38.68,0-42.31,6.04C4473.2,6760.48,4446.6,6758.06,4430.89,6738.72z"/>
	<path d="M4855.16,6409.94c-16.92-10.88-26.59-31.43-26.59-51.98c0-43.51,30.22-118.46,50.77-125.71
		c12.09-3.63,9.67-12.09-7.25-30.22c-13.3-15.71-19.34-35.05-15.71-51.98c3.63-14.5,1.21-36.26-7.25-48.35
		c-20.55-32.64-2.42-41.1,50.77-25.38c25.38,8.46,56.81,14.5,70.11,14.5c45.93,0,77.36,70.11,45.93,100.33
		c-30.22,31.43-76.15,130.54-70.11,154.72c3.63,13.3-1.21,25.38-13.3,30.22c-10.88,3.63-19.34,18.13-19.34,30.22
		C4913.18,6434.12,4891.42,6435.33,4855.16,6409.94z"/>
	<path d="M4776.59,6268.52c-24.17-13.3-44.72-33.84-44.72-45.93c0-10.88-3.63-37.47-7.25-58.02c-7.25-33.84-4.83-37.47,21.76-37.47
		c65.27,0,114.83,73.73,89.45,135.38l-13.3,32.64L4776.59,6268.52z"/>
	<path d="M8523.69,5846.67c-3.63-35.05-4.83-88.24-2.42-116.04c4.83-49.56,1.21-56.81-44.72-102.74
		c-27.8-27.8-66.48-55.6-87.03-62.85c-53.18-18.13-87.03-70.11-72.52-111.2s48.35-50.77,59.23-16.92
		c3.63,13.3,18.13,27.8,31.43,31.43c12.09,4.83,22.97,12.09,22.97,18.13c0,4.83,12.09,7.25,25.38,3.63
		c16.92-4.83,30.22,0,37.47,13.3c6.04,10.88,20.55,19.34,32.64,19.34c10.88,0,30.22,7.25,42.31,15.71
		c30.22,21.76,38.68,153.51,14.5,203.07c-15.71,31.43-15.71,35.05,2.42,35.05c27.8,1.21,74.94,42.31,74.94,65.27
		c0,12.09-13.3,22.97-36.26,26.59c-19.34,4.83-42.31,15.71-49.56,24.17C8547.86,5925.24,8530.94,5910.73,8523.69,5846.67z"/>
	<path d="M8094.58,5190.32c-16.92-36.26-6.04-68.9,20.55-64.06c25.38,4.83,35.05,94.28,9.67,94.28
		C8116.34,5220.54,8101.84,5207.25,8094.58,5190.32z"/>
	<path d="M2813.6,5151.64c-8.46-2.42-15.71-13.3-15.71-22.97c0-12.09,14.5-16.92,47.14-16.92c29.01,0,61.65-10.88,89.45-29.01
		c49.56-33.84,135.38-47.14,135.38-20.55c0,18.13-41.1,47.14-113.62,79.78C2917.55,5158.9,2843.81,5164.94,2813.6,5151.64z"/>
	<path d="M3073.47,5038.02c-12.09-12.09-21.76-25.38-21.76-29.01c0-14.5,95.49-27.8,141.42-19.34c30.22,6.04,55.6,4.83,62.85-2.42
		c6.04-6.04,16.92-7.25,24.17-3.63c22.97,14.5,14.5,31.43-16.92,31.43c-15.71,0-47.14,10.88-68.9,24.17
		C3144.79,5069.45,3100.07,5068.24,3073.47,5038.02z"/>
	<path d="M2958.64,5000.55c2.42-8.46,14.5-15.71,26.59-15.71s24.17,7.25,27.8,15.71c2.42,8.46-7.25,14.5-27.8,14.5
		S2955.02,5009.01,2958.64,5000.55z"/>
	<path d="M8104.25,4984.84c-16.92-45.93-14.5-85.82,6.04-107.58c9.67-9.67,18.13-22.97,18.13-30.22c0-18.13,25.38-30.22,35.05-15.71
		c4.83,8.46,18.13,4.83,37.47-9.67c16.92-12.09,25.38-26.59,20.55-31.43s-15.71-2.42-22.97,4.83c-8.46,8.46-19.34,14.5-24.18,14.5
		c-16.92,0-9.67-56.81,8.46-72.52c15.71-13.3,24.17-10.88,48.35,12.09c33.84,31.43,39.89,70.11,12.09,79.78
		c-9.67,4.83-18.13,15.71-18.13,24.17c0,9.67-13.3,22.97-29.01,30.22c-25.38,12.09-29.01,21.76-27.8,70.11
		c2.42,49.56-1.21,55.6-24.17,59.23C8123.59,5016.26,8112.71,5009.01,8104.25,4984.84z"/>
	<path d="M8069.2,4750.34c-14.5-19.34-21.76-38.68-15.71-42.31c14.5-8.46,62.85,26.59,62.85,47.14
		C8116.34,4787.81,8093.37,4785.4,8069.2,4750.34z"/>
	<path d="M8249.3,4738.25c0-6.04-19.34-18.13-42.31-25.38c-48.35-15.71-55.6-43.51-14.5-60.44c14.5-7.25,35.05-18.13,47.14-26.59
		c41.1-29.01,70.11,24.17,50.77,96.7C8283.15,4747.92,8249.3,4761.22,8249.3,4738.25z"/>
	<path d="M7067.15,4674.19c2.42-42.31,8.46-51.98,27.8-51.98c15.71,0,25.38,9.67,27.8,26.59c4.83,33.84-16.92,76.15-41.1,76.15
		C7067.15,4724.96,7064.74,4712.87,7067.15,4674.19z"/>
	<path d="M2582.73,4662.1c-9.67-9.67-14.5-56.81-14.5-125.71v-110l-219.99-9.67c-122.08-3.63-288.89-13.3-372.29-19.34
		c-83.4-6.04-340.86-14.5-571.73-19.34c-297.35-4.83-419.43-10.88-415.81-20.55c2.42-7.25,20.55-16.92,39.89-20.55
		c66.48-14.5,593.49-10.88,912.6,6.04c175.27,9.67,388.01,20.55,473.83,24.17l153.51,7.25v-76.15c0-323.94,41.1-832.82,96.7-1205.11
		c19.34-129.34,45.93-336.03,59.23-458.11c21.76-204.28,35.05-261.09,58.02-239.33c13.3,14.5-41.1,553.6-80.99,794.14
		c-33.84,203.07-59.23,487.12-72.52,809.86c-16.92,407.35-19.34,374.71,24.17,374.71c27.8,0,36.26,4.83,36.26,24.17
		s-8.46,24.17-36.26,24.17h-36.26v119.67C2616.57,4662.1,2609.32,4688.7,2582.73,4662.1z"/>
	<path d="M7953.16,4578.7c-39.89-38.68-84.61-74.94-99.12-78.57c-60.44-15.71-14.5-174.06,49.56-174.06
		c16.92,0,43.51-4.83,60.44-12.09c41.1-15.71,66.48-3.63,76.15,35.05c3.63,16.92,18.13,51.98,30.22,78.57
		c15.71,29.01,20.55,58.02,15.71,77.36c-3.63,16.92-1.21,45.93,7.25,65.27c12.09,29.01,10.88,38.68-7.25,58.02
		C8053.49,4664.52,8031.73,4657.27,7953.16,4578.7z"/>
	<path d="M8314.57,4490.46c-9.67-38.68,2.42-71.32,22.97-64.06c19.34,6.04,19.34,83.4,0,89.45
		C8329.08,4519.47,8319.41,4507.38,8314.57,4490.46z"/>
	<path d="M8176.78,4484.42c-53.18-7.25-54.39-8.46-77.36-71.32c-18.13-49.56-20.55-74.94-12.09-108.79
		c12.09-49.56,39.89-65.27,49.56-27.8c6.04,22.97,8.46,24.17,20.55,7.25c18.13-25.38,55.6-10.88,55.6,20.55
		c0,13.3-4.83,33.84-12.09,45.93c-8.46,15.71-7.25,25.38,6.04,36.26c27.8,22.97,21.76,33.84-20.55,39.89l-39.89,4.83l43.51,1.21
		c43.51,2.42,71.32,20.55,71.32,47.14c0,8.46-7.25,14.5-14.5,13.3C8238.42,4492.88,8207,4488.04,8176.78,4484.42z"/>
	<path d="M8708.62,4483.21c-15.71-9.67-15.71-13.3,0-29.01c15.71-15.71,82.19-18.13,420.64-20.55
		c395.26-1.21,464.16,4.83,406.14,35.05C9505.18,4484.42,8732.8,4498.92,8708.62,4483.21z"/>
	<path d="M6711.78,4430.03c-204.28-7.25-374.71-18.13-378.34-21.76c-4.83-4.83-4.83-14.5,0-22.97
		c7.25-10.88,103.95-12.09,415.81-4.83c478.66,9.67,563.27,16.92,563.27,42.31C7312.53,4446.95,7200.12,4448.16,6711.78,4430.03z"/>
	<path d="M8410.06,4416.73c-3.63-10.88,1.21-25.38,12.09-33.84c9.67-8.46,20.55-24.17,22.97-37.47
		c2.42-13.3,25.38-30.22,61.65-43.51c77.36-30.22,94.28-44.72,85.82-79.78c-6.04-22.97,0-30.22,37.47-45.93
		c56.81-24.17,89.45-24.17,116.04,0c22.97,20.55,62.86,8.46,74.94-24.17c8.46-21.76,91.86-49.56,106.37-35.05
		c6.04,6.04-7.25,31.43-29.01,60.44c-21.76,26.59-48.35,66.48-59.23,87.03c-19.34,36.26-122.08,108.79-152.3,110
		c-8.46,0-32.64,8.46-53.18,19.34c-35.05,18.13-38.68,18.13-72.52-7.25c-19.34-14.5-37.47-24.17-38.68-21.76
		c-1.21,1.21-8.46,18.13-16.92,37.47c-10.88,25.38-21.76,32.64-50.77,32.64C8433.03,4434.86,8414.9,4427.61,8410.06,4416.73z"/>
	<path d="M4157.72,4409.48c-4.83-7.25-4.83-15.71,0-20.55s193.4-9.67,419.43-12.09c403.72-3.63,459.32,1.21,437.56,35.05
		C5005.04,4427.61,4167.39,4426.4,4157.72,4409.48z"/>
	<path d="M8341.17,4359.92c-18.13-9.67-19.34-14.5-6.04-22.97c22.97-14.5,71.32-13.3,71.32,1.21
		C8406.44,4358.71,8365.34,4373.21,8341.17,4359.92z"/>
	<path d="M8950.37,4334.53c0-24.17-7.25-32.64-36.26-38.68c-41.1-8.46-44.72-19.34-18.13-42.31c15.71-13.3,25.38-12.09,51.98,8.46
		c38.68,29.01,47.14,66.48,20.55,88.24C8952.79,4363.54,8950.37,4361.13,8950.37,4334.53z"/>
	<path d="M5063.06,4184.65c-18.13-119.67,3.63-736.12,37.47-1049.19c16.92-165.6,36.26-380.75,39.89-477.45
		c7.25-143.84,12.09-175.27,26.59-175.27c26.59,0,20.55,294.93-10.88,604.37c-30.22,293.72-49.56,633.38-49.56,900.51
		c0,198.23-6.04,253.84-25.38,253.84C5076.36,4241.46,5067.9,4216.08,5063.06,4184.65z"/>
	<path d="M8225.13,4162.89c-15.71-16.92-24.17-33.84-19.34-38.68c12.09-12.09,91.86,33.84,91.86,53.18
		C8297.65,4203.99,8255.35,4195.53,8225.13,4162.89z"/>
	<path d="M8684.45,4078.28c-6.04-16.92-12.09-41.1-12.09-51.98c0-37.47-25.38-111.2-37.47-111.2c-7.25,0-29.01,10.88-48.35,25.38
		c-32.64,22.97-35.05,30.22-29.01,77.36l8.46,50.77l-60.44,8.46c-70.11,9.67-111.2-3.63-143.84-44.72
		c-16.92-22.97-31.43-29.01-55.6-24.17c-25.38,4.83-44.72-4.83-89.45-44.72c-31.43-27.8-64.06-60.44-70.11-73.73
		c-7.25-12.09-56.81-43.51-111.2-70.11c-55.6-26.59-105.16-59.23-112.41-74.94c-14.5-25.38-15.71-61.65-9.67-281.64
		c4.83-140.21,15.71-148.68,136.59-117.25c47.14,13.3,119.67,37.47,161.97,54.39c119.67,48.35,169.22,41.1,207.9-31.43
		c8.46-15.71,20.55-21.76,36.26-18.13c15.71,4.83,26.59,0,31.43-13.3c3.63-10.88,14.5-29.01,22.97-38.68s14.5-22.97,14.5-30.22
		c-2.42-29.01,64.06-59.23,132.96-59.23c102.74-1.21,129.33,18.13,212.74,155.93c67.69,112.41,73.73,126.92,77.36,206.69
		c3.63,67.69,0,94.28-16.92,120.87c-43.51,72.52-83.4,131.75-97.91,147.47c-14.5,14.5-39.89,90.66-39.89,119.67
		c0,7.25-8.46,21.76-18.13,32.64c-9.67,9.67-25.38,37.47-33.84,62.85C8723.13,4110.92,8700.16,4120.59,8684.45,4078.28z"/>
	<path d="M6230.71,4033.56c-15.71-21.76-45.93-55.6-68.9-73.73c-35.05-30.22-39.89-41.1-39.89-93.07c0-32.64-4.83-62.85-12.09-66.48
		c-21.76-13.3-13.3-110,10.88-140.21c19.34-24.17,27.8-26.59,56.81-16.92c30.22,10.88,39.89,27.8,74.94,132.96
		c43.51,132.96,58.02,216.36,45.93,264.71C6287.52,4083.12,6265.76,4080.7,6230.71,4033.56z"/>
	<path d="M7736.8,4004.55c-3.63-10.88-7.25-158.34-7.25-329.99c0-291.31-24.17-773.59-48.35-937.98
		c-7.25-56.81-6.04-76.15,7.25-90.66c10.88-10.88,20.55-13.3,29.01-4.83c32.64,32.64,79.78,1160.39,55.6,1327.2
		C7764.6,4025.1,7750.09,4039.6,7736.8,4004.55z"/>
	<path d="M9247.72,3808.73c-9.67-15.71,27.8-62.85,48.35-62.85c24.17,0,21.76,29.01-4.83,51.98
		C9265.85,3820.82,9257.39,3823.24,9247.72,3808.73z"/>
	<path d="M9390.35,3299.85c4.83-38.68,3.63-62.85-6.04-67.69c-7.25-6.04-9.67-24.17-6.04-48.35c7.25-37.47,6.04-38.68-24.17-32.64
		c-24.17,3.63-38.68-3.63-65.27-31.43c-18.13-20.55-60.44-54.39-94.28-74.94c-82.19-50.77-94.28-85.82-33.84-107.58
		c32.64-13.3,80.99,10.88,101.53,49.56c8.46,15.71,35.05,41.1,58.02,56.81s47.14,39.89,54.39,51.98
		c6.04,12.09,19.34,21.76,27.8,21.76s38.68,26.59,65.27,59.23c55.6,65.27,66.48,105.16,27.8,94.28c-18.13-3.63-32.64,6.04-55.6,41.1
		C9397.61,3377.21,9380.68,3373.59,9390.35,3299.85z"/>
	<path d="M8626.43,3100.41c3.63-43.51,7.25-49.56,36.26-53.18c24.17-2.42,37.47,3.63,51.98,26.59
		c31.43,48.35,20.55,70.11-39.89,72.52l-51.98,2.42L8626.43,3100.41z"/>
	<path d="M3505,2765.59c-9.67-15.71,0-26.59,26.59-30.22c22.97-3.63,51.98,15.71,51.98,32.64
		C3583.56,2783.72,3513.46,2781.3,3505,2765.59z"/>
</g>
</svg>
