<?xml version="1.0" encoding="utf-8"?>
<!-- Generator: Adobe Illustrator 30.3.0, SVG Export Plug-In . SVG Version: 9.03 Build 0)  -->
<svg version="1.0" id="Calque_1" xmlns="http://www.w3.org/2000/svg" xmlns:xlink="http://www.w3.org/1999/xlink" x="0px" y="0px"
	 viewBox="0 0 1024 1024" style="enable-background:new 0 0 1024 1024;" xml:space="preserve">
<g transform="translate(0.000000,1024.000000) scale(0.100000,-0.100000)">
	<path d="M3847.62,9771.36c0-21.58,514.57-1041.63,528.2-1046.17c7.95-3.41,115.86,2.27,239.68,11.36
		c263.53,21.58,707.67,23.85,945.08,5.68c92.01-6.82,199.92-13.63,240.81-14.77l73.83-1.14l262.4,525.93l263.53,524.79h-84.06
		c-45.44,0-184.02-4.54-307.83-11.36c-730.39-36.35-1005.28-35.21-1988.98,9.09C3912.37,9779.31,3847.62,9778.17,3847.62,9771.36z"
		/>
	<path d="M3563.64,9662.31c-65.88-51.12-149.94-119.27-187.43-152.21c-111.32-96.55-281.71-226.05-425.97-324.87
		c-106.78-71.56-143.12-103.37-166.98-144.26c-39.76-68.16-47.71-163.57-20.45-238.54c24.99-63.61,597.49-1132.5,908.73-1694.78
		c64.75-115.86,153.35-278.3,197.65-361.22c79.51-148.8,193.1-322.6,271.48-420.29l39.76-47.71l55.66,52.25
		c71.56,67.02,155.62,104.5,279.43,126.09c54.52,9.09,110.18,23.85,123.81,32.94c13.63,9.09,45.44,45.44,70.43,81.79
		c43.16,63.61,299.88,537.29,320.33,591.81c11.36,28.4,0,53.39-230.59,478.22c-613.39,1127.96-652.01,1202.93-906.46,1712.95
		c-109.05,219.23-201.06,399.84-204.46,399.84C3684.05,9754.32,3628.39,9712.29,3563.64,9662.31z"/>
	<path d="M6542,9735.01c-5.68-11.36-96.55-188.56-201.06-395.3c-238.54-470.27-322.6-630.43-457.77-880.33
		c-59.07-109.05-126.09-231.73-147.67-272.62c-21.58-40.89-69.29-127.22-104.5-193.1c-82.92-151.08-378.26-705.4-539.56-1010.96
		c-140.85-265.8-297.61-536.15-341.91-589.54c-42.03-49.98-61.34-57.93-173.79-69.29c-120.41-12.5-169.25-31.81-235.13-93.14
		c-89.74-82.92-107.91-220.37-43.16-338.5c31.81-57.93,80.65-99.96,156.76-130.63c35.21-14.77,341.91-49.98,447.55-51.12
		c9.09,0,13.63-18.17,13.63-49.98v-51.12l-53.39-6.82c-631.57-85.19-1142.73-329.41-1560.74-744.02
		c-627.02-621.34-881.47-1503.94-689.5-2396.77c55.66-263.53,185.15-569.09,339.64-806.5
		c469.13-717.9,1210.88-1143.86,2071.9-1187.03c608.85-31.81,1272.22,197.65,1754.98,604.3
		c675.87,569.09,1012.1,1443.74,890.55,2309.31c-106.78,749.7-491.85,1375.59-1100.7,1785.65
		c-231.73,156.76-498.66,277.16-784.91,355.54c-120.41,32.94-198.78,47.71-422.56,80.65c-36.35,5.68-37.49,6.82-34.08,53.39
		l3.41,47.71l193.1,20.45c106.78,10.22,219.23,27.26,249.9,36.35c86.33,24.99,147.67,70.43,184.02,135.17
		c29.53,53.39,31.81,68.15,31.81,178.34l1.14,121.54l44.3,53.39c168.11,201.06,251.04,340.77,863.29,1465.32
		c57.93,106.78,170.39,313.51,249.9,460.04c80.65,146.53,190.83,354.4,246.49,462.32c96.55,189.7,99.96,197.65,99.96,272.62
		c0,130.63-21.58,160.16-205.6,281.71c-166.98,110.18-227.18,155.62-431.65,323.73c-130.63,107.91-264.67,213.55-290.79,230.59
		C6557.9,9750.91,6547.68,9746.37,6542,9735.01z M4571.19,6140.99c21.58-9.09,140.85-12.5,383.94-11.36
		c357.81,1.14,813.31-12.49,849.66-27.26c14.77-5.68,19.31-21.58,19.31-62.48c0-111.32-99.96-149.94-413.47-160.16l-101.1-3.41
		l-27.26,42.03c-43.16,69.29-131.77,99.96-219.23,76.11c-46.57-12.49-86.33-45.44-124.95-101.1
		c-17.04-24.99-19.31-24.99-164.71-12.5c-272.62,22.72-321.46,43.16-331.69,137.45c-6.82,63.61,9.09,97.69,56.8,118.13
		c20.45,9.09,37.48,15.9,38.62,17.04C4538.25,6153.49,4553.02,6147.81,4571.19,6140.99z M5429.94,5273.16
		c529.33-68.15,1062.08-358.95,1413.07-774.69c270.35-319.19,432.78-672.46,510.02-1110.92c30.67-172.66,28.4-532.74-4.54-722.44
		c-124.95-724.71-579.31-1329.01-1246.09-1657.29c-475.95-235.13-1029.13-288.52-1556.2-151.08
		c-413.47,106.78-832.62,364.63-1114.33,683.82c-346.45,393.02-547.51,889.42-569.09,1405.12
		c-18.17,440.73,101.1,893.96,337.37,1283.58c71.56,119.27,163.57,235.13,289.66,365.76c197.65,206.74,381.67,339.64,642.92,468
		C4547.34,5265.2,4960.81,5332.22,5429.94,5273.16z"/>
	<path d="M4892.66,5111.86c-163.57-26.13-349.86-68.15-445.28-101.1c-567.95-195.38-1037.09-636.11-1258.59-1180.21
		c-246.49-606.58-202.19-1263.13,126.09-1836.77c82.92-144.26,178.34-269.21,310.1-405.52c372.58-382.8,870.11-605.44,1415.34-632.7
		c311.24-15.9,680.41,59.07,971.2,198.78c674.73,321.46,1110.92,947.35,1188.16,1707.27c31.81,315.78-31.81,706.54-166.98,1013.23
		c-288.52,659.96-904.18,1125.69-1623.22,1227.92C5306.13,5117.54,4966.49,5124.35,4892.66,5111.86z M5489.01,4702.93
		c118.13-22.72,164.71-42.03,164.71-69.29c0-30.67-73.83-147.67-128.36-204.46c-51.12-53.39-179.47-149.94-198.78-149.94
		c-24.99,0-32.94,403.25-7.95,441.87C5325.44,4733.6,5337.93,4732.46,5489.01,4702.93z M4921.05,4384.87
		c-4.54-186.29-12.5-343.04-18.17-348.72c-31.81-35.21-405.52,315.78-472.54,443c-20.45,38.62-37.48,78.38-37.48,88.6
		c0,43.16,345.32,151.08,486.17,153.35l49.98,1.14L4921.05,4384.87z M6001.3,4506.42c131.77-76.11,173.79-109.05,181.75-143.12
		c21.58-85.19-111.32-416.88-248.76-616.8c-112.46-164.71-304.42-335.09-515.7-458.91l-70.43-40.89l-6.82,36.35
		c-2.27,20.45-10.22,159.03-17.04,310.1c-15.9,383.94-9.09,412.34,127.22,522.52c139.72,112.46,291.93,285.11,362.36,411.2
		C5847.96,4588.2,5862.72,4585.93,6001.3,4506.42z M4284.94,4368.97c28.4-55.66,51.12-110.18,51.12-121.54
		c0-11.36-28.4-47.71-63.61-81.79c-82.92-81.79-161.3-201.06-187.43-286.25c-26.13-82.92-28.4-218.09-4.54-307.83
		c18.17-71.56,65.88-171.52,87.47-185.15c21.58-13.63,156.76,141.99,216.96,247.63c55.66,98.82,84.06,197.65,97.69,338.5l6.82,78.38
		l170.39-156.76c96.55-89.74,182.88-178.34,198.78-206.74l28.4-49.98l-2.27-323.73c-1.14-298.74-15.9-561.14-30.67-575.91
		c-10.22-10.22-119.27,38.62-209.01,94.28c-80.65,51.12-82.92,53.39-65.88,77.24c49.98,68.15,112.46,180.61,132.9,238.54
		c29.53,86.33,39.76,221.5,21.58,306.7c-17.04,80.65-90.87,228.32-143.12,286.25l-39.76,42.03l-31.81-31.81
		c-38.62-36.35-92.01-132.9-121.54-221.5c-15.9-46.57-21.58-94.28-20.45-193.1c0-120.41,3.41-139.72,40.89-249.9
		c22.72-65.88,39.76-120.41,38.62-122.68c-9.09-7.95-194.24,178.34-248.76,251.04c-81.79,107.91-122.68,184.02-172.66,314.65
		c-85.19,223.77-130.63,482.76-109.05,623.61c17.04,105.64,43.16,155.62,114.73,220.37c60.2,54.52,166.98,113.59,184.02,103.37
		C4230.42,4473.48,4257.68,4424.63,4284.94,4368.97z M6518.14,4048.64c39.76-53.39,67.02-99.96,67.02-117
		c0-94.28-141.99-203.33-322.6-247.63c-47.71-11.36-82.92-14.77-88.6-9.09c-6.82,6.82,2.27,37.49,22.72,78.38
		c38.62,76.11,106.78,265.8,132.9,370.31c10.22,38.62,20.45,77.24,23.85,86.33C6360.25,4232.66,6431.81,4163.37,6518.14,4048.64z
		 M3769.24,3847.59c21.58-127.22,85.19-360.08,119.27-441.87c26.13-62.47,38.62-137.45,22.72-137.45c-7.95,0-46.57,19.31-87.47,44.3
		c-87.47,52.25-164.71,141.99-227.18,268.07c-42.03,81.79-45.44,96.55-40.89,155.62c6.82,74.97,49.98,163.57,130.63,264.67
		l53.39,68.15l3.41-45.44C3744.25,3998.66,3756.75,3919.15,3769.24,3847.59z M6754.41,3652.21
		c129.49-287.39,172.66-674.73,110.18-992.79c-46.57-235.13-128.36-440.73-252.17-632.7c-49.98-77.24-136.31-178.34-152.21-178.34
		c-4.54,0-6.82,52.25-3.41,117c4.54,79.51,0,147.67-12.49,218.09c-27.26,152.21-23.85,177.2,39.76,351
		c134.04,369.17,84.06,546.37-94.28,333.96c-68.15-80.65-112.46-147.67-156.76-236.27c-20.45-40.89-37.49-74.97-38.62-74.97
		c0-1.14-36.35,6.82-79.51,18.17l-79.51,19.31l5.68,61.34c2.27,34.08,4.54,130.63,4.54,214.69
		c-1.14,173.79-17.04,227.18-68.15,227.18c-70.43,0-202.19-282.84-218.09-470.27c-6.82-73.83-11.36-85.19-97.69-215.82
		c-49.98-74.97-105.64-168.11-123.81-206.74c-35.21-76.11-64.75-197.65-67.02-277.16l-1.14-51.12l-34.08,70.43
		c-61.34,128.36-80.65,258.99-81.79,548.64c-1.14,241.95,0,258.99,24.99,316.92c42.03,98.82,88.6,153.35,245.36,288.52
		c81.79,70.43,188.56,164.71,238.54,211.28c104.5,96.55,123.81,105.64,294.2,144.26c207.87,46.57,381.67,124.95,486.17,219.23
		c27.26,24.99,56.8,45.44,64.75,46.57C6715.79,3722.64,6737.37,3690.83,6754.41,3652.21z M3501.17,3395.5
		c31.81-47.71,97.69-128.36,147.67-178.34c102.23-102.23,190.83-154.48,346.45-204.46l96.55-30.67l136.31-139.72
		c145.4-147.67,212.42-201.06,420.29-333.96c118.13-76.11,134.04-89.74,160.16-143.12c37.48-78.38,44.3-160.16,23.85-278.3
		c-43.16-240.81-132.9-357.81-323.73-421.42c-92.01-30.67-230.59-32.94-348.72-5.68c-43.17,10.22-131.77,44.3-196.51,76.11
		c-196.51,95.42-326.01,238.54-444.14,489.58c-62.47,130.63-113.59,286.25-145.4,429.37c-30.67,145.4-28.4,520.25,5.68,673.59
		c24.99,110.18,40.89,155.62,56.8,155.62C3440.96,3484.1,3470.5,3444.34,3501.17,3395.5z M5920.65,2389.08
		c52.25-52.25,47.71-154.48-10.22-194.24c-36.35-26.13-102.23-21.58-139.72,10.22c-28.4,23.85-31.81,35.21-31.81,92.01
		c0,56.8,3.41,68.15,31.81,92.01C5813.88,2426.57,5883.17,2426.57,5920.65,2389.08z M6297.78,2311.84
		c39.76-37.49,53.39-80.65,38.62-126.09c-19.31-57.93-51.12-81.79-110.18-81.79c-67.02,0-112.46,43.16-112.46,106.78
		C6113.76,2324.33,6220.53,2383.4,6297.78,2311.84z"/>
	<path d="M5669.62,4228.12c-103.37-115.86-163.57-254.44-163.57-375.99c0-103.37,71.56-316.92,118.13-356.68
		c18.17-13.63,23.85-13.63,49.98,1.14c43.16,23.85,109.05,114.73,163.57,223.77c44.3,87.47,47.71,103.37,52.25,203.33
		c3.41,78.38,0,127.22-13.63,177.2c-21.58,77.24-92.01,193.1-121.54,198.78C5743.45,4301.95,5709.38,4273.56,5669.62,4228.12z"/>
	<path d="M5858.18,2320.93c-6.82-9.09-11.36-28.4-9.09-43.16c4.54-34.08,52.25-43.16,73.83-13.63
		c19.31,26.13,18.17,32.94-3.41,54.52C5897.94,2341.37,5876.35,2341.37,5858.18,2320.93z"/>
	<path d="M6148.97,2261.86c-35.21-34.08-14.77-76.11,34.08-70.43c23.85,2.27,34.08,10.22,36.35,29.53
		C6227.35,2270.95,6183.05,2297.07,6148.97,2261.86z"/>
</g>
</svg>
