<?xml version="1.0" encoding="utf-8"?>
<!-- Generator: Adobe Illustrator 30.3.0, SVG Export Plug-In . SVG Version: 9.03 Build 0)  -->
<svg version="1.0" id="Calque_1" xmlns="http://www.w3.org/2000/svg" xmlns:xlink="http://www.w3.org/1999/xlink" x="0px" y="0px"
	 viewBox="0 0 1024 1024" style="enable-background:new 0 0 1024 1024;" xml:space="preserve">
<g transform="translate(0.000000,1024.000000) scale(0.100000,-0.100000)">
	<path d="M5180.62,9982.88c-199.4-28.14-378.01-63.61-495.45-99.09c-389.02-117.44-715.65-310.73-1011.7-600.66
		c-132.12-129.67-205.52-229.99-231.21-316.84c-8.56-29.36-51.38-110.1-94.2-178.61c-150.47-239.77-237.33-446.52-297.27-709.53
		l-29.36-132.12l-126-124.78c-101.54-100.31-134.57-143.13-171.27-216.53c-154.14-316.84-173.71-594.54-55.05-806.18l35.48-64.84
		l-24.47-100.31c-13.46-53.83-24.47-129.67-24.47-166.37c1.22-130.9-102.76-693.63-172.49-928.51
		c-62.39-209.19-132.12-371.89-298.49-698.52c-304.61-598.21-380.46-760.91-458.75-983.56c-100.31-285.04-146.8-521.14-156.59-791.5
		c-13.46-370.67,51.38-660.6,222.65-1001.91c107.65-214.08,203.07-342.53,459.97-614.11c181.05-192.06,178.61-178.61,59.94-271.58
		c-89.3-70.95-172.49-116.22-348.65-190.84c-299.72-127.23-397.58-211.64-397.58-338.86c1.22-160.26,211.64-260.57,513.8-244.67
		c223.87,11.01,375.56,67.28,497.9,182.28c179.83,171.27,181.05,382.9,3.67,665.49c-14.68,23.24-9.79,39.15,40.37,140.68
		c79.52,160.26,116.22,324.18,128.45,562.73l9.79,188.39l15.9-91.75c57.5-335.19,135.79-614.11,221.42-791.5
		c121.11-249.56,332.75-502.79,554.17-663.05l107.65-78.29l-77.07-40.37c-114.99-61.17-168.82-128.45-128.45-161.48
		c48.93-40.37,619.01-68.51,1208.65-59.94c539.49,7.34,660.6,25.69,745.01,112.55l40.37,41.59l52.6-46.49
		c97.87-85.63,199.4-100.31,760.91-107.65c622.68-8.56,1142.59,18.35,1186.63,62.39c37.92,36.7-51.38,129.67-168.82,178.61
		c-20.8,8.56-36.7,18.35-36.7,23.24c0,3.67,29.36,24.47,64.84,46.49c100.31,59.94,260.57,205.52,362.11,327.85
		c270.36,327.85,400.03,707.09,472.21,1382.37c17.13,149.25,26.91,203.07,45.26,229.99c13.46,18.35,29.36,33.03,36.7,33.03
		c12.23,0,12.23-15.9-11.01-254.45c-6.12-64.84-3.67-75.85,13.46-75.85c50.16,0,130.9,166.37,156.59,320.51
		c19.57,118.66,31.81,79.52,33.03-102.76c1.22-78.29,6.12-145.58,12.23-149.25c4.89-3.67,18.35,2.45,28.14,14.68
		c64.84,72.18,107.65,243.44,107.65,424.5c0,77.07,6.12,132.12,18.35,161.48c86.86,206.74,116.22,561.51,73.4,868.57
		c-26.91,194.51-126,577.41-204.3,792.72c-70.95,193.29-214.08,519.92-287.48,654.48c-112.55,204.3-178.61,319.29-333.97,574.97
		c-190.84,313.17-200.63,330.3-190.84,338.86c3.67,3.67,110.1-13.46,234.88-37.92c151.69-30.58,232.43-41.59,239.77-34.25
		c22.02,22.02-72.18,58.72-308.28,122.33c-168.82,46.49-228.76,67.28-243.44,86.86c-11.01,14.68-37.92,69.73-59.94,123.56
		l-41.59,97.87l-204.3-8.56c-157.81-6.12-207.97-3.67-215.31,7.34c-22.02,36.7,23.24,48.93,209.19,57.5l184.72,8.56l-42.82,107.65
		c-24.47,59.94-48.93,108.88-55.05,108.88c-7.34,0-91.75-25.69-189.62-56.27c-174.94-55.05-210.41-58.72-210.41-24.47
		c0,26.91,51.38,50.16,218.98,97.87c83.19,23.24,152.92,44.04,156.59,47.71c11.01,11.01-92.97,264.24-157.81,385.35
		c-86.86,161.48-183.5,286.26-320.51,411.04c-107.65,99.09-165.15,171.27-150.47,187.17c3.67,2.45,24.47,8.56,47.71,12.23
		c22.02,3.67,42.82,8.56,46.49,12.23c3.67,2.45-13.46,22.02-36.7,41.59l-42.82,34.25l63.61,1.22c34.25,0,66.06,4.89,70.95,11.01
		c3.67,6.12-20.8,26.91-55.05,46.49c-33.03,18.35-58.72,40.37-57.5,46.49c2.45,7.34,28.14,20.8,56.27,30.58
		c108.88,40.37,126,92.97,108.88,326.63c-20.8,297.27-88.08,656.93-137.01,730.33c-46.49,72.18-94.2,62.39-170.04-35.48
		c-88.08-114.99-300.94-577.41-338.86-737.67c-18.35-79.52-11.01-112.55,36.7-157.81c41.59-37.92,51.38-85.63,15.9-70.95
		c-12.23,3.67-37.92,11.01-57.5,14.68c-30.58,6.12-33.03,4.89-22.02-15.9c7.34-12.23,29.36-39.15,50.16-58.72
		c44.04-41.59,48.93-62.39,13.46-52.6c-13.46,3.67-26.91,1.22-30.58-4.89c-8.56-12.23-44.04-6.12-203.07,33.03
		c-214.08,52.6-358.44,69.73-585.98,69.73c-232.43,0-344.98-12.23-562.73-61.17c-183.5-41.59-244.67-51.38-244.67-37.92
		c0,4.89-13.46,9.79-30.58,9.79c-30.58,0-30.58,1.22,18.35,46.49c66.06,63.61,64.84,80.74-6.12,70.95
		c-30.58-4.89-55.05-4.89-55.05,0c0,3.67,19.57,29.36,42.82,55.05c52.6,58.72,55.05,105.21,13.46,226.32
		c-83.19,238.55-274.03,631.24-343.76,708.31c-34.25,36.7-48.93,44.04-81.96,40.37c-31.81-2.45-45.26-13.46-67.28-52.6
		c-63.61-114.99-144.35-614.11-135.79-852.66c3.67-137.01,13.46-151.69,110.1-189.62c30.58-12.23,57.5-26.91,58.72-34.25
		c2.45-6.12-20.8-25.69-48.93-42.82c-70.95-41.59-79.52-67.28-20.8-57.5c24.47,3.67,55.05,3.67,69.73,0
		c23.24-6.12,22.02-9.79-18.35-36.7c-23.24-15.9-42.82-34.25-42.82-40.37c0-13.46,68.51-29.36,84.41-19.57
		c6.12,4.89,14.68,3.67,18.35-2.45c13.46-22.02-36.7-86.86-129.67-167.6c-149.25-129.67-278.92-299.72-364.55-474.65
		c-92.97-190.84-148.02-330.3-135.79-342.53c6.12-6.12,67.28-26.91,137.01-46.49c149.25-42.82,237.33-83.19,237.33-108.88
		c0-31.81-35.48-26.91-220.2,36.7c-100.31,33.03-185.95,57.5-190.84,52.6c-3.67-6.12-24.47-57.5-45.26-114.99l-37.92-105.21
		l176.16-7.34c172.49-7.34,232.43-19.57,222.65-48.93c-3.67-11.01-64.84-14.68-216.53-14.68h-212.86l-51.38-112.55
		c-28.14-61.17-62.39-117.44-74.62-123.56c-12.23-7.34-113.77-36.7-225.09-67.28c-210.41-57.5-297.27-91.75-293.6-112.55
		c3.67-17.13,74.62-11.01,227.54,23.24c199.4,44.04,238.55,48.93,238.55,30.58c0-17.13-105.21-200.63-244.67-426.94
		c-347.43-566.4-574.97-1081.43-697.3-1579.32c-114.99-470.98-118.66-835.54-13.46-1156.05c29.36-89.3,36.7-137.01,41.59-261.79
		c4.89-106.43,14.68-177.38,31.81-233.66c26.91-84.41,72.18-163.93,92.97-160.26c7.34,1.22,14.68,67.28,18.35,154.14
		c6.12,163.93,18.35,204.3,30.58,108.88c12.23-90.53,28.14-144.35,67.28-228.76c96.64-209.19,68.51-644.7-58.72-878.35
		c-17.13-33.03-35.48-58.72-40.37-58.72c-14.68,0-321.74,327.85-393.91,422.05c-181.05,233.66-307.06,506.46-376.79,813.52
		c-25.69,113.77-29.36,157.81-29.36,379.23c1.22,278.92,18.35,397.58,97.87,671.61c81.96,280.14,149.25,433.06,478.32,1077.76
		c107.65,211.64,218.98,442.85,245.89,513.8c107.65,276.47,166.37,533.37,255.68,1118.13c3.67,25.69,20.8,66.06,35.48,89.3
		c15.9,23.24,35.48,62.39,44.04,86.86c7.34,24.47,23.24,53.83,35.48,63.61c12.23,9.79,52.6,101.54,89.3,201.85
		c63.61,173.71,205.52,548.05,355.99,935.85c37.92,96.64,68.51,183.5,68.51,190.84c0,20.8-29.36,29.36-99.09,29.36
		c-70.95,0-70.95-2.45-34.25,138.24c79.52,314.4,258.12,655.71,382.9,736.45c34.25,22.02,86.86,66.06,117.44,99.09
		c253.23,275.25,634.91,493,1050.84,598.21c488.11,123.56,889.36,113.77,1371.36-31.81c205.52-62.39,302.16-101.54,462.42-190.84
		c187.17-105.21,337.64-216.53,455.08-337.64c57.5-59.94,127.23-122.33,155.36-138.24c117.44-69.73,307.06-446.52,389.02-774.37
		c11.01-42.82,17.13-79.52,14.68-81.96c-2.45-3.67-36.7-11.01-75.85-17.13c-39.15-6.12-73.4-14.68-77.07-18.35
		c-3.67-3.67,11.01-53.83,34.25-113.77c59.94-160.26,309.5-813.52,396.36-1037.39l75.85-198.18l42.82,22.02
		c63.61,33.03,155.36,137.01,195.73,223.87c69.73,149.25,69.73,313.17,2.45,546.83c-55.05,193.29-187.17,398.81-314.4,489.33
		c-61.17,44.04-63.61,51.38-112.55,244.67c-57.5,228.76-161.48,464.87-303.39,689.96c-37.92,61.17-68.51,118.66-68.51,128.45
		c-1.22,113.77-320.51,445.29-617.78,641.03c-258.12,170.04-578.64,298.49-894.26,358.44c-146.8,28.14-207.97,33.03-445.29,35.48
		C5340.87,9986.55,5201.41,9985.32,5180.62,9982.88z M5646.71,7121.5c78.29-18.35,179.83-55.05,172.49-62.39
		c-1.22-2.45-33.03,4.89-69.73,14.68c-39.15,11.01-144.35,22.02-245.89,25.69c-172.49,6.12-207.97,3.67-402.48-40.37
		c-29.36-6.12-29.36-6.12,3.67,13.46C5211.2,7133.73,5488.9,7159.42,5646.71,7121.5z M4482.09,7115.38
		c40.37-6.12,92.97-25.69,118.66-42.82c42.82-26.91,96.64-106.43,96.64-140.68c0-28.14-35.48-24.47-86.86,9.79
		c-68.51,45.26-123.56,63.61-188.39,63.61c-72.18,0-122.33-19.57-210.41-80.74c-41.59-29.36-80.74-53.83-88.08-53.83
		c-37.92,0,13.46,113.77,73.4,163.93c51.38,44.04,100.31,68.51,161.48,80.74c28.14,4.89,51.38,9.79,51.38,11.01
		C4409.92,7126.39,4442.95,7122.72,4482.09,7115.38z M6613.14,7092.14c89.3-40.37,198.18-179.83,165.15-212.86
		c-8.56-8.56-36.7,3.67-95.42,44.04c-102.76,69.73-134.57,81.96-215.31,81.96c-64.84,0-139.46-26.91-204.3-73.4
		c-18.35-13.46-40.37-24.47-47.71-24.47c-22.02,0-15.9,48.93,12.23,92.97C6297.52,7114.16,6468.79,7155.75,6613.14,7092.14z
		 M5701.76,6960.02c31.81-13.46,61.17-31.81,66.06-40.37c15.9-25.69-26.91-52.6-94.2-58.72c-45.26-3.67-79.52-17.13-114.99-41.59
		c-72.18-51.38-146.8-50.16-218.98,1.22c-37.92,26.91-67.28,37.92-101.54,37.92c-102.76,0-143.13,40.37-80.74,80.74
		c58.72,39.15,150.47,53.83,322.96,50.16C5614.9,6985.71,5655.27,6980.82,5701.76,6960.02z M3875.32,6282.29
		c4.89-26.91-8.56-30.58-217.75-73.4c-185.95-36.7-250.78-42.82-263.02-23.24s55.05,45.26,201.85,77.07
		c77.07,17.13,151.69,34.25,165.15,36.7C3811.71,6311.65,3871.65,6301.87,3875.32,6282.29z M7244.38,6277.4
		c79.52-15.9,170.04-41.59,201.85-55.05c53.83-24.47,56.27-28.14,31.81-37.92c-18.35-6.12-80.74-1.22-174.94,13.46
		c-258.12,42.82-299.72,56.27-285.04,92.97C7026.63,6315.32,7079.23,6312.88,7244.38,6277.4z M5528.04,6156.29
		c64.84-23.24,58.72-40.37-17.13-50.16c-75.85-8.56-165.15,1.22-165.15,19.57c0,17.13,72.18,46.49,110.1,46.49
		C5472.99,6172.19,5504.8,6164.85,5528.04,6156.29z M5964.77,5715.89c278.92-58.72,576.19-182.28,806.18-335.19
		c507.68-336.42,858.78-932.18,1001.91-1696.76c57.5-302.16,73.4-746.23,37.92-1009.25c-50.16-371.89-209.19-756.02-445.29-1074.09
		c-258.12-346.2-683.84-660.6-1141.37-839.21C5589.21,513.05,4979.99,565.65,4330.4,926.54
		c-478.32,265.46-808.62,610.44-1031.27,1075.31c-94.2,195.73-144.35,341.31-189.62,549.28c-30.58,146.8-33.03,171.27-33.03,496.67
		c0,319.29,2.45,355.99,34.25,537.04c190.84,1099.78,686.29,1757.93,1546.29,2055.2c275.25,94.2,440.4,116.22,841.65,111.32
		C5784.94,5747.7,5831.43,5745.25,5964.77,5715.89z M7834.03,4744.56c31.81-66.06,128.45-335.19,165.15-461.2
		c99.09-347.43,161.48-774.37,157.81-1082.65c-1.22-90.53-3.67-143.13-6.12-116.22c-40.37,472.21-141.91,983.56-285.04,1455.77
		c-35.48,114.99-68.51,222.65-74.62,242.22C7776.53,4832.64,7799.77,4811.85,7834.03,4744.56z M3041.01,4568.4
		c-85.63-282.59-143.13-517.47-196.96-798.84c-36.7-196.96-52.6-308.28-91.75-648.37c-8.56-77.07-9.79-47.71-6.12,140.68
		c8.56,452.63,90.53,888.14,244.67,1297.96c58.72,156.59,101.54,249.56,112.55,239.77
		C3105.84,4795.94,3078.93,4691.96,3041.01,4568.4z M2715.6,2500.97c14.68-24.47,24.47-61.17,24.47-95.42l-1.22-55.05l-29.36,34.25
		c-23.24,26.91-30.58,47.71-30.58,95.42c0,33.03,2.45,59.94,6.12,59.94C2688.69,2540.11,2702.14,2521.76,2715.6,2500.97z
		 M2559.01,1062.33c73.4-154.14,58.72-280.14-48.93-386.57c-121.11-121.11-293.6-174.94-528.48-162.7
		c-143.13,7.34-221.42,29.36-271.58,78.29c-85.63,81.96-8.56,160.26,288.71,291.15c225.09,99.09,311.95,148.02,411.04,231.21
		C2501.51,1190.78,2497.84,1192,2559.01,1062.33z"/>
	<path d="M5383.69,5352.56c-190.84-36.7-442.85-338.86-326.63-392.69c35.48-14.68,72.18-4.89,237.33,69.73
		c135.79,59.94,206.74,57.5,357.21-14.68c128.45-61.17,152.92-68.51,190.84-59.94c66.06,17.13,23.24,137.01-95.42,259.35
		C5639.37,5326.87,5508.47,5377.03,5383.69,5352.56z"/>
	<path d="M4159.13,5076.09c-97.87-48.93-225.09-174.94-271.58-269.13l-37.92-78.29l25.69-26.91c25.69-24.47,26.91-25.69,70.95-4.89
		c24.47,12.23,85.63,48.93,135.79,81.96c134.57,88.08,152.92,91.75,294.82,47.71c140.68-44.04,173.71-40.37,173.71,17.13
		c0,106.43-171.27,265.46-285.04,265.46C4243.54,5109.12,4195.83,5094.44,4159.13,5076.09z"/>
	<path d="M6550.75,5085.87c-105.21-47.71-201.85-162.7-201.85-238.55c0-59.94,23.24-62.39,165.15-20.8
		c146.8,44.04,167.6,39.15,335.19-69.73c62.39-41.59,121.11-75.85,129.67-75.85c70.95,0,73.4,64.84,8.56,166.37
		c-88.08,135.79-256.9,261.79-351.1,261.79C6616.81,5109.12,6577.66,5098.11,6550.75,5085.87z"/>
	<path d="M4789.15,4645.47c-108.88-48.93-299.72-267.91-299.72-342.53c0-80.74,59.94-81.96,189.62-2.45
		c154.14,94.2,177.38,97.87,321.74,51.38c152.92-47.71,206.74-50.16,217.75-8.56c24.47,101.54-207.97,325.41-336.42,325.41
		C4857.66,4668.71,4816.06,4657.71,4789.15,4645.47z"/>
	<path d="M5912.17,4636.91c-121.11-59.94-256.9-238.55-232.43-303.39c11.01-29.36,91.75-24.47,189.62,8.56
		c163.93,57.5,209.19,52.6,351.1-40.37c84.41-55.05,143.13-72.18,171.27-48.93c48.93,40.37-3.67,146.8-140.68,283.81
		C6117.69,4669.94,6029.61,4695.63,5912.17,4636.91z"/>
	<path d="M3735.86,4388.57c-133.34-77.07-291.15-294.82-266.69-365.78c20.8-57.5,61.17-48.93,185.95,40.37
		c144.35,103.98,163.93,108.88,296.05,83.19c134.57-25.69,171.27-17.13,171.27,36.7c0,44.04-19.57,78.29-84.41,146.8
		C3943.83,4430.17,3843.51,4449.74,3735.86,4388.57z"/>
	<path d="M6933.65,4388.57c-72.18-46.49-156.59-151.69-156.59-195.73c0-66.06,36.7-74.62,184.72-44.04
		c113.77,24.47,144.35,14.68,274.03-79.52c56.27-40.37,118.66-77.07,139.46-80.74c31.81-7.34,39.15-3.67,48.93,23.24
		c17.13,45.26-3.67,105.21-64.84,188.39C7207.68,4404.48,7062.1,4469.31,6933.65,4388.57z"/>
	<path d="M3520.55,7976.61c-44.04-23.24-67.28-70.95-162.7-326.63c-42.82-116.22-145.58-384.13-227.54-595.76
		c-185.95-483.22-184.72-481.99-170.04-537.04c17.13-63.61,45.26-99.09,102.76-124.78c101.54-45.26,221.42-19.57,267.91,59.94
		c12.23,20.8,97.87,239.77,190.84,488.11c94.2,247.11,201.85,533.37,239.77,633.69c61.17,161.48,68.51,190.84,62.39,244.67
		c-8.56,72.18-35.48,112.55-100.31,149.25C3667.35,8001.08,3570.71,8004.75,3520.55,7976.61z"/>
	<path d="M7173.43,7972.94c-61.17-28.14-99.09-78.29-110.1-145.58c-8.56-57.5-6.12-67.28,117.44-393.91
		c52.6-138.24,154.14-407.37,226.32-599.43s145.58-367,161.48-389.02c39.15-51.38,88.08-75.85,156.59-75.85
		c146.8,0,243.44,119.89,198.18,247.11c-78.29,221.42-489.33,1288.17-505.24,1312.64
		C7374.05,7997.41,7267.62,8015.76,7173.43,7972.94z"/>
</g>
</svg>
