<?xml version="1.0" encoding="utf-8"?>
<!-- Generator: Adobe Illustrator 30.3.0, SVG Export Plug-In . SVG Version: 9.03 Build 0)  -->
<svg version="1.0" id="Calque_1" xmlns="http://www.w3.org/2000/svg" xmlns:xlink="http://www.w3.org/1999/xlink" x="0px" y="0px"
	 viewBox="0 0 1024 1024" style="enable-background:new 0 0 1024 1024;" xml:space="preserve">
<g transform="translate(0.000000,1024.000000) scale(0.100000,-0.100000)">
	<path d="M4622.69,10021.13c-112.87-35.53-219.47-140.04-262.32-256.05c-21.95-56.43-48.07-271.72-112.87-902.95
		c-9.41-95.1-17.77-173.48-18.81-174.53c0-1.05-57.48-18.81-125.41-39.71c-272.77-82.56-600.92-222.6-802.62-342.79
		c-44.94-27.17-86.74-49.12-91.97-49.12c-4.18,0-189.16,144.22-408.63,319.79c-475.51,379.37-484.92,385.64-645.86,385.64
		c-188.11,0-211.11-16.72-626-447.3c-191.25-198.57-224.69-238.28-259.18-308.3c-37.62-76.29-39.71-83.61-39.71-183.93
		c0-153.63,13.59-177.66,318.75-560.16c140.04-175.57,286.35-359.51,325.02-408.63l72.11-89.88l-78.38-150.49
		c-131.68-255-243.5-543.44-288.44-746.19c-14.63-67.93,2.09-60.62-207.97-83.61c-606.15-67.93-858.01-99.28-896.68-113.91
		c-113.91-40.76-215.29-152.58-253.96-276.95c-19.86-66.89-20.9-93.01-17.77-493.28c3.14-409.67,4.18-424.3,26.13-479.69
		c39.71-97.19,111.82-176.62,201.7-222.6l78.38-39.71l371-41.8c203.79-22.99,441.02-50.16,526.72-59.57l156.76-17.77l13.59-57.48
		c57.48-233.05,160.94-500.59,291.58-750.37c42.85-82.56,74.2-155.72,70.02-161.99c-7.32-12.54-76.29-100.33-401.31-508.96
		c-222.6-281.13-244.55-310.39-277.99-381.46c-26.13-55.39-29.26-75.25-29.26-163.03c0-94.06,2.09-103.46,40.76-182.89
		c38.67-76.29,62.7-104.51,329.2-373.09c157.81-158.85,308.3-303.07,334.43-320.84c122.27-77.34,291.58-81.52,421.17-8.36
		c25.08,13.59,227.83,167.21,450.43,340.7s407.58,315.61,410.72,315.61c4.18,0,60.61-31.35,126.45-68.98
		c211.11-121.23,466.11-229.92,745.14-319.8l141.09-44.94l17.77-156.76c10.45-85.7,36.58-318.75,59.57-517.32
		c26.13-233.05,47.03-377.27,59.57-407.58c40.76-104.51,122.27-192.3,222.6-239.32l58.52-27.17l438.93-3.14
		c309.34-3.14,455.66,0,496.41,8.36c148.4,32.4,272.77,151.54,312.48,297.85c5.23,22.99,34.49,258.14,63.75,522.54
		c29.26,264.41,55.39,491.19,57.48,503.73c4.18,18.81,24.04,28.22,111.82,55.39c279.04,83.61,552.85,199.61,776.5,328.16
		c65.84,37.62,123.32,68.98,125.41,68.98c3.14,0,152.58-113.91,332.34-252.91c580.02-449.39,536.13-419.08,629.14-443.12
		c102.42-27.17,221.56-11.5,311.44,40.76c58.52,34.49,106.6,81.52,397.13,379.36c302.03,310.39,315.62,332.34,315.62,505.82
		c0,168.26,11.5,149.45-496.41,783.81c-112.87,141.09-207.97,261.27-212.15,268.59c-5.23,7.32,16.72,58.52,50.16,119.14
		c127.5,234.1,215.29,452.52,292.62,721.11c20.9,71.07,38.67,129.59,39.71,129.59c1.05,1.05,73.16,9.41,158.85,18.81
		c771.27,84.65,885.18,100.33,953.12,131.68c85.7,40.76,161.99,118.09,204.84,207.97l33.44,70.02v454.61v454.61l-32.4,67.93
		c-52.25,109.73-134.82,189.16-236.19,225.74c-38.67,14.63-357.42,54.34-896.68,113.91c-83.61,9.41-160.94,20.9-172.44,25.08
		c-14.63,6.27-26.13,27.17-35.53,64.79c-63.75,251.87-200.66,595.7-322.93,810.98l-42.85,76.29l55.39,70.02
		c29.26,39.71,178.71,225.74,329.2,415.94c169.3,211.11,286.35,365.78,302.03,402.36c55.39,119.14,40.76,289.49-33.44,402.36
		c-37.62,56.43-521.5,562.25-593.61,619.73c-25.08,19.86-71.07,48.07-102.42,63.75c-50.16,24.04-70.02,27.17-167.21,27.17
		c-168.26,0-130.64,24.04-819.34-526.72l-228.87-182.89l-53.3,30.31c-125.41,70.02-415.94,213.2-497.46,245.59
		c-108.69,41.8-330.25,117.05-405.49,136.91c-31.35,7.32-59.57,20.9-63.75,30.31c-5.23,8.36-12.54,51.21-15.68,94.06
		c-30.31,329.2-102.42,922.81-116,961.48c-39.71,112.87-127.5,210.06-233.05,259.18l-59.57,28.22l-454.61,2.09
		C4713.61,10042.03,4685.39,10040.99,4622.69,10021.13z M5467.12,7320.64c504.77-84.65,951.03-325.02,1292.77-697.07
		c295.76-321.89,490.14-723.2,564.34-1164.22c26.13-155.72,26.13-526.72,0-678.26c-86.74-504.77-314.57-931.17-683.48-1281.27
		c-338.61-321.89-774.41-528.81-1239.47-589.43c-475.51-61.66-998.05,49.12-1417.13,299.94
		c-361.6,217.38-652.13,530.9-844.43,912.36c-110.78,220.51-175.57,419.08-219.47,668.85c-25.08,149.45-25.08,501.64,0,658.4
		c76.29,466.11,283.22,881,600.92,1209.16c142.13,146.31,217.38,209.02,377.27,315.62c304.12,203.79,629.14,318.75,1035.68,365.78
		C5015.64,7349.9,5372.01,7337.36,5467.12,7320.64z"/>
</g>
</svg>
