<?xml version="1.0" encoding="utf-8"?>
<!-- Generator: Adobe Illustrator 30.3.0, SVG Export Plug-In . SVG Version: 9.03 Build 0)  -->
<svg version="1.0" id="Calque_1" xmlns="http://www.w3.org/2000/svg" xmlns:xlink="http://www.w3.org/1999/xlink" x="0px" y="0px"
	 viewBox="0 0 1024 1024" style="enable-background:new 0 0 1024 1024;" xml:space="preserve">
<g transform="translate(0.000000,1024.000000) scale(0.100000,-0.100000)">
	<path d="M5821,10054.15c-126.91-86.47-411.41-638.73-460.22-892.55c-16.74-80.89-15.34-94.83,13.95-170.14
		c22.31-61.36,27.89-97.62,20.92-139.46c-15.34-92.04-32.08-96.23-178.51-46.02c-341.68,114.36-827.01,156.2-1237.02,107.38
		c-277.53-33.47-475.56-85.07-701.49-181.3c-29.29-12.55-65.55-18.13-80.89-13.95c-50.21,16.74-62.76,160.38-19.52,242.66
		c19.52,39.05,22.31,68.34,16.74,139.46c-6.97,79.49-25.1,124.12-124.12,320.76c-110.17,218.95-273.34,486.72-336.1,556.45
		c-16.74,18.13-48.81,43.23-69.73,54.39c-34.87,18.13-43.23,18.13-72.52-1.4c-19.52-12.55-40.44-33.47-47.42-48.81
		c-51.6-94.83-99.02-719.62-73.91-948.34c9.76-78.1,26.5-161.78,37.65-184.09c12.55-22.31,57.18-64.15,99.02-90.65
		c89.26-57.18,124.12-119.94,139.46-246.85l9.76-78.1l-111.57-115.75c-146.43-153.41-221.74-263.58-319.37-461.62
		c-61.36-126.91-85.07-161.78-101.81-156.2c-12.55,5.58-150.62,48.81-308.21,97.62c-343.08,105.99-497.88,142.25-518.8,121.33
		c-23.71-23.71,97.62-76.7,502.06-220.35c121.33-43.23,235.69-85.07,258-92.04c41.84-16.74,41.84-25.1-5.58-133.88l-25.1-59.97
		l-234.3,11.16c-284.5,13.95-680.57,13.95-732.17,0c-22.31-5.58-39.05-15.34-39.05-22.31c0-22.31,87.86-32.08,760.07-86.47
		c107.39-8.37,198.04-18.13,200.82-20.92c8.37-8.37-69.73-213.38-85.07-223.14c-6.97-4.18-101.81-29.29-210.59-54.39
		c-264.98-61.36-471.38-128.3-504.85-163.17l-27.89-27.89l93.44,6.97c51.6,5.58,207.8,32.08,345.86,59.97
		c139.46,27.89,255.21,47.42,260.79,43.23c4.18-5.58-15.34-75.31-43.23-156.2c-51.6-149.22-72.52-188.27-259.4-481.14
		c-377.94-589.92-684.76-1249.58-829.8-1782.32C667.9,3948.52,655.34,3394.86,787.83,2996c32.08-94.83,30.68-146.43-1.39-380.73
		c-20.92-146.43-9.76-256.61,27.89-256.61c11.16,0,44.63,48.81,76.7,108.78l55.78,108.78l2.79-59.97
		c6.97-104.6,34.87-267.77,55.78-322.16c40.44-99.02,59.97-66.94,96.23,150.62c15.34,92.04,26.5,96.23,51.6,18.13
		c34.87-105.99,96.23-211.98,126.91-217.56c25.1-5.58,25.1,2.79,19.52,136.67c-6.97,145.04,2.79,181.3,51.6,181.3
		c18.13,0,20.92-8.37,83.68-297.05c39.05-175.72,153.41-524.38,238.48-726.59c57.18-136.67,193.85-369.57,291.47-495.09
		c136.67-178.51,362.6-379.34,536.93-476.96c30.68-18.13,55.78-36.26,55.78-40.44c0-4.18-34.87-23.71-76.7-40.44
		c-97.62-40.44-164.56-100.41-157.59-143.65c8.37-59.97,90.65-68.34,722.41-76.7c882.79-11.16,1170.08,16.74,1298.39,131.09
		c19.52,16.74,30.68,13.95,90.65-22.31c142.25-85.07,415.6-112.96,1142.19-112.96c479.75,0,780.98,15.34,831.19,41.84
		c15.34,8.37,26.5,29.29,26.5,48.81c0,39.05-51.6,82.28-164.56,138.07l-75.31,37.65l124.12,82.28
		c237.08,156.2,478.35,414.2,663.84,714.04c90.65,145.04,221.74,450.46,280.32,649.89c128.3,442.09,193.85,910.68,211.98,1522.92
		c13.95,488.12-15.34,843.74-114.36,1390.43c-19.52,108.78-36.26,237.08-37.65,284.5l-2.79,86.47l146.43,126.91
		c405.83,351.44,892.55,889.76,892.55,985.99c0,18.13-25.1,124.12-55.78,235.69c-75.31,273.34-158.99,644.31-205.01,913.47
		c-30.68,184.09-37.65,266.37-39.05,469.99c0,156.2-5.58,248.24-13.95,248.24c-27.89,0-324.95-193.85-613.63-400.25
		c-32.08-22.31-92.04-37.65-251.03-59.97c-198.04-27.89-612.24-104.6-655.47-119.94c-20.92-8.37-50.21,29.29-82.28,108.78
		l-22.31,50.21l370.97,189.67c390.49,200.82,437.91,227.32,437.91,246.85c0,39.05-189.67-26.5-591.32-206.4
		c-145.04-64.15-267.77-112.96-273.34-105.99c-4.18,5.58-44.63,72.52-87.86,146.43c-101.81,172.93-217.56,317.97-331.92,415.6
		c-48.81,41.84-96.23,86.47-105.99,97.62c-20.92,26.5-22.31,103.2-2.79,195.25c12.55,58.57,23.71,76.7,72.52,110.17
		c126.91,86.47,139.46,126.91,138.07,432.33c-1.39,223.14-39.05,595.5-72.52,714.04c-18.13,64.15-64.15,124.12-96.23,124.12
		C5865.63,10077.86,5839.13,10066.7,5821,10054.15z M5726.17,8101.69c115.75-62.76,191.06-206.4,170.14-322.16
		c-46.02-251.03-337.5-355.63-524.38-186.88c-140.86,126.91-147.83,343.08-15.34,464.41c65.55,61.36,117.15,80.89,211.98,82.28
		C5638.31,8139.34,5670.38,8132.37,5726.17,8101.69z M3321.85,8080.77c224.53-115.75,199.43-464.41-41.84-569
		c-128.3-55.78-297.05-16.74-373.76,86.47c-73.91,100.41-87.86,217.56-36.26,326.34C2950.88,8098.9,3151.71,8168.63,3321.85,8080.77
		z M4670.44,7831.13c39.05-13.95,57.18-29.29,59.97-50.21c4.18-32.08-4.18-36.26-111.57-51.6c-27.89-2.79-75.31-22.31-105.99-43.23
		c-86.47-57.18-135.28-58.57-231.51-6.97c-55.78,30.68-110.17,47.42-165.96,53c-133.88,11.16-122.73,72.52,20.92,108.78
		C4233.93,7866,4590.95,7859.03,4670.44,7831.13z M7243.51,7589.86c-11.16-11.16-62.76-54.39-112.96-94.83
		s-168.75-138.07-262.19-217.56c-94.83-79.49-178.51-140.86-186.88-138.07c-20.92,6.97-135.28,292.87-122.73,305.42
		c8.37,9.76,157.59,44.63,594.11,143.65C7261.64,7613.57,7267.22,7613.57,7243.51,7589.86z M4334.34,7280.26
		c19.52-6.97,22.31-51.6,22.31-357.02v-350.05l-142.25,9.76c-135.28,9.76-403.04,43.23-437.91,55.78
		c-19.52,6.97-41.84,463.01-26.5,549.48c11.16,69.73,9.76,69.73,237.08,85.07C4211.61,7288.63,4307.84,7290.02,4334.34,7280.26z
		 M5009.33,7266.31c30.68-8.37,30.68-9.76,30.68-306.82v-297.05l-51.6-13.95c-104.6-27.89-320.76-57.18-423.96-57.18h-105.99
		l-6.97,338.89c-4.18,185.48-4.18,343.08,0,350.05C4458.46,7292.81,4952.16,7280.26,5009.33,7266.31z M5381.7,7235.63l181.3-23.71
		l11.16-181.3c8.37-158.99,6.97-182.69-12.55-198.04c-25.1-18.13-311-121.33-377.94-136.67l-46.02-9.76v181.3
		c0,99.02-4.18,227.32-8.37,285.9l-9.76,107.39l40.44-1.39C5182.27,7259.34,5282.68,7248.18,5381.7,7235.63z M3659.35,6948.34
		v-284.5l-149.22,40.44c-163.17,43.23-266.37,78.1-292.87,100.41c-12.55,9.76-18.13,65.55-18.13,192.46v178.51l46.02,8.37
		c124.12,23.71,288.69,46.02,348.65,47.42l65.55,1.39V6948.34z M5875.39,7163.11c80.89-15.34,152.01-33.47,158.99-40.44
		s-11.16-29.29-41.84-53c-55.78-44.63-294.26-185.48-313.79-185.48c-5.58,0-11.16,69.73-11.16,153.41
		C5667.59,7217.5,5649.46,7206.35,5875.39,7163.11z M3115.45,7002.73c0-87.86-4.18-160.38-8.37-160.38s-66.94,29.29-139.46,65.55
		c-142.25,69.73-252.43,153.41-231.51,174.33c9.76,9.76,309.6,76.7,362.6,79.49C3111.26,7163.11,3115.45,7122.67,3115.45,7002.73z
		 M4886.61,6319.37c316.58-51.6,475.56-100.41,718.23-216.17c256.61-124.12,405.83-230.11,615.03-439.3
		c132.49-132.49,209.19-221.74,280.32-330.52c238.48-362.6,408.62-817.24,493.69-1313.73c41.84-241.27,53-783.77,20.92-1026.44
		c-46.02-359.81-164.56-702.89-355.63-1029.23c-253.82-435.12-792.14-913.47-1305.36-1160.32
		c-347.26-167.35-560.64-221.74-902.32-232.9c-386.31-12.55-670.81,53-1064.09,245.45c-376.55,185.48-622,365.39-920.45,673.6
		c-217.56,224.53-336.1,386.31-465.8,640.13c-313.79,606.66-377.94,1355.57-188.27,2174.21
		c89.26,387.7,220.35,695.91,436.51,1025.04c121.33,185.48,403.04,469.99,587.13,591.32c357.02,237.08,748.91,373.76,1199.37,418.38
		C4224.17,6358.42,4726.23,6345.87,4886.61,6319.37z"/>
	<path d="M5507.21,7962.23c-78.1-19.52-121.33-112.96-85.07-184.09c27.89-51.6,61.36-71.13,126.91-71.13
		c94.83,0,150.62,107.39,103.2,198.04c-12.55,22.31-97.62,71.13-112.96,65.55C5536.5,7969.2,5522.55,7966.41,5507.21,7962.23z"/>
	<path d="M3125.21,7921.78c-72.52-39.05-86.47-132.49-29.29-199.43c29.29-34.87,46.02-43.23,92.04-43.23
		c138.07,0,186.88,182.69,65.55,245.45C3204.7,7949.68,3174.02,7948.28,3125.21,7921.78z"/>
	<path d="M4161.41,5895.41c-126.91-40.44-285.9-178.51-363.99-315.18c-46.02-80.89-51.6-125.52-13.95-145.04
		c34.87-19.52,100.41,0,269.16,83.68c181.3,87.86,209.19,87.86,400.25,1.4c174.33-80.89,216.17-92.04,252.43-72.52
		c65.55,34.87,12.55,158.99-124.12,294.26c-51.6,50.21-124.12,105.99-161.78,124.12
		C4346.89,5900.98,4222.77,5914.93,4161.41,5895.41z"/>
	<path d="M5477.93,5691.79c-131.09-65.55-273.34-239.87-248.24-305.42c12.55-30.68,107.39-29.29,217.56,5.58
		c157.59,48.81,214.77,34.87,414.2-104.6c83.68-58.57,122.73-78.1,150.62-73.91c34.87,4.18,39.05,9.76,37.65,55.78
		c-4.18,115.75-198.04,355.63-343.08,422.57C5613.2,5735.03,5565.79,5735.03,5477.93,5691.79z"/>
	<path d="M2904.86,5638.8c-27.89-11.16-68.34-32.08-90.65-47.42c-117.15-83.68-267.77-295.66-280.32-396.07
		c-13.95-104.6,40.44-99.02,184.09,15.34c184.09,146.43,252.43,164.56,422.57,111.57c114.36-36.26,164.56-36.26,184.09,0
		c33.47,62.76-86.47,223.14-218.95,290.08C3030.37,5651.35,2963.43,5659.72,2904.86,5638.8z"/>
	<path d="M4830.82,5103.26c-40.44-19.52-117.15-78.1-170.14-128.3c-140.86-132.49-186.88-237.08-117.15-267.77
		c34.87-16.74,125.52,4.18,313.79,72.52c111.57,40.44,153.41,30.68,348.65-79.49c156.2-86.47,202.22-92.04,218.95-23.71
		c15.34,57.18-41.84,149.22-178.51,287.29C5067.91,5145.1,4975.86,5175.78,4830.82,5103.26z"/>
	<path d="M3540.8,5068.4c-168.75-62.76-393.28-333.31-380.73-460.22c6.97-76.7,54.39-69.73,211.98,36.26
		c200.82,135.28,217.56,136.67,465.8,48.81c146.43-51.6,174.33-47.42,181.3,27.89c5.58,58.57-33.47,119.94-138.07,216.17
		C3748.6,5060.03,3635.64,5103.26,3540.8,5068.4z"/>
	<path d="M6077.61,4863.39c-66.94-30.68-182.69-142.25-221.74-214.77c-50.21-96.23,12.55-128.3,171.54-87.86
		c153.41,40.44,200.82,26.5,391.89-111.57c55.78-41.84,112.96-75.31,125.52-75.31c32.08,0,57.18,27.89,57.18,59.97
		c0,79.49-188.27,337.5-302.63,412.81C6224.04,4896.86,6162.68,4902.44,6077.61,4863.39z"/>
	<path d="M2423.72,4772.74c-86.47-37.65-244.06-221.74-299.84-351.44c-64.15-152.01-1.39-186.88,139.46-79.49
		c206.4,156.2,232.9,165.96,396.07,129.7c193.85-43.23,231.51,33.47,93.44,185.48C2641.28,4779.71,2529.71,4818.76,2423.72,4772.74z
		"/>
	<path d="M8758.06,8751.58c-20.92-25.1-68.34-105.99-105.99-179.91c-36.26-73.92-78.1-142.25-90.65-153.41
		c-110.17-92.04-119.94-404.44-26.5-941.37c61.36-345.86,164.56-767.04,186.88-753.09c20.92,13.95,119.94,203.61,199.43,383.52
		c133.88,304.03,218.96,615.03,218.96,796.33c0,73.91,19.52,138.07,41.84,138.07c20.92,0,16.74-213.38-8.37-393.28
		c-40.44-291.48-110.17-596.9-298.45-1303.97c-36.26-136.67-39.05-165.96-27.89-228.72c8.37-40.44,13.95-85.07,13.95-101.81
		c-1.39-25.1-2.79-26.5-13.95-6.97c-25.1,43.23-154.8,493.69-230.11,797.72c-142.25,581.55-195.25,878.61-210.59,1168.69
		c-12.55,225.93,8.37,351.44,71.12,444.88c54.39,82.28,41.84,89.25-69.73,36.26c-125.52-58.57-210.59-136.67-245.45-227.32
		c-39.05-101.81-51.6-372.36-26.5-573.19c43.23-358.42,161.77-882.79,337.5-1500.61c92.04-323.55,111.57-404.44,94.83-410.02
		c-9.76-4.18-33.47-20.92-51.6-39.05c-26.5-26.5-32.08-47.42-32.08-122.73v-90.65l-79.49-54.39
		c-218.95-149.22-340.29-369.57-343.08-620.6c-2.79-408.62,330.52-748.91,733.57-748.91c210.59,0,370.97,66.94,520.19,214.77
		c245.45,244.06,295.66,578.77,133.88,896.74c-41.84,82.28-161.78,206.4-246.85,258l-73.91,43.23l-5.58,104.6
		c-4.18,97.62-6.97,105.99-51.6,142.25l-46.02,39.05l93.44,324.95c119.94,414.2,217.56,796.33,274.74,1072.46
		c40.44,195.25,46.02,239.87,46.02,453.25c-1.39,225.93-2.79,241.27-39.05,333.31c-20.92,53-62.76,132.49-93.44,177.12l-54.39,80.89
		l54.39,94.83c30.68,51.6,55.78,101.81,55.78,111.57c0,32.08-61.36,19.52-145.04-32.08c-69.73-41.84-87.86-47.42-115.75-34.87
		c-18.13,8.37-32.08,20.92-32.08,27.89c0,6.97,20.92,68.34,47.42,136.67c58.57,149.22,66.94,203.61,33.47,210.59
		c-25.1,4.18-108.78-72.52-200.82-184.09c-48.81-59.97-61.36-66.94-93.44-58.57l-37.65,8.37l4.18,139.46
		C8826.4,8792.02,8813.85,8818.52,8758.06,8751.58z M9014.67,5580.22v-50.21l-72.52,11.16c-40.44,5.58-101.81,11.16-136.67,11.16
		s-96.23-5.58-135.28-11.16l-73.91-11.16v50.21v48.81h209.19h209.19V5580.22z M9003.51,5378c274.74-104.6,442.09-393.28,389.1-672.2
		c-34.87-189.67-158.99-354.23-333.31-439.3c-101.81-51.6-111.57-53-252.42-53c-136.67,0-154.8,2.79-242.66,44.63
		c-129.7,61.36-235.69,165.96-299.84,295.66c-50.21,101.81-51.6,108.78-51.6,258c0,145.04,2.79,160.38,44.63,248.24
		C8394.07,5348.72,8717.62,5486.78,9003.51,5378z"/>
	<path d="M8675.78,5350.11c-146.43-37.65-285.9-145.04-355.63-276.13c-115.75-216.17-83.68-461.62,85.07-640.13
		c89.25-93.44,165.96-138.07,287.29-165.96c380.73-86.47,726.59,270.56,642.92,665.23c-51.6,238.48-253.82,412.81-496.48,425.36
		C8777.59,5361.27,8705.07,5357.08,8675.78,5350.11z"/>
</g>
</svg>
