<svg width="74" height="74" viewBox="0 0 74 74" fill="none" xmlns="http://www.w3.org/2000/svg">
<path d="M44.1574 0H45.3693C45.6653 0.101206 46.0089 0.198926 46.2878 0.321316C47.163 0.707549 47.8751 1.38783 48.3011 2.24419C48.592 2.84224 48.6787 3.51001 48.6842 4.16817C48.695 5.4726 48.6896 6.78415 48.6885 8.08891L48.6878 15.433V37.9282L48.6874 58.6034V65.5225L48.6896 68.0905C48.691 68.9483 48.7268 69.9499 48.6115 70.7574C48.4139 72.1377 47.2284 73.4367 45.9045 73.8211C45.7675 73.8609 45.5348 73.931 45.4145 74H44.1791C43.6389 73.7424 43.1099 73.7236 42.5365 73.2596C41.8276 72.6862 41.2101 72.0178 40.5669 71.3735L37.2051 68.0117L25.6172 56.4214L23.0832 53.8827C22.7815 53.5806 22.0642 52.8258 21.7678 52.6126C20.5204 52.5433 18.8039 52.592 17.5134 52.5917L9.58968 52.5931L7.16947 52.5946C6.50466 52.5953 5.78287 52.6209 5.12786 52.5096C3.98136 52.308 2.99145 51.5124 2.41695 50.5209C1.834 49.5146 1.94053 48.2709 1.94021 47.145L1.93963 44.3393L1.93922 35.3654L1.94 28.4248C1.9402 27.2327 1.87805 25.7831 2.01206 24.6314C2.17962 23.1914 3.6889 21.6911 5.11857 21.4969C5.74703 21.4115 6.37057 21.4175 6.99625 21.4184L9.13296 21.4205L17.4671 21.4207L20.0999 21.4214C20.6391 21.4214 21.2722 21.4381 21.7999 21.3956L35.8179 7.37265L40.0979 3.09059C40.8704 2.31571 41.6755 1.46428 42.5 0.751834C42.9513 0.361606 43.6263 0.215697 44.1574 0Z" fill="black"/>
<path d="M60.824 22.4155C62.686 22.3169 64.962 23.7319 66.3773 24.8748C69.4779 27.3782 71.54 31.355 71.9569 35.3031C72.4046 39.4715 71.1692 43.6463 68.525 46.8997C67.1278 48.6608 65.3356 50.0678 63.2934 51.0069C62.6871 51.2859 62.1808 51.5178 61.5109 51.589C59.3704 51.6985 57.5515 50.4273 57.2494 48.2377C56.74 44.6519 60.9552 43.8356 62.7579 41.6413C64.919 39.0108 64.7763 34.1481 62.243 31.7865C60.6188 30.2535 57.5244 29.3114 57.2426 26.7788C56.9882 24.4901 58.5466 22.6182 60.824 22.4155Z" fill="black"/>
</svg>
