<svg width="64" height="64" viewBox="0 0 64 64" fill="none" xmlns="http://www.w3.org/2000/svg">
<g clip-path="url(#clip0_178_221)">
<path d="M23.3745 0.61084C24.5613 0.816388 25.4251 1.6314 26.1807 2.52318C27.403 3.96577 28.3665 5.98094 28.356 7.90209C28.3522 8.58427 28.2128 9.3272 28.1495 10.0271C29.5097 9.93949 30.8729 9.9059 32.2357 9.92664C32.8423 9.93837 33.4722 9.97726 34.0793 10.0052C34.1149 10.0069 34.2746 9.96379 34.2746 9.9605C34.2758 9.34682 34.1148 7.85733 34.1603 7.33511C34.3311 5.60529 35.1553 3.9844 36.2183 2.64619C39.0836 -0.960971 40.9318 0.741551 41.2299 4.64932C41.4714 7.8146 41.1835 8.84018 39.2368 11.2196C42.8313 12.879 44.2996 14.8704 45.8863 18.4883C47.7558 17.894 50.2835 17.5958 52.2317 17.1473C52.4437 17.0985 52.6954 17.2165 52.7058 17.4716C52.5599 17.6711 52.2831 17.8058 52.0507 17.8694C50.1277 18.3951 48.0712 18.6599 46.1556 19.1934C46.3925 19.696 46.5708 20.2887 46.7371 20.8183C48.9043 20.8971 51.4957 20.5702 53.6981 20.7074C53.9922 20.7257 54.0215 20.7842 54.1854 20.9793C54.1882 21.0711 54.2097 21.1205 54.137 21.1883C53.746 21.5528 47.9319 21.535 46.9954 21.5369C47.2082 22.0941 47.3752 22.7543 47.5292 23.3355C49.3577 23.6633 52.0889 23.863 53.9265 24.3283C54.0648 24.3634 54.0905 24.4997 54.1264 24.6156C54.0555 24.8421 54.1079 24.7914 53.9455 24.9051C53.4793 24.997 48.4705 24.2318 47.7814 24.0869C48.0757 25.1494 48.4987 25.5032 49.1448 26.3399C49.6217 26.9536 50.0618 27.5951 50.4627 28.2609C51.748 30.3817 52.6793 32.7159 53.3542 35.0981C54.1981 38.0763 55.7594 46.8519 54.2657 49.4596C53.5641 50.6845 52.4252 51.0456 51.1507 51.3819C50.8496 52.122 50.5983 53.0581 50.2869 53.8484C49.3445 56.2401 48.0177 58.7574 46.3917 60.7533C45.782 61.5275 44.5306 63.1898 43.6196 63.4896C42.8801 63.733 34.2667 63.5881 32.9108 63.5886L24.332 63.5905C23.0883 63.5904 20.0257 63.7122 18.695 63.4128C18.4125 63.3492 17.2172 62.0668 16.9641 61.7775C14.3628 58.7621 12.4595 55.2095 11.3899 51.3733C11.1859 51.3302 10.983 51.2817 10.7814 51.228C7.54328 50.3353 7.53685 47.8517 7.65751 45.0455C7.87438 40.0004 8.79697 34.4433 11.1252 29.907C11.6121 28.9516 12.1595 28.0282 12.7638 27.1424C13.5503 26.0013 14.3506 25.3835 14.7209 24.1054C12.9309 24.5473 10.5852 24.6142 8.73189 24.96C8.57528 24.9893 8.46147 24.8338 8.37398 24.7335C8.33676 24.488 8.31546 24.5813 8.44722 24.3821C8.80242 24.1378 14.0404 23.4714 14.9253 23.3465C15.1101 22.7357 15.3084 22.1291 15.5203 21.5271C15.2435 21.5463 14.0848 21.536 13.8316 21.5105C13.012 21.4279 8.79411 21.546 8.43786 21.2467C8.34004 21.0139 8.34486 21.1109 8.40784 20.8809C8.8404 20.5401 10.6195 20.6981 11.2337 20.7141L15.7115 20.8443C15.947 20.3125 16.1025 19.7309 16.3685 19.145C15.434 18.9891 10.6461 18.0304 10.1274 17.7446C9.94321 17.6431 9.79169 17.5281 9.73059 17.3188L9.82304 17.1947L9.73932 17.2752C10.1969 16.9039 15.7528 18.2703 16.64 18.4722C18.0243 14.9227 19.8492 12.7991 23.2706 11.2211C22.8656 10.6207 22.3698 10.14 21.9606 9.49499C20.8097 7.68095 20.7903 1.12257 23.3745 0.61084Z" fill="#22232B"/>
<path d="M35.9229 9.67937C35.6027 8.71622 35.4654 7.90109 35.6931 6.8966C36.1334 4.95341 37.3616 3.12535 39.0284 2.03979C39.8848 3.80017 40.084 5.97506 39.6086 7.87993C39.3672 8.84749 38.8614 9.4146 38.1369 10.0671C37.1324 13.3685 38.7594 12.0311 40.9056 13.8107C42.5793 15.1985 43.5681 16.8299 44.4352 18.7865C43.9158 18.8918 42.1284 19.1297 41.926 19.6573L41.9902 19.7408C42.5957 20.043 44.0466 19.603 44.7363 19.4452C44.9064 19.9129 45.0692 20.3831 45.2248 20.8559C44.6651 20.8858 43.4366 20.7953 43.0352 21.219C43.028 21.8149 45.0761 21.6002 45.5037 21.5808L45.9808 23.1115C45.3669 23.002 43.8578 22.6402 43.4347 23.0775C43.4225 23.313 43.4015 23.2179 43.5444 23.4398C44.1268 23.6546 45.5363 23.7896 46.208 23.8737C46.8215 25.8394 46.7678 25.6648 48.0335 27.2712C48.4359 27.7784 48.808 28.309 49.1476 28.8603C52.3219 33.9542 53.331 40.6232 53.4205 46.5008C53.4933 48.702 52.7886 49.6808 50.5262 49.9828C49.7908 50.081 49.2936 52.3457 49.0056 53.1123C48.2562 55.1109 47.2611 57.0085 46.0431 58.7612C45.158 60.014 44.2797 61.0787 43.143 62.1192C40.4556 62.1671 37.652 62.1236 34.9552 62.123L19.3655 62.1301C16.8312 59.7855 14.8814 56.6184 13.6042 53.42C13.1816 52.398 12.9547 51.2856 12.4818 50.2884C12.3582 50.0369 11.8096 49.9277 11.5612 49.8932C9.0675 49.5292 9.03964 47.8974 9.08963 45.8709C9.22628 40.3397 10.11 35.1576 12.6179 30.176C13.0721 29.2635 13.6103 28.3953 14.2255 27.5827C15.549 25.8632 15.6872 25.9855 16.2852 23.8778C17.0475 23.7772 18.2078 23.6711 18.9102 23.4729C19.0591 23.3668 19.0681 23.3146 19.1368 23.142C18.9598 22.6026 16.9785 23.0415 16.4974 23.1147C16.6772 22.6067 16.8433 22.094 16.9957 21.5771C17.5247 21.6005 19.2016 21.7818 19.5133 21.2987L19.4687 21.1856C18.9901 20.8227 17.8994 20.8715 17.2703 20.8552C17.4303 20.3836 17.6059 19.9056 17.7727 19.4354C18.385 19.5824 20.0932 20.1299 20.5188 19.6525L20.4634 19.5141C19.9881 19.0596 18.7484 18.9049 18.0569 18.772C19.1461 16.3649 20.6795 13.8881 23.2452 12.8668C23.6303 12.7135 24.4147 12.4012 24.6399 12.0834C24.8244 11.5592 24.5178 10.6043 24.3623 10.0631C24.1562 9.87153 23.814 9.58169 23.6501 9.3762C22.2004 7.55735 22.4378 4.00123 23.4733 2.07743C24.3982 2.44117 25.6603 4.08654 26.0893 4.96973C26.9559 6.7536 27.1578 7.84209 26.5821 9.69669C26.7083 10.0482 27.1356 11.4031 27.4845 11.4389C28.3673 11.5297 29.4536 11.4139 30.3512 11.3929C31.3085 11.3709 32.2662 11.376 33.2233 11.408C33.7872 11.4322 34.657 11.6234 35.1103 11.4131C35.4867 11.0473 35.7345 10.2024 35.9229 9.67937Z" fill="#7D8A9E"/>
<path d="M29.7091 24.1178C39.7279 23.2653 48.5368 30.706 49.3714 40.7264C50.2059 50.7467 42.7495 59.5422 32.7277 60.3589C22.7311 61.1736 13.9627 53.74 13.1302 43.745C12.2976 33.7498 19.7155 24.9682 29.7091 24.1178Z" fill="#22232B"/>
<path d="M29.8919 24.8292C39.5259 24.0759 47.9404 31.2894 48.6679 40.9253C49.3956 50.5613 42.1597 58.9565 32.5219 59.6585C22.9202 60.3578 14.5633 53.1551 13.8385 43.5553C13.1136 33.9555 20.2941 25.5796 29.8919 24.8292Z" fill="#FEF7AA"/>
<path d="M38.4983 29.2976C40.8394 29.1757 42.2314 32.579 41.5321 32.7411C41.2308 32.6026 40.7145 32.0798 40.4467 31.8291C40.3211 31.7316 40.1934 31.6369 40.0635 31.5451C38.8804 30.7158 37.7421 31.1627 36.4238 31.3937C36.796 30.3022 37.3367 29.5881 38.4983 29.2976Z" fill="#22232B"/>
<path d="M23.4153 29.2977C24.8127 29.1897 25.6444 30.1368 26.0683 31.3577C24.5565 31.2855 23.9974 30.5902 22.4219 31.5492C21.9885 31.8559 21.2392 32.7221 20.8926 32.74L20.7977 32.6263C20.6217 31.3304 22.2005 29.6127 23.4153 29.2977Z" fill="#22232B"/>
<path d="M41.7805 35.1062C43.1819 35.0162 44.2528 36.4196 44.5532 37.6588C44.6261 37.9595 44.7131 38.1824 44.5771 38.4702C44.1764 38.4911 43.5346 37.5894 43.0196 37.1918C42.9764 37.1577 42.9316 37.1257 42.8854 37.0958C41.6791 36.3162 40.5025 36.79 39.1543 37.0813C39.7248 35.9602 40.5538 35.3417 41.7805 35.1062Z" fill="#22232B"/>
<path d="M20.3504 35.1016C21.7625 35.1109 22.6912 35.9021 23.3598 37.0746C22.0708 36.8457 21.0141 36.337 19.8251 36.9673C19.2144 37.3128 18.4675 38.1749 17.8752 38.6948C17.8375 37.105 18.6904 35.4489 20.3504 35.1016Z" fill="#22232B"/>
<path d="M31.0307 27.9081C32.2851 27.7863 34.209 29.55 33.8395 30.4185C33.5058 30.5341 32.342 29.7512 31.6047 29.5485C30.1996 29.4454 29.9054 30.1902 28.6801 30.4464C28.6261 30.4577 28.6084 30.4126 28.5479 30.3531C28.5702 30.0966 28.9953 29.3815 29.1502 29.1521C29.5889 28.5061 30.2646 28.0592 31.0307 27.9081Z" fill="#22232B"/>
<path d="M34.4939 33.5607C36.3172 33.448 37.2027 34.9444 37.5262 36.5186C36.7673 36.0756 36.2409 35.6259 35.414 35.2575C34.0653 34.9468 33.2823 35.5647 32.0518 36.1036C32.4478 34.7961 33.1616 33.9828 34.4939 33.5607Z" fill="#22232B"/>
<path d="M27.2819 33.5621C28.7276 33.4949 29.5881 34.2891 30.2779 35.4896C30.3677 35.6458 30.348 35.699 30.2866 35.8435C29.8872 35.9868 28.8998 35.3586 28.4449 35.2485C28.1224 35.1705 28.0352 35.1564 27.6867 35.136C26.6962 35.2663 25.8358 35.97 25 36.5174C25.2591 35.0568 25.842 34.1058 27.2819 33.5621Z" fill="#22232B"/>
<path d="M38.1069 14.2399C39.6679 14.0789 41.0678 15.2045 41.2455 16.7637C41.4234 18.323 40.313 19.7349 38.7558 19.9296C37.7334 20.0574 36.7211 19.626 36.1052 18.8C35.4892 17.9741 35.3645 16.8808 35.7786 15.9373C36.1928 14.9938 37.0819 14.3456 38.1069 14.2399Z" fill="#22232B"/>
<path d="M37.9217 15.0115C38.6714 14.8385 39.4562 15.0823 39.9759 15.6496C40.4957 16.2168 40.67 17.0199 40.4321 17.7516C40.1942 18.4833 39.581 19.0304 38.8271 19.1837C37.6824 19.4163 36.5633 18.6859 36.3156 17.5444C36.0679 16.4028 36.7836 15.2743 37.9217 15.0115Z" fill="#FEFEF8"/>
<path d="M38.1174 16.0625C38.6857 15.905 39.2739 16.2382 39.431 16.8065C39.5881 17.3749 39.2547 17.9629 38.6862 18.1197C38.1183 18.2764 37.5308 17.9432 37.3738 17.3753C37.2168 16.8075 37.5497 16.2198 38.1174 16.0625Z" fill="#22232B"/>
<path d="M23.8136 14.2395C25.3766 14.0819 26.7749 15.213 26.9471 16.7745C27.1194 18.336 26.0014 19.7447 24.4416 19.9316C22.861 20.121 21.4294 18.9848 21.2548 17.4026C21.0803 15.8202 22.2297 14.3993 23.8136 14.2395Z" fill="#22232B"/>
<path d="M23.6321 15.0088C24.3827 14.8401 25.1661 15.0884 25.6825 15.6588C26.1989 16.2292 26.3684 17.0333 26.1262 17.7636C25.884 18.4939 25.2675 19.0374 24.5126 19.1861C23.3667 19.4118 22.2521 18.6747 22.0112 17.5319C21.7703 16.3891 22.4925 15.2648 23.6321 15.0088Z" fill="#FEFEF8"/>
<path d="M23.8235 16.0613C24.2 15.96 24.6018 16.0723 24.8713 16.3542C25.1407 16.6362 25.2347 17.0427 25.1164 17.4143C24.998 17.7858 24.6863 18.0632 24.3035 18.1374C23.7399 18.2467 23.1911 17.8902 23.0618 17.3309C22.9325 16.7717 23.2692 16.2104 23.8235 16.0613Z" fill="#22232B"/>
<path d="M30.8445 17.0975C33.0718 16.8872 34.6907 18.1934 31.7595 19.1942C29.9498 19.5224 27.4901 17.5044 30.8445 17.0975Z" fill="#22232B"/>
</g>
<defs>
<clipPath id="clip0_178_221">
<rect width="64" height="64" fill="white"/>
</clipPath>
</defs>
</svg>
