<?xml version="1.0" encoding="UTF-8"?>
<svg id="Calque_1" xmlns="http://www.w3.org/2000/svg" version="1.1" viewBox="0 0 764 389">
  <!-- Generator: Adobe Illustrator 30.3.0, SVG Export Plug-In . SVG Version: 2.1.3 Build 182)  -->
  <defs>
    <style>
      .st0 {
        fill: none;
      }
    </style>
  </defs>
  <path class="st0" d="M113.25,344.04c-2.14,1.61-4.29,3.21-7.03,5.27,4.62,2.17,7.81,3.66,11.7,5.49-1.1-3.97,1.6-8.58-4.67-10.75Z"/>
  <path class="st0" d="M179.66,85.77c3.05,2.27,4.28,4.82,4.1,8.43-.11,2.27-.02,4.55-.02,7.04,1.75-.2,3.19-.36,3.39-.39,2.33-4.38,4.25-7.93,6.1-11.51,1.78-3.43,4.43-6.74,5.07-10.39,2.35-13.3.26-26.45-2.78-39.46-.12-.53-1.12-.86-2.11-.7-8.63,12.32-13.71,26.09-16.22,40.81-.33,1.92.92,5.01,2.47,6.16Z"/>
  <path class="st0" d="M384.95,325.79h-4.67v9.1l4.67.02c2.47.02,4.67-1.98,4.67-4.56s-2.22-4.56-4.67-4.56Z"/>
  <path class="st0" d="M73.08,312.35c-1.32-1-4.58.55-7.59,1.36-.19.68-.73,1.79-.51,1.97,3.59,2.95,7.28,5.79,11.36,8.97.38-4.74.57-9.39-3.26-12.31Z"/>
  <path class="st0" d="M349.42,325.18c-6.31,0-11.46,5.17-11.46,11.5s5.14,11.43,11.46,11.43,11.5-5.14,11.5-11.43-5.17-11.5-11.5-11.5Z"/>
  <path class="st0" d="M153.39,111.33c4.82-1.26,5.61-4.39,3.09-8.83-2.37-4.18-4.49-8.52-7.04-12.59-2.47-3.96-5.35-7.66-8.3-11.84-1.91,2.53-3,3.98-4.67,6.18-.26-4.52-.46-7.95-.84-12.21-.88-2.85-1.76-5.69-2.64-8.54-.37.11-.73.21-1.1.32-1.35,7.05-2.7,14.09-4.05,21.14l-1.46.55c-.8-1.17-1.61-2.33-2.43-3.53q-2.61,8.85-1.12,11.01c3.61-4.21,6.03-4.85,9.11-2.45,3.04,2.37,2.59,5.12.77,7.9-2.38,3.64-4.92,3.69-10.49.11-2.48,9.12-1.36,17.32,4.56,25.36,7.87-6.97,17.04-10.08,26.59-12.57Z"/>
  <path class="st0" d="M127.88,179.74c.06-.94.11-1.88.17-2.81-.05.84-.11,1.68-.28,2.71.04.03.06.08.1.1Z"/>
  <path class="st0" d="M126.6,182.86c.31.32.62.64.96,1.25.03.29.02.31.02.31-.51-.31-1.01-.62-1.52-.93.51.31,1.01.62,1.64,1.2l.26.14c-.09-.05-.17-.09-.32-.28-.06-.13-.05-.15-.04-.16.13.14.24.29.36.43-.12-.15-.23-.29-.43-1.01-.31-.32-.62-.64-.93-.96Z"/>
  <path class="st0" d="M129.05,188.77c5.23,4.45,12.92,3.26,17.15-2.65,3.59-5.02,1.47-12.87-4.4-16.27-4.82-2.79-9.46-1.27-12.36,4.4,4.93-.42,6.2,2.72,5.88,6.51-.29,3.46-.31,7.64-6.27,8Z"/>
  <path class="st0" d="M33.34,283.87c.39.13.78.25,1.48.06-.39-.13-.77-.28-1.17-.36-.08-.02-.21.19-.31.3Z"/>
  <path class="st0" d="M23.07,288.99s-.06-.11,0,0h0Z"/>
  <path class="st0" d="M60.6,250.45c-.01.07-.03.15-.02.24.16-.26.32-.53.49-.79-.13.21-.26.42-.47.55Z"/>
  <path class="st0" d="M20.62,290.94c-.07.04-.14.07-.21.11.11,0,.16-.06.21-.11Z"/>
  <path class="st0" d="M127.53,186.75s-.07-.07-.12-.1c.06.17.11.33.17.5-.04-.13-.08-.27-.05-.4Z"/>
  <rect class="st0" x="530.72" y="251.01" width="9.25" height="3.03"/>
  <path class="st0" d="M666.84,339.11h-5.73v8.58h5.75c2.36,0,4.87-1.62,4.87-4.4,0-2.09-1.44-4.18-4.9-4.18Z"/>
  <rect class="st0" x="513.58" y="251.01" width="8.8" height="3.03"/>
  <rect class="st0" x="513.58" y="241.64" width="8.8" height="2.91"/>
  <path class="st0" d="M456.97,269.35c1.43,0,2.91-2,4.63-6.34,2-5.14,3.66-11.77,4.29-17.42-2.4.34-4.23,1.2-6.23,2.91-3.77,3.2-6.23,8.51-6.23,13.6,0,4.06,1.54,7.25,3.54,7.25Z"/>
  <path class="st0" d="M667.47,329.14c0-2.04-1.59-3.48-3.28-3.48h-3.08v7.08h2.94c1.73,0,3.41-1.48,3.41-3.59Z"/>
  <path class="st0" d="M504.02,325.18c-6.31,0-11.46,5.17-11.46,11.5s5.14,11.43,11.46,11.43,11.5-5.14,11.5-11.43-5.17-11.5-11.5-11.5Z"/>
  <rect class="st0" x="530.72" y="241.64" width="9.25" height="2.91"/>
  <path d="M743.53,294.73c-1.85.46-3.93,0-5.9-.06-2.04.15-4.08.29-6.56.37-.61,0-.79.07-1.24.06-1.01-.05-1.75-.01-2.86-.03-.83,0-1.29.08-2.07,0-4.38-.07-8.44,0-12.88,0-.85.03-1.3.13-2.1.17-27.69,0-55.04.06-82.84.04-.99,0-1.51.07-2.3.06-13.83,0-27.4.09-41.26-.26-1.04-.22-1.8,0-2.58-.09-4.16.03-8.3.37-13.34.7-7.58-.03-14.24-.08-20.9-.09-83.31-.14-166.61-.28-249.92-.41-30.99-.05-61.98-.19-92.96.04-2.79.02-8.02,2.64-7.93,3.71.4,4.89,5,3.62,8.22,3.66,13.82.17,27.64.14,41.46.18,1.41-.05,2.82-.1,5.1-.13,10.88.08,20.88.15,30.89.21,1.09-.07,2.18-.15,3.99-.19,1.14.09,1.58.15,2.01.21,17.46-.03,34.92-.09,52.38-.1,31.26-.01,62.53.01,94.23.19,1.26.11,2.09.06,3.2.12,5.62.02,10.96-.09,16.74-.06.91.04,1.37-.07,2.17-.05,2.04-.01,3.74-.14,6.18-.2,4.57.11,8.39.16,12.22.2,0,0,.41-.2.97-.17,12.35.25,24.14.49,35.92.72,10.08,0,20.16.03,30.25,0,11.75-.03,23.49-.1,35.65-.04.41.11.7.06.84.09.82-.03,1.5-.09,2.5-.04,1.48.03,2.64-.04,4.23-.04.97-.01,1.5-.11,2.29-.09,1,.06,1.75.01,2.87.04,12.32-.19,24.28-.62,36.24-.68,13.45-.07,26.91.19,41.2.36,8.95-.12,17.07-.41,25.18-.45,16.92-.08,33.85.1,50.76-.19,2.07-.03,5.76-2.18,5.81-3.46.13-3.07-1.92-5.29-5.88-4.31Z"/>
  <path d="M152.91,320.03c-.18-2.58-1.4-5.1-2.24-7.61-1.46-4.37-2.68-8.85-4.58-13.02-2.18-4.78-4.03-10.28-7.69-13.69-10.85-10.1-22.53-19.33-33.88-28.9-.27.66-.53,1.32-.8,1.97-.17-.59-.33-1.17-.3-2.31-.75-1.27-1.69-1.98-2.67-2.34.15,1.54.31,2.95.47,4.38-.18-1.42-.39-2.92-.63-4.63-1.03-1.35-1.94-2.09-2.85-2.83-.61.29-1.21.59-1.82.88-.23-.75-.47-1.5-.62-2.75-8.44-3.86-16.62-8.6-26.37-6.87.42-1.59.84-3.19,1.82-4.88.78-.35.91-.64.95-.97-.27-1.5-.54-3.01-.81-4.51.32-.09.64-.17.96-.26.58.88,1.15,1.76,2.16,2.8,3.15-1.56,5.87-3.28,8.59-5-.01-.46-.02-.92-.43-1.87-7.45-.68-8.16-1.63-6.91-8.5.59-3.26,1.52-6.65,1.19-9.86-.76-7.31-.63-13.81,7.86-16.57-1.24-1.33-2.47-2.66-3.71-3.99,2.39.69,6.45-1.49,5.93,3.91.6,1.24,1.24,1.81,1.88,2.37.59-1.18,1.17-2.36,2.2-3.99-.47-2.28-1.37-4.12-2.93-7.28,3.19,1.22,5.3,2.03,7.42,2.84,1.33-.32,2.66-.64,4.33-1.48-.69-2.17-1.73-3.82-3.18-6.12,4.67-.28,8.99-.54,13.31-.8.23-1.01.46-2.02.56-3.52-1.07-1.41-2-2.32-2.94-3.23-3.77,1.56-6.56,1.39-6.56-4.5.95-3.93,1.94-7.08,2.92-10.23-.43-.22-.85-.43-1.28-.65.43.22.85.43,1.48.41,1.51-3.14,2.84-6.08,3.86-9.03.21-.28.42-.56.64-.83,3.28-1.68,5.8-3.37,8.33-5.06.03-3.29,1.17-5.03,5.26-3.21,1.66-1.33,2.8-2.86,3.95-4.4l-2.06-1.23c.3-.29.61-.58.91-.87.37.46.74.92,1.56,1.79,20.15-17.55,43.55-24.62,69.82-22.88,6.35.42,12.97.62,18.18,5.22,1.07.94,1.75,2.66,2.93,3.07,4.58,1.59,9.47-.95,11.14-5.53,2.1-5.74,1.84-11.16-.86-16.88-1.4-2.96-1.96-7.32-.85-10.28,4.6-12.28,9.66-24.42,15.18-36.32,3.23-6.97,7.64-13.4,12.24-21.31.68,2.51,1.04,3.39,1.15,4.3,1.49,12.39,3.27,24.75,4.27,37.18.51,6.41-.17,12.95-.75,19.39-.5,5.62-3.33,9.67-8.6,12.52-2.88,1.56-5.37,4.8-6.81,7.86-1.87,3.97-2.71,8.47-3.63,12.82-.44,2.09-.06,4.36-.05,6.55,1.96-1.15,3.92-2.3,5.89-3.44.26-.15.52-.3.66-.37,7.87,4.89,15.67,9.74,23.47,14.59-.45.36-.89.72-1.34,1.09.67,1.4.99,3.23,2.08,4.11,2.17,1.76,4.78,2.98,7.15,4.52.09.06-.45,1.08-.7,1.66-.08.17-.15.34-.41.95-.21.62-.23.79-.26.97,1.7,1.31,3.39,2.62,5.09,3.93-.33.15-.67.3-1,.45.31,1.49.19,3.29,1.02,4.39,1.56,2.09,3.64,3.8,5.54,5.63,2.18,2.1.81,2.62-1.62,3.21-.73.43-1.06.55-1.39.66,0,0,.06.03.56.2.71.48.92.79,1.13,1.1,8.5,7.2,13.54,16.38,16.62,27.06,2.65,9.21,6.39,18.1,9.93,27.32.8.15,1.31.12,2.31-.37.67-16.19-3.73-31.1-9.66-45.26-5.57-13.31-13.52-25.61-20.02-38.55-5.53-11-15.65-16.22-25.65-21.74-.16-.17-.28-.36-.18-1.27-.24-1.25-.65-1.82-1.06-2.38.38-.15.76-.29,1.68-.17,2.53.65,4.53,1.03,6.53,1.41.25-.49.51-.97.76-1.46-2.31-1.85-4.62-3.7-6.72-5.38,1.05-.76,2.19-1.57,3.58-2.57-1.84-1.19-2.6-1.68-3.82-2.46,6.11-2.62,7.61-7.78,7.85-13.15.39-8.96.95-18.02.02-26.9-1.68-16.03-4.3-31.96-6.8-47.89-.38-2.4-2.2-4.58-3.36-6.86-1.97,1.62-4.52,2.88-5.82,4.92-7.64,12.09-15.69,23.99-22.22,36.67-6.36,12.34-12.24,25.13-13.77,39.71h-3.99c.81,1.42,1.36,2.4,1.99,3.5-1.69.14-3.21.27-3.73.31-.37,2.46-.64,4.2-.93,6.16-2.95-.68-5.53-1.27-8.11-1.88-.13-.03-.21-.23-.49-.54,12.76-26.49,5.23-52.84-1.3-79.7-3.42,2.3-6.63,4.65-8.88,7.7-11.95,16.14-21.05,33.48-21.54,54.23-.02.96-.68,2.39-1.45,2.78-3.99,2.01-.32,2.73.54,3.92,1.23,1.99,2.46,3.99,3.77,6.11-.29.14-1.23.58-2.78,1.31,1.03.68,1.68,1.11,2.35,1.55-.8,1.35-1.59,2.71-3.14,5.34-1.98-2.42-3.72-4.43-5.32-6.55-1.79-2.37-3.45-4.85-5.33-7.63-.17-.35-.27-.41-.27-.41-1.25-1.84-2.49-3.68-4.01-6.11-2.01-2.81-3.41-5.45-5.56-7.16-3.43-2.74-4.96-6.15-6.44-10.19-2.44-6.7-6.07-12.97-9.19-19.42l-1.84.36c-1.26,2.65-2.52,5.3-3.82,8.04-1.81-1.94-3.35-3.59-4.95-5.31-4.75,6.22-6.14,14.31-4.81,22.64.58,3.66.45,7.54,0,11.24-1.44,11.67-4.65,23.25-.96,35.09.3.97-.63,2.29-.87,3.47-1.59,7.77-7.84,12.48-12.09,18.51-.21.39-.42.78-.71,1.19.22-.38.36-.73.42-1.04-.69.8-1.13,1.45-1.28,2.06-.11.11-.22.22-.35.34-1.42,1.69-2.17,3.14-2.92,4.59,1.17,1.3,1.6,2.15,1.06,3.01.5-.8,0-1.6-1.31-2.81-.92,1.77-1.6,3.34-1.88,4.93,1.73-.83,2.76-1.46,3.17-2.09-.45.7-1.54,1.4-3.39,2.37-2.26,4.77-4.34,9.18-5.45,13.83-1.54,6.42-4.74,10.54-11.36,12.33-2.03.55-3.44,3.41-5.13,5.21l.62.56c-.19,0-.38,0-1.1-.28-1.85,4.52-3.17,9.34-4.41,13.85-5.3-.28-10.18-.54-15.06-.79l-.39,2.15c2.2.68,4.41,1.36,6.61,2.03,1-.59,2-1.19,3.01-1.78.01.75.03,1.5.28,2.83.9.45,1.56.32,2.21.19.19-.2.37-.41.56-.61,0,.19,0,.38-.19,1.1.86,1.32,1.91,2.11,3.15,3.04-3.26,1.84-5.97,3.38-8.68,4.91,1.51.79,3.02,1.57,5.05,2.74,3.27.38,3.4,1.02,1.48,5.22.35,1.34.7,2.68,1.03,4.83-1.02,3.59-2.02,6.37-3.02,9.15-.38.74-.75,1.49-1.67,2.58-2.52,3.99-4.5,7.64-6.48,11.28.21.18.42.37.62.55-.21-.18-.42-.37-.67-.48-.03.05-.09.1-.1.19-.07-.05-.13-.09-.22-.15-3.11,2.04-5.81,4.53-8.5,7.03-.35.62-.7,1.24-1.17,1.9.4-.61.69-1.2.87-1.73-.9,1.05-1.52,1.96-1.81,2.89-.1.1-.19.21-.3.31-6.99,4.31-12.57,9.14-14.72,16.86l-.99,4.83c-.63-.27-1.26-.55-2.26-.94-2.23,2.78-4.16,5.65-5.92,8.61-.57.96-.8,2.11-1.14,3.2-.03,0-.04,0-.07-.02-2.08,2.64-3.71,5.54-5.34,8.69v.75c.21,1.64.43,3.27.32,5.41-.32,4.2-.32,7.89-.32,11.59,1.24.54,2.48,1.07,3.72,1.61-1.03.48-2.06.96-3.4,1.88-.32,3.8-.32,7.16-.05,10.87,3.51-8.18,6.75-16.71,9.99-25.24l-.76-1.51c.72-.02,1.43-.04,2.7.37,2.3,0,4.05-.43,5.8-.86.29-2.02.58-4.03.82-6.43-2.28-.23-4.51-.08-6.72-.29-.83-1.47-1.69-2.57-2.77-3.97,3.53-1.25,6.58-2.34,9.97-3.31,1.24-.23,2.15-.57,4.69-1.53-.85,3.77-1.48,6.55-2.51,9.25-.75,2.11-1.11,4.31-1.31,7.17.89,1.34,1.61,2.02,2.36,2.66,4.45,3.81,7.09,3.08,7.85-2.73.61-4.69.5-9.55.12-14.28-.62-7.73-1.77-8.65-9.18-9.02.97-.89,1.85-1.7,2.73-2.51,0-.2-.02-.4-.02-.86.01-.26.06-.32.06-.32-.29.02-.55-.06-.62-.62,1.7-1.88,4.68-3.57,4.51-4.82-.76-5.61,3.97-6.47,6.85-8.58,4.52-3.32,9.26-6.6,14.39-8.74,3.94-1.65,8.9-2.79,12.93-1.93,8.44,1.79,16.57,5.05,24.82,7.71.01.11.03.22.04.34.05.96-.15,1.85.19,2.18,1.68,1.6,3.62,2.94,5.25,4.57,5,5,10,10.01,14.83,15.17,3.6,3.85,7.66,7.52,10.29,12,9.99,17.03,14.68,35.7,16.3,55.32.64,7.73,2.52,15.38,4.08,23.01.33,1.63,1.71,3.05,3.29,5.71-.59-6.83-2.5-12.43-1.21-17.15,3.98-14.51-.71-28.38-1.71-42.5ZM177.19,79.6c2.51-14.71,7.58-28.49,16.22-40.81.99-.16,1.99.17,2.11.7,3.04,13,5.13,26.15,2.78,39.46-.64,3.65-3.29,6.95-5.07,10.39-1.86,3.58-3.78,7.13-6.1,11.51-.2.02-1.63.19-3.39.39,0-2.49-.09-4.77.02-7.04.18-3.6-1.05-6.16-4.1-8.43-1.55-1.15-2.8-4.24-2.47-6.16ZM122.24,98.54c5.57,3.57,8.11,3.53,10.49-.11,1.82-2.78,2.27-5.53-.77-7.9-3.08-2.4-5.5-1.76-9.11,2.45q-1.49-2.15,1.12-11.01c.82,1.2,1.63,2.36,2.43,3.53l1.46-.55c1.35-7.05,2.7-14.09,4.05-21.14.37-.11.73-.21,1.1-.32.88,2.85,1.76,5.69,2.64,8.54.38,4.26.58,7.7.84,12.21,1.66-2.2,2.76-3.65,4.67-6.18,2.95,4.17,5.83,7.88,8.3,11.84,2.55,4.07,4.66,8.41,7.04,12.59,2.52,4.44,1.73,7.57-3.09,8.83-9.55,2.49-18.73,5.6-26.59,12.57-5.92-8.04-7.04-16.24-4.56-25.36ZM20.41,291.05c.07-.04.14-.07.21-.11-.04.05-.1.1-.21.11ZM23.07,288.99c-.06-.11,0,0,0,0h0ZM33.34,283.87c.11-.11.24-.32.31-.3.4.09.78.24,1.17.36-.71.19-1.09.06-1.48-.06ZM60.59,250.69c0-.09,0-.17.02-.24.21-.13.34-.34.47-.55-.16.26-.32.53-.49.79Z"/>
  <path d="M184.32,230.42c-4.11-1.27-7.55-2.34-10.98-3.41-15.39-3.3-30.79-6.6-46.92-10.07-6.15-.81-11.81-2.4-15.38,4.22,1.54.47,3.23.99,4.91,1.51,1.1.18,2.21.37,3.96.64,8,1.36,15.35,2.62,22.7,3.88,7.35,2.13,14.7,4.26,22.66,6.66,1.85.7,3.08,1.14,4.32,1.57.56.05,1.12.11,2.29.41,2.81.9,4.97,1.72,7.22,2.17,5.94,1.19,12.03,4.31,17.66-.44-3.92-2.32-7.85-4.64-12.43-7.14Z"/>
  <path d="M198.24,238.09c.33-.32.31-.38.31-.38-.38-.26-1.03-.81-1.09-.75-.23.22-.46.41-.7.6.13.07.25.15.38.22.26.21.51.41,1.11.3Z"/>
  <path d="M138.18,197.32c7.01-3.58,13.6-7.11,19.54-10.28-1.5-4.09-2.82-7.76-4.18-11.42-2.51-6.74-6.38-12.17-14.09-13.28-6.63-.95-11.74,1.71-15.08,7.47-3.84,6.63-4.51,13.6-.83,20.44,2.96,5.51,7.96,7.78,14.64,7.07ZM127.41,186.65c.06.03.09.07.12.1-.04.13,0,.27.05.4-.06-.17-.11-.33-.17-.5ZM127.69,184.69c-.63-.58-1.13-.89-1.64-1.2.51.31,1.01.62,1.52.93,0,0,.01-.02-.02-.31-.34-.61-.65-.93-.96-1.25.31.32.62.64.93.96.19.71.31.86.43,1.01l-.26-.14ZM127.88,179.74s-.07-.07-.1-.1c.17-1.03.22-1.87.28-2.71-.06.94-.11,1.88-.17,2.81ZM129.44,174.26c2.9-5.67,7.55-7.19,12.36-4.4,5.87,3.4,7.99,11.24,4.4,16.27-4.23,5.92-11.92,7.1-17.15,2.65,5.96-.36,5.98-4.54,6.27-8,.32-3.79-.94-6.94-5.88-6.51Z"/>
  <path d="M70.44,303.15c-6.06,3.87-11.61,8.6-17.07,13.31-.68.58-.09,3.92.94,4.89,1.59,1.49,4.15,1.9,6.15,3.02,3.06,1.72,6.08,3.54,8.95,5.56,1.74,1.23,2.92,3.69,4.75,4.2,2.3.65,5-.14,7.71-.69,1.18-9.4,1.08-18.13-2.91-26.71-2.09-4.51-5.11-5.77-8.52-3.59ZM76.34,324.66c-4.08-3.18-7.77-6.02-11.36-8.97-.22-.18.33-1.29.51-1.97,3-.81,6.27-2.37,7.59-1.36,3.83,2.92,3.63,7.57,3.26,12.31Z"/>
  <path d="M164.29,246.72c-3.04-1.74-5.56-3.15-8.08-4.56-1.73-.73-3.46-1.47-5.7-2.49-1.01-.55-1.5-.82-2-1.08-.87-.29-1.74-.57-3.2-1.08-1.3-.57-2.01-.91-2.71-1.26-.79-.22-1.58-.43-3.03-.94-.77-.62-.89-.94-1-1.27,0,0-.05.03-.38.4-3.42-.05-6.52-.47-9.61-.88-1.09.29-2.17.58-3.62,1.29.71,1.55,1.58,3.11,2.89,3.74,9.43,4.5,18.81,9.15,28.5,13.04,6.43,2.58,13.33,3.99,20.02,5.92.4-.64.81-1.28,1.21-1.92-1.46-1.01-2.93-2.03-4.39-3.04-2.79-1.84-5.58-3.69-8.9-5.86Z"/>
  <path d="M159.19,217.25c1.44.13,2.47.12,3.81.19,2.5.25,4.71.41,7.6.69,1.61.26,2.54.41,3.46.55.53.03,1.05.05,2.22.15,7.31,1.35,13.98,2.62,20.64,3.9,1.77.33,3.53.66,5.8,1.35.94.33,1.37.31,1.8.3.03-.17.07-.33.01-1.06-1.54-1.34-2.94-2.26-4.46-2.88-17.54-7.12-35.99-9.4-54.72-9.95-4.98-.15-9.99.12-14.97.43-2.67.17-4.22,1.37-2.08,4.17,10.16.67,20.31,1.35,30.86,2.16Z"/>
  <path d="M108.05,339.27c-3.15,2.27-5.91,5.36-8.14,8.56-3.1,4.45-1.89,6.91,3.92,8.64,5.12-.95,8.03,1.87,11.32,4.56,1.53,1.25,4.97,1.82,6.55.92,1.57-.89,2.39-3.94,2.61-6.13.28-2.91-.34-5.91-.57-8.87-.74-9.32-8.13-13.11-15.67-7.68ZM106.22,349.3c2.74-2.05,4.89-3.66,7.03-5.27,6.27,2.17,3.56,6.79,4.67,10.75-3.89-1.82-7.07-3.32-11.7-5.49Z"/>
  <path d="M109.92,178.25c2.91-.97,3.84-2.15.5-3.39-.37,1.29-.6,2.3-.5,3.39Z"/>
  <path d="M95.5,249.5c-.03.93.2,1.68.43,2.43.61-.29,1.21-.59,1.72-1.14-.69-.66-1.29-1.07-2.15-1.29Z"/>
  <path d="M103.6,256.79c-.2.83-.04,1.41.13,2,.27-.66.53-1.32.71-2.05-.09-.07-.47-.19-.84.05Z"/>
  <path d="M127.63,184.56c.15.18.23.23.32.28-.12-.15-.23-.29-.36-.43,0,0-.02.02.04.16Z"/>
  <polygon points="239.25 341.6 221.91 317.68 221.5 317.68 221.5 354.79 228.78 354.79 228.78 339.02 239.23 354.18 239.27 354.18 249.69 339.02 249.69 354.79 256.97 354.79 256.97 317.68 256.57 317.68 239.25 341.6"/>
  <polygon points="263.26 354.79 285.09 354.79 285.09 347.56 270.54 347.56 270.54 340.08 283.02 340.08 283.02 332.82 270.54 332.82 270.54 325.75 285.09 325.75 285.09 318.58 263.26 318.58 263.26 354.79"/>
  <polygon points="308.18 341.6 290.84 317.68 290.44 317.68 290.44 354.79 297.71 354.79 297.71 339.02 308.16 354.18 308.2 354.18 318.63 339.02 318.63 354.79 325.9 354.79 325.9 317.68 325.5 317.68 308.18 341.6"/>
  <path d="M349.44,317.84c-10.35,0-18.82,8.49-18.82,18.89s8.47,18.75,18.8,18.75,18.87-8.45,18.87-18.75-8.49-18.89-18.84-18.89ZM349.42,348.12c-6.31,0-11.46-5.14-11.46-11.43s5.14-11.5,11.46-11.5,11.5,5.17,11.5,11.5-5.17,11.43-11.5,11.43Z"/>
  <path d="M397.13,330.31c0-6.51-5.55-11.72-12.31-11.72h-11.81l.02,36.21h7.28v-17.12l11.52,17.12h8.89l-10.29-14.4c3.89-1.37,6.69-5.44,6.69-10.08ZM384.95,334.91l-4.67-.02v-9.1h4.67c2.45,0,4.67,1.98,4.67,4.56s-2.2,4.58-4.67,4.56Z"/>
  <rect x="404.18" y="318.58" width="7.28" height="36.21"/>
  <polygon points="417.75 354.79 439.58 354.79 439.58 347.56 425.02 347.56 425.02 340.08 437.51 340.08 437.51 332.82 425.02 332.82 425.02 325.75 439.58 325.75 439.58 318.58 417.75 318.58 417.75 354.79"/>
  <path d="M459.14,333.25c-4.16-1.95-6.9-2.7-6.9-4.85,0-1.86,2.02-3.44,4.74-3.44,2.02,0,4.11.88,5.19,3.03l5.37-3.75c-1.64-4.38-5.73-6.42-10.67-6.42-6.65,0-11.95,4.13-11.95,10.4,0,5.77,4.47,8,8.54,10.02,3.8,1.89,8.13,3.98,8.13,6.63,0,1.93-2.29,3.32-5.71,3.32-3.12,0-5.44-1.17-7.03-3.73l-5.82,4.09c2.43,4.49,6.81,6.96,12.74,6.96,7.75,0,13.14-4.2,13.14-10.8,0-5.57-3.77-8.62-9.77-11.46Z"/>
  <path d="M504.04,317.84c-10.35,0-18.82,8.49-18.82,18.89s8.47,18.75,18.8,18.75,18.87-8.45,18.87-18.75-8.49-18.89-18.84-18.89ZM504.02,348.12c-6.31,0-11.46-5.14-11.46-11.43s5.14-11.5,11.46-11.5,11.5,5.17,11.5,11.5-5.17,11.43-11.5,11.43Z"/>
  <polygon points="527.6 354.83 534.88 354.83 534.88 340.3 547.37 340.3 547.37 333.05 534.88 333.05 534.88 325.75 549.43 325.75 549.43 318.49 527.6 318.49 527.6 354.83"/>
  <path d="M584.56,334.46v6.72h9.37c-.25,4.36-3.95,7.01-9.12,7.01-7.08,0-11.97-5.17-11.97-11.46,0-6.76,5.68-11.52,11.3-11.52,3.23,0,6.47,1.57,9.3,4.33l4.04-6.04c-3.55-3.46-8.56-5.62-13.25-5.66-10.35,0-18.8,8.54-18.8,18.89s8.4,18.78,19.07,18.78c9.43,0,17.27-6.63,17.27-17.99,0-.99-.07-2-.18-3.05h-17.03Z"/>
  <polygon points="626.74 333.07 613.74 333.07 613.74 318.58 606.48 318.58 606.48 354.79 613.74 354.79 613.74 340.28 626.74 340.28 626.74 354.79 634 354.79 634 318.58 626.74 318.58 626.74 333.07"/>
  <rect x="640.29" y="318.58" width="7.28" height="36.21"/>
  <path d="M670.84,334.39c.88,0,3.41-2.38,3.41-6.22,0-4.87-4.09-9.59-10.51-9.59h-9.88v36.21h13.68c7.46,0,11.3-5.64,11.3-10.98,0-5.82-4.51-9.41-8-9.41ZM661.11,325.66h3.08c1.68,0,3.28,1.44,3.28,3.48s-1.68,3.59-3.41,3.59h-2.94v-7.08ZM666.86,347.69h-5.75v-8.58h5.73c3.46,0,4.9,2.09,4.9,4.18,0,2.79-2.52,4.4-4.87,4.4Z"/>
  <polygon points="690.2 318.58 682.92 318.58 682.92 354.79 704.75 354.79 704.75 347.56 690.2 347.56 690.2 318.58"/>
  <rect x="708.84" y="318.58" width="7.28" height="36.21"/>
  <path d="M328.65,243.13c-1.31-3.26-3.03-6.46-5.03-9.08l-5.66,1.88c2.06,2.8,3.48,5.48,5.03,9.25l5.66-2.06Z"/>
  <path d="M286.2,273.52l2.86,10.85c1.14-.34,2.06-.57,4.06-.97,21.14-3.6,34.11-13.43,41.36-31.36-3.03-1.83-5.66-4.06-8.4-7.14-4.06,12.34-11.6,20.74-22.28,24.97-5.31,2.11-12.57,3.66-17.6,3.66Z"/>
  <path d="M336.64,240.22c-1.6-3.71-3.2-6.4-5.08-8.8l-5.37,1.83c1.89,2.51,3.37,5.2,4.97,8.97l5.48-2Z"/>
  <path d="M300.88,265.64l4.86-8.97c-4.46-3.03-9.83-5.71-15.94-8.11l-5.26,8.17c5.83,2.23,12.23,5.71,16.34,8.91Z"/>
  <path d="M310.48,242.1c-3.94-2.4-10.11-5.26-16.4-7.54l-5.08,8.11c5.08,1.66,11.08,4.63,16.4,8.17l5.08-8.74Z"/>
  <path d="M391.66,239.3c-1.03-3.37-2.4-6-4.46-8.63l-4.74,1.49c2.06,3.03,3.03,4.91,4.46,8.8l4.74-1.66Z"/>
  <path d="M372.3,247.7c-3.03,13.14-13.48,23.37-28.74,28.17,3.83,3.77,5.14,5.48,7.26,9.6,18.05-8.06,27.88-19.37,32.68-37.53.23-.8.34-1.31.4-1.49.11-.4.17-.63.4-1.2l-2.46-3.09,2.4-.8c-1.37-3.71-3.03-6.8-4.86-9.14l-5.2,1.54c1.09,1.49,1.66,2.4,2.34,3.77l.23.4.11.17c-.86.11-2.4.17-4.4.17h-24.57c-5.14,0-6.63-.11-8.85-.46v10.23c2.11-.29,3.26-.34,8.68-.34h24.57Z"/>
  <path d="M397.89,262.32h11.08c-.23-2.29-.29-4.11-.29-8.17v-11.37c0-4,.06-5.03.29-7.66h-11.08c.29,2.51.34,4.06.34,7.54v11.31c0,4.29-.06,6.28-.34,8.34Z"/>
  <path d="M410.18,285.35c5.6-1.6,8.63-2.8,11.88-4.68,6.28-3.6,10.17-8.28,11.88-14.51.86-3.31,1.31-8.8,1.31-16.62v-6.68c0-3.66.06-4.51.29-7.71h-11.08c.29,2.46.34,3.66.34,7.83v5.94c0,4.97-.29,10-.63,12.11-.91,5.03-3.49,8.4-8.51,11.08-2.91,1.54-5.83,2.46-11.31,3.49,3.08,3.54,4.51,5.94,5.83,9.77Z"/>
  <path d="M457.14,279.92c5.2,0,9.03-3.2,12.34-10.51,3.08-6.74,5.03-14.11,6.28-23.94,2.06.34,3.31.86,4.8,2,3.31,2.51,5.03,6.4,5.03,11.25,0,6.11-2.46,10.91-6.86,13.25-3.08,1.6-6.63,2.51-12,2.91,2.4,3.2,3.49,5.26,4.86,9.37,8-1.26,12.51-3.08,16.4-6.57,4.8-4.29,7.6-11.03,7.6-18.45,0-6.46-1.94-12-5.6-15.88-4.23-4.46-10.97-7.03-18.62-7.03-8.4,0-15.65,2.91-20.68,8.4-4.28,4.68-6.57,10.74-6.57,17.42,0,10.45,5.37,17.77,13.03,17.77ZM459.65,248.5c2-1.71,3.83-2.57,6.23-2.91-.63,5.66-2.29,12.28-4.29,17.42-1.71,4.34-3.2,6.34-4.63,6.34-2,0-3.54-3.2-3.54-7.25,0-5.08,2.46-10.4,6.23-13.6Z"/>
  <path d="M504.67,261.47c1.94-.12,3.94-.17,6.46-.17h16.8l-5.03,2.46c2.91,3.31,4.91,6.28,6.86,10.05l5.31-3.2c-.06,3.08-.17,4-.46,4.91-.57,1.43-2.06,1.83-7.03,1.83-4.4,0-5.2-.29-5.2-1.71v-6c0-3.14.06-4.34.17-5.54h-9.08c.23,1.49.29,2.34.29,5.54v9.54c0,5.2,2.23,6.29,12.91,6.29,6.4,0,10.11-.34,12.28-1.14,1.94-.74,2.8-1.66,3.43-3.88.46-1.54.8-3.88.97-6.17,1.31,2.97,1.83,4.4,3.08,8.28l7.71-4.17c-2.23-5.66-4.46-9.83-7.88-15.08l-7.08,3.03c1.71,2.86,2.34,4.06,3.43,6.34-2.63-.46-4.63-1.03-7.26-2.17l1.6-.97c-2.06-3.31-3.71-5.37-6.4-8.23h11.83c2.68,0,4.46.06,6.51.17-.23-1.94-.29-3.31-.29-6v-15.2c0-3.14.06-4.68.29-6.34-1.83.17-3.31.23-6.51.23h-31.19c-3.2,0-4.68-.06-6.51-.23.23,1.83.29,3.31.29,6.34v15.2c0,2.46-.06,4-.29,6ZM530.72,241.64h9.25v2.91h-9.25v-2.91ZM530.72,251.01h9.25v3.03h-9.25v-3.03ZM513.58,241.64h8.8v2.91h-8.8v-2.91ZM513.58,251.01h8.8v3.03h-8.8v-3.03Z"/>
  <path d="M510.39,275.24c.97-3.03,1.37-4.91,2.06-9.03l-7.66-2.46c-.69,3.83-1.08,5.66-2.06,8.17-1.03,2.74-1.66,3.94-3.31,6.06l7.2,5.37c1.89-2.97,2.69-4.63,3.77-8.11Z"/>
  <path d="M560.09,258.33c.74,9.08,2.29,14.8,5.26,19.02,2.23,3.26,4.97,4.91,8.17,4.91,3.48,0,6.57-2.06,8.68-5.83,1.77-3.2,3.14-6.63,4.34-11.03-3.77-2.74-5.31-4.06-7.94-7.2-.69,3.43-1.71,6.68-2.97,9.88-.57,1.48-1.2,2.23-1.83,2.23-2.4,0-4.23-9.66-4.23-22.45,0-4.17.23-7.77.63-10.34h-10.97c.17,1.54.17,2.11.23,4.06.12,7.94.34,12.74.63,16.74Z"/>
  <path d="M609.73,272.84c-1.6-13.83-5.77-24.28-13.2-33.25l-8.68,4c7.08,8.97,11.03,20.22,11.65,33.02l10.23-3.77Z"/>
  <path d="M615.28,285.63h9.14v-2.46h31.08v2.46h9.14c-.23-1.66-.34-3.31-.34-6.57v-11.71c0-2.4.11-4.28.29-5.88h-9.31c.17,1.48.23,2.97.23,4.91v8.28h-11.37v-16.97h14.05c1.88,0,3.2.06,4.51.23-.17-1.08-.23-2.46-.23-4.4v-11.31c0-2.46.06-3.66.29-5.48h-9.31c.17,1.43.23,2.8.23,4.8v7.94h-9.54v-10.68c0-2.86.06-4.34.34-6.17h-9.77c.23,1.54.34,3.37.34,6.17v10.68h-8.74v-7.88c0-2.17.06-3.66.23-4.86h-9.31c.11,1.08.29,4.51.29,5.54v11.25c0,1.71-.06,3.2-.23,4.4,1.31-.17,2.68-.23,4.68-.23h13.08v16.97h-10.63v-8.17c0-2.4.06-3.66.23-4.97h-9.31c.17,1.37.29,3.6.29,5.94v11.6c0,2.74-.11,4.68-.34,6.57Z"/>
</svg>