<?xml version="1.0" encoding="UTF-8"?>
<svg id="Layer_1" xmlns="http://www.w3.org/2000/svg" version="1.1" viewBox="0 0 500 500">
  <!-- Generator: Adobe Illustrator 30.3.0, SVG Export Plug-In . SVG Version: 2.1.3 Build 182)  -->
  <path d="M334.67,497.01c-78.79,0-156.6,0-234.41-.02-3.28,0-6.57-.08-9.85-.05-7.89.08-12.67-4.28-13.54-11.56-.96-8.02,3.87-14.31,11.58-14.28,13.12.06,13.59-7.11,13.18-17.02-.59-14.09-.29-28.23-.09-42.34.14-9.98,4.5-14.37,14.46-14.6,10.83-.25,21.69-.49,32.49.06,7.24.37,12.45-2.2,17.34-7.2,17.35-17.72,33.85-35.89,39.16-61.28,2.14-10.21.92-20.2-1.95-30.08-.98-3.36-3.29-5.3-6.33-7.05-18.18-10.4-36.66-20.35-54.22-31.7-58.85-38.03-87.18-93.35-90.2-162.51-.3-6.88-.23-13.79.02-20.68.5-13.7,10.89-24.06,24.57-24.41,9.43-.24,18.87-.05,28.73-.05,1.06-10.43-1.73-19.19-3.37-28.04-2.78-14.96,2.03-21.21,17.03-21.22,87.33-.03,174.66-.03,261.98.02,14.09,0,18.94,5.93,16.55,19.81-1.59,9.26-3.26,18.5-4.96,28.14,9.65,2.37,18.5,1.03,27.24,1.24,17.84.42,27.01,9.76,27.63,27.37,1.78,50.25-10.22,96.31-41.39,136.4-17.13,22.03-37.79,40.3-63.34,52-14.73,6.74-26.87,17.4-41.08,25.01-9.16,4.91-7.77,17.7-7.26,27.05,1.76,32.37,21.57,54.62,44.46,74.75,3,2.64,6.72,2.26,10.31,2.26,11.49.03,22.98-.14,34.47.09,9.97.2,14.31,4.57,14.43,14.57.19,16.41.3,32.83-.03,49.24-.13,6.67,2.05,9.24,8.92,9.57,10.15.5,16.29,6.33,16.14,13.74-.16,7.96-6.61,12.64-17.78,12.68-23.31.07-46.62.05-70.91.06M236.7,184.35c12.24-9.16,22.99-1.67,33.93,3.12,4.95,2.16,9.86,4.4,14.67.11,4.56-4.06,5.73-9.02,4.27-15.14-3.21-13.42-2.22-25.84,10.01-35.07,2.29-1.73,4.11-4.28,5.68-6.75,4.67-7.35,2.38-14.3-5.71-17.3-3.05-1.13-6.32-2.32-9.51-2.35-13.73-.12-21.46-7.9-26.39-19.67-.63-1.5-1.54-2.9-2.45-4.26-7.22-10.86-16.96-11.13-22.61.78-6.94,14.66-16.78,23.48-33.3,24.2-2.22.1-4.56.88-6.57,1.89-6.64,3.32-8.52,10.22-4.44,16.38,1.8,2.72,3.71,5.65,6.28,7.53,12.19,8.95,12.31,21.21,10.01,34.27-.28,1.61-.89,3.2-.95,4.82-.28,8.76,7.29,14.7,15.7,12.17,3.43-1.03,6.67-2.74,11.36-4.73M121.01,125.49c-1.49-8.05-2.9-16.11-4.48-24.14-4.68-23.78-4.7-23.61-29.4-22.43-5.82.28-8.1,2.23-8.21,8.14-.98,50.01,14.95,93.37,50.36,129.13,2.36,2.38,4.41,5.67,9.14,5.81-5.79-31.83-11.51-63.33-17.4-96.51M381.98,203.7c24.34-29.22,37.03-63.16,38.5-100.83,1.08-27.69,5.02-23.3-24.37-23.93-6.53-.14-9.09,2.31-10.14,8.81-3.07,19.01-6.92,37.9-10.38,56.85-4.68,25.61-9.27,51.23-14.16,78.3,9-5.03,13.99-11.95,20.56-19.2Z"/>
</svg>